%TF.GenerationSoftware,KiCad,Pcbnew,(5.1.9-0-10_14)*%
%TF.CreationDate,2021-04-28T14:39:26+08:00*%
%TF.ProjectId,TPT_PCB,5450545f-5043-4422-9e6b-696361645f70,rev?*%
%TF.SameCoordinates,Original*%
%TF.FileFunction,Paste,Top*%
%TF.FilePolarity,Positive*%
%FSLAX46Y46*%
G04 Gerber Fmt 4.6, Leading zero omitted, Abs format (unit mm)*
G04 Created by KiCad (PCBNEW (5.1.9-0-10_14)) date 2021-04-28 14:39:26*
%MOMM*%
%LPD*%
G01*
G04 APERTURE LIST*
%ADD10C,0.150000*%
%ADD11C,0.015000*%
%ADD12R,2.500000X2.500000*%
%ADD13R,1.000000X2.500000*%
%ADD14R,2.100000X5.600000*%
%ADD15R,0.650000X1.220000*%
%ADD16R,1.550000X1.300000*%
%ADD17R,0.750000X2.100000*%
G04 APERTURE END LIST*
%TO.C,C6*%
D10*
X181633333Y-73357142D02*
X181585714Y-73404761D01*
X181442857Y-73452380D01*
X181347619Y-73452380D01*
X181204761Y-73404761D01*
X181109523Y-73309523D01*
X181061904Y-73214285D01*
X181014285Y-73023809D01*
X181014285Y-72880952D01*
X181061904Y-72690476D01*
X181109523Y-72595238D01*
X181204761Y-72500000D01*
X181347619Y-72452380D01*
X181442857Y-72452380D01*
X181585714Y-72500000D01*
X181633333Y-72547619D01*
X182490476Y-72452380D02*
X182300000Y-72452380D01*
X182204761Y-72500000D01*
X182157142Y-72547619D01*
X182061904Y-72690476D01*
X182014285Y-72880952D01*
X182014285Y-73261904D01*
X182061904Y-73357142D01*
X182109523Y-73404761D01*
X182204761Y-73452380D01*
X182395238Y-73452380D01*
X182490476Y-73404761D01*
X182538095Y-73357142D01*
X182585714Y-73261904D01*
X182585714Y-73023809D01*
X182538095Y-72928571D01*
X182490476Y-72880952D01*
X182395238Y-72833333D01*
X182204761Y-72833333D01*
X182109523Y-72880952D01*
X182061904Y-72928571D01*
X182014285Y-73023809D01*
%TO.C,C11*%
X138757142Y-98442857D02*
X138804761Y-98490476D01*
X138852380Y-98633333D01*
X138852380Y-98728571D01*
X138804761Y-98871428D01*
X138709523Y-98966666D01*
X138614285Y-99014285D01*
X138423809Y-99061904D01*
X138280952Y-99061904D01*
X138090476Y-99014285D01*
X137995238Y-98966666D01*
X137900000Y-98871428D01*
X137852380Y-98728571D01*
X137852380Y-98633333D01*
X137900000Y-98490476D01*
X137947619Y-98442857D01*
X138852380Y-97490476D02*
X138852380Y-98061904D01*
X138852380Y-97776190D02*
X137852380Y-97776190D01*
X137995238Y-97871428D01*
X138090476Y-97966666D01*
X138138095Y-98061904D01*
X138852380Y-96538095D02*
X138852380Y-97109523D01*
X138852380Y-96823809D02*
X137852380Y-96823809D01*
X137995238Y-96919047D01*
X138090476Y-97014285D01*
X138138095Y-97109523D01*
%TO.C,R5*%
X146652380Y-114366666D02*
X146176190Y-114700000D01*
X146652380Y-114938095D02*
X145652380Y-114938095D01*
X145652380Y-114557142D01*
X145700000Y-114461904D01*
X145747619Y-114414285D01*
X145842857Y-114366666D01*
X145985714Y-114366666D01*
X146080952Y-114414285D01*
X146128571Y-114461904D01*
X146176190Y-114557142D01*
X146176190Y-114938095D01*
X145652380Y-113461904D02*
X145652380Y-113938095D01*
X146128571Y-113985714D01*
X146080952Y-113938095D01*
X146033333Y-113842857D01*
X146033333Y-113604761D01*
X146080952Y-113509523D01*
X146128571Y-113461904D01*
X146223809Y-113414285D01*
X146461904Y-113414285D01*
X146557142Y-113461904D01*
X146604761Y-113509523D01*
X146652380Y-113604761D01*
X146652380Y-113842857D01*
X146604761Y-113938095D01*
X146557142Y-113985714D01*
%TO.C,Y2*%
D11*
X158376148Y-105277034D02*
X158853182Y-105277034D01*
X157851410Y-105610958D02*
X158376148Y-105277034D01*
X157851410Y-104943110D01*
X157946817Y-104656889D02*
X157899114Y-104609186D01*
X157851410Y-104513779D01*
X157851410Y-104275262D01*
X157899114Y-104179855D01*
X157946817Y-104132152D01*
X158042224Y-104084448D01*
X158137631Y-104084448D01*
X158280741Y-104132152D01*
X158853182Y-104704593D01*
X158853182Y-104084448D01*
%TO.C,Y1*%
X162123771Y-79176188D02*
X162123771Y-79652416D01*
X161790412Y-78652337D02*
X162123771Y-79176188D01*
X162457131Y-78652337D01*
X163314342Y-79652416D02*
X162742868Y-79652416D01*
X163028605Y-79652416D02*
X163028605Y-78652337D01*
X162933359Y-78795206D01*
X162838114Y-78890451D01*
X162742868Y-78938074D01*
%TO.C,U3*%
D10*
X142038095Y-98652380D02*
X142038095Y-99461904D01*
X142085714Y-99557142D01*
X142133333Y-99604761D01*
X142228571Y-99652380D01*
X142419047Y-99652380D01*
X142514285Y-99604761D01*
X142561904Y-99557142D01*
X142609523Y-99461904D01*
X142609523Y-98652380D01*
X142990476Y-98652380D02*
X143609523Y-98652380D01*
X143276190Y-99033333D01*
X143419047Y-99033333D01*
X143514285Y-99080952D01*
X143561904Y-99128571D01*
X143609523Y-99223809D01*
X143609523Y-99461904D01*
X143561904Y-99557142D01*
X143514285Y-99604761D01*
X143419047Y-99652380D01*
X143133333Y-99652380D01*
X143038095Y-99604761D01*
X142990476Y-99557142D01*
%TO.C,U2*%
D11*
X173652380Y-77161904D02*
X174461904Y-77161904D01*
X174557142Y-77114285D01*
X174604761Y-77066666D01*
X174652380Y-76971428D01*
X174652380Y-76780952D01*
X174604761Y-76685714D01*
X174557142Y-76638095D01*
X174461904Y-76590476D01*
X173652380Y-76590476D01*
X173747619Y-76161904D02*
X173700000Y-76114285D01*
X173652380Y-76019047D01*
X173652380Y-75780952D01*
X173700000Y-75685714D01*
X173747619Y-75638095D01*
X173842857Y-75590476D01*
X173938095Y-75590476D01*
X174080952Y-75638095D01*
X174652380Y-76209523D01*
X174652380Y-75590476D01*
%TO.C,U1*%
D10*
X141838095Y-101052380D02*
X141838095Y-101861904D01*
X141885714Y-101957142D01*
X141933333Y-102004761D01*
X142028571Y-102052380D01*
X142219047Y-102052380D01*
X142314285Y-102004761D01*
X142361904Y-101957142D01*
X142409523Y-101861904D01*
X142409523Y-101052380D01*
X143409523Y-102052380D02*
X142838095Y-102052380D01*
X143123809Y-102052380D02*
X143123809Y-101052380D01*
X143028571Y-101195238D01*
X142933333Y-101290476D01*
X142838095Y-101338095D01*
%TO.C,SW1*%
X170066666Y-106004761D02*
X170209523Y-106052380D01*
X170447619Y-106052380D01*
X170542857Y-106004761D01*
X170590476Y-105957142D01*
X170638095Y-105861904D01*
X170638095Y-105766666D01*
X170590476Y-105671428D01*
X170542857Y-105623809D01*
X170447619Y-105576190D01*
X170257142Y-105528571D01*
X170161904Y-105480952D01*
X170114285Y-105433333D01*
X170066666Y-105338095D01*
X170066666Y-105242857D01*
X170114285Y-105147619D01*
X170161904Y-105100000D01*
X170257142Y-105052380D01*
X170495238Y-105052380D01*
X170638095Y-105100000D01*
X170971428Y-105052380D02*
X171209523Y-106052380D01*
X171400000Y-105338095D01*
X171590476Y-106052380D01*
X171828571Y-105052380D01*
X172733333Y-106052380D02*
X172161904Y-106052380D01*
X172447619Y-106052380D02*
X172447619Y-105052380D01*
X172352380Y-105195238D01*
X172257142Y-105290476D01*
X172161904Y-105338095D01*
%TO.C,R16*%
X172107142Y-83252380D02*
X171773809Y-82776190D01*
X171535714Y-83252380D02*
X171535714Y-82252380D01*
X171916666Y-82252380D01*
X172011904Y-82300000D01*
X172059523Y-82347619D01*
X172107142Y-82442857D01*
X172107142Y-82585714D01*
X172059523Y-82680952D01*
X172011904Y-82728571D01*
X171916666Y-82776190D01*
X171535714Y-82776190D01*
X173059523Y-83252380D02*
X172488095Y-83252380D01*
X172773809Y-83252380D02*
X172773809Y-82252380D01*
X172678571Y-82395238D01*
X172583333Y-82490476D01*
X172488095Y-82538095D01*
X173916666Y-82252380D02*
X173726190Y-82252380D01*
X173630952Y-82300000D01*
X173583333Y-82347619D01*
X173488095Y-82490476D01*
X173440476Y-82680952D01*
X173440476Y-83061904D01*
X173488095Y-83157142D01*
X173535714Y-83204761D01*
X173630952Y-83252380D01*
X173821428Y-83252380D01*
X173916666Y-83204761D01*
X173964285Y-83157142D01*
X174011904Y-83061904D01*
X174011904Y-82823809D01*
X173964285Y-82728571D01*
X173916666Y-82680952D01*
X173821428Y-82633333D01*
X173630952Y-82633333D01*
X173535714Y-82680952D01*
X173488095Y-82728571D01*
X173440476Y-82823809D01*
%TO.C,R15*%
X169252380Y-62842857D02*
X168776190Y-63176190D01*
X169252380Y-63414285D02*
X168252380Y-63414285D01*
X168252380Y-63033333D01*
X168300000Y-62938095D01*
X168347619Y-62890476D01*
X168442857Y-62842857D01*
X168585714Y-62842857D01*
X168680952Y-62890476D01*
X168728571Y-62938095D01*
X168776190Y-63033333D01*
X168776190Y-63414285D01*
X169252380Y-61890476D02*
X169252380Y-62461904D01*
X169252380Y-62176190D02*
X168252380Y-62176190D01*
X168395238Y-62271428D01*
X168490476Y-62366666D01*
X168538095Y-62461904D01*
X168252380Y-60985714D02*
X168252380Y-61461904D01*
X168728571Y-61509523D01*
X168680952Y-61461904D01*
X168633333Y-61366666D01*
X168633333Y-61128571D01*
X168680952Y-61033333D01*
X168728571Y-60985714D01*
X168823809Y-60938095D01*
X169061904Y-60938095D01*
X169157142Y-60985714D01*
X169204761Y-61033333D01*
X169252380Y-61128571D01*
X169252380Y-61366666D01*
X169204761Y-61461904D01*
X169157142Y-61509523D01*
%TO.C,R14*%
X157652380Y-125342857D02*
X157176190Y-125676190D01*
X157652380Y-125914285D02*
X156652380Y-125914285D01*
X156652380Y-125533333D01*
X156700000Y-125438095D01*
X156747619Y-125390476D01*
X156842857Y-125342857D01*
X156985714Y-125342857D01*
X157080952Y-125390476D01*
X157128571Y-125438095D01*
X157176190Y-125533333D01*
X157176190Y-125914285D01*
X157652380Y-124390476D02*
X157652380Y-124961904D01*
X157652380Y-124676190D02*
X156652380Y-124676190D01*
X156795238Y-124771428D01*
X156890476Y-124866666D01*
X156938095Y-124961904D01*
X156985714Y-123533333D02*
X157652380Y-123533333D01*
X156604761Y-123771428D02*
X157319047Y-124009523D01*
X157319047Y-123390476D01*
%TO.C,R13*%
X125357142Y-91252380D02*
X125023809Y-90776190D01*
X124785714Y-91252380D02*
X124785714Y-90252380D01*
X125166666Y-90252380D01*
X125261904Y-90300000D01*
X125309523Y-90347619D01*
X125357142Y-90442857D01*
X125357142Y-90585714D01*
X125309523Y-90680952D01*
X125261904Y-90728571D01*
X125166666Y-90776190D01*
X124785714Y-90776190D01*
X126309523Y-91252380D02*
X125738095Y-91252380D01*
X126023809Y-91252380D02*
X126023809Y-90252380D01*
X125928571Y-90395238D01*
X125833333Y-90490476D01*
X125738095Y-90538095D01*
X126642857Y-90252380D02*
X127261904Y-90252380D01*
X126928571Y-90633333D01*
X127071428Y-90633333D01*
X127166666Y-90680952D01*
X127214285Y-90728571D01*
X127261904Y-90823809D01*
X127261904Y-91061904D01*
X127214285Y-91157142D01*
X127166666Y-91204761D01*
X127071428Y-91252380D01*
X126785714Y-91252380D01*
X126690476Y-91204761D01*
X126642857Y-91157142D01*
%TO.C,R12*%
X191157142Y-103652380D02*
X190823809Y-103176190D01*
X190585714Y-103652380D02*
X190585714Y-102652380D01*
X190966666Y-102652380D01*
X191061904Y-102700000D01*
X191109523Y-102747619D01*
X191157142Y-102842857D01*
X191157142Y-102985714D01*
X191109523Y-103080952D01*
X191061904Y-103128571D01*
X190966666Y-103176190D01*
X190585714Y-103176190D01*
X192109523Y-103652380D02*
X191538095Y-103652380D01*
X191823809Y-103652380D02*
X191823809Y-102652380D01*
X191728571Y-102795238D01*
X191633333Y-102890476D01*
X191538095Y-102938095D01*
X192490476Y-102747619D02*
X192538095Y-102700000D01*
X192633333Y-102652380D01*
X192871428Y-102652380D01*
X192966666Y-102700000D01*
X193014285Y-102747619D01*
X193061904Y-102842857D01*
X193061904Y-102938095D01*
X193014285Y-103080952D01*
X192442857Y-103652380D01*
X193061904Y-103652380D01*
%TO.C,R11*%
X161652380Y-125442857D02*
X161176190Y-125776190D01*
X161652380Y-126014285D02*
X160652380Y-126014285D01*
X160652380Y-125633333D01*
X160700000Y-125538095D01*
X160747619Y-125490476D01*
X160842857Y-125442857D01*
X160985714Y-125442857D01*
X161080952Y-125490476D01*
X161128571Y-125538095D01*
X161176190Y-125633333D01*
X161176190Y-126014285D01*
X161652380Y-124490476D02*
X161652380Y-125061904D01*
X161652380Y-124776190D02*
X160652380Y-124776190D01*
X160795238Y-124871428D01*
X160890476Y-124966666D01*
X160938095Y-125061904D01*
X161652380Y-123538095D02*
X161652380Y-124109523D01*
X161652380Y-123823809D02*
X160652380Y-123823809D01*
X160795238Y-123919047D01*
X160890476Y-124014285D01*
X160938095Y-124109523D01*
%TO.C,R10*%
X147157142Y-81852380D02*
X146823809Y-81376190D01*
X146585714Y-81852380D02*
X146585714Y-80852380D01*
X146966666Y-80852380D01*
X147061904Y-80900000D01*
X147109523Y-80947619D01*
X147157142Y-81042857D01*
X147157142Y-81185714D01*
X147109523Y-81280952D01*
X147061904Y-81328571D01*
X146966666Y-81376190D01*
X146585714Y-81376190D01*
X148109523Y-81852380D02*
X147538095Y-81852380D01*
X147823809Y-81852380D02*
X147823809Y-80852380D01*
X147728571Y-80995238D01*
X147633333Y-81090476D01*
X147538095Y-81138095D01*
X148728571Y-80852380D02*
X148823809Y-80852380D01*
X148919047Y-80900000D01*
X148966666Y-80947619D01*
X149014285Y-81042857D01*
X149061904Y-81233333D01*
X149061904Y-81471428D01*
X149014285Y-81661904D01*
X148966666Y-81757142D01*
X148919047Y-81804761D01*
X148823809Y-81852380D01*
X148728571Y-81852380D01*
X148633333Y-81804761D01*
X148585714Y-81757142D01*
X148538095Y-81661904D01*
X148490476Y-81471428D01*
X148490476Y-81233333D01*
X148538095Y-81042857D01*
X148585714Y-80947619D01*
X148633333Y-80900000D01*
X148728571Y-80852380D01*
%TO.C,R9*%
X148833333Y-101852380D02*
X148500000Y-101376190D01*
X148261904Y-101852380D02*
X148261904Y-100852380D01*
X148642857Y-100852380D01*
X148738095Y-100900000D01*
X148785714Y-100947619D01*
X148833333Y-101042857D01*
X148833333Y-101185714D01*
X148785714Y-101280952D01*
X148738095Y-101328571D01*
X148642857Y-101376190D01*
X148261904Y-101376190D01*
X149309523Y-101852380D02*
X149500000Y-101852380D01*
X149595238Y-101804761D01*
X149642857Y-101757142D01*
X149738095Y-101614285D01*
X149785714Y-101423809D01*
X149785714Y-101042857D01*
X149738095Y-100947619D01*
X149690476Y-100900000D01*
X149595238Y-100852380D01*
X149404761Y-100852380D01*
X149309523Y-100900000D01*
X149261904Y-100947619D01*
X149214285Y-101042857D01*
X149214285Y-101280952D01*
X149261904Y-101376190D01*
X149309523Y-101423809D01*
X149404761Y-101471428D01*
X149595238Y-101471428D01*
X149690476Y-101423809D01*
X149738095Y-101376190D01*
X149785714Y-101280952D01*
%TO.C,R8*%
X169052380Y-87766666D02*
X168576190Y-88100000D01*
X169052380Y-88338095D02*
X168052380Y-88338095D01*
X168052380Y-87957142D01*
X168100000Y-87861904D01*
X168147619Y-87814285D01*
X168242857Y-87766666D01*
X168385714Y-87766666D01*
X168480952Y-87814285D01*
X168528571Y-87861904D01*
X168576190Y-87957142D01*
X168576190Y-88338095D01*
X168480952Y-87195238D02*
X168433333Y-87290476D01*
X168385714Y-87338095D01*
X168290476Y-87385714D01*
X168242857Y-87385714D01*
X168147619Y-87338095D01*
X168100000Y-87290476D01*
X168052380Y-87195238D01*
X168052380Y-87004761D01*
X168100000Y-86909523D01*
X168147619Y-86861904D01*
X168242857Y-86814285D01*
X168290476Y-86814285D01*
X168385714Y-86861904D01*
X168433333Y-86909523D01*
X168480952Y-87004761D01*
X168480952Y-87195238D01*
X168528571Y-87290476D01*
X168576190Y-87338095D01*
X168671428Y-87385714D01*
X168861904Y-87385714D01*
X168957142Y-87338095D01*
X169004761Y-87290476D01*
X169052380Y-87195238D01*
X169052380Y-87004761D01*
X169004761Y-86909523D01*
X168957142Y-86861904D01*
X168861904Y-86814285D01*
X168671428Y-86814285D01*
X168576190Y-86861904D01*
X168528571Y-86909523D01*
X168480952Y-87004761D01*
%TO.C,R7*%
X181502380Y-106079166D02*
X181026190Y-106412500D01*
X181502380Y-106650595D02*
X180502380Y-106650595D01*
X180502380Y-106269642D01*
X180550000Y-106174404D01*
X180597619Y-106126785D01*
X180692857Y-106079166D01*
X180835714Y-106079166D01*
X180930952Y-106126785D01*
X180978571Y-106174404D01*
X181026190Y-106269642D01*
X181026190Y-106650595D01*
X180502380Y-105745833D02*
X180502380Y-105079166D01*
X181502380Y-105507738D01*
%TO.C,R6*%
X140452380Y-111566666D02*
X139976190Y-111900000D01*
X140452380Y-112138095D02*
X139452380Y-112138095D01*
X139452380Y-111757142D01*
X139500000Y-111661904D01*
X139547619Y-111614285D01*
X139642857Y-111566666D01*
X139785714Y-111566666D01*
X139880952Y-111614285D01*
X139928571Y-111661904D01*
X139976190Y-111757142D01*
X139976190Y-112138095D01*
X139452380Y-110709523D02*
X139452380Y-110900000D01*
X139500000Y-110995238D01*
X139547619Y-111042857D01*
X139690476Y-111138095D01*
X139880952Y-111185714D01*
X140261904Y-111185714D01*
X140357142Y-111138095D01*
X140404761Y-111090476D01*
X140452380Y-110995238D01*
X140452380Y-110804761D01*
X140404761Y-110709523D01*
X140357142Y-110661904D01*
X140261904Y-110614285D01*
X140023809Y-110614285D01*
X139928571Y-110661904D01*
X139880952Y-110709523D01*
X139833333Y-110804761D01*
X139833333Y-110995238D01*
X139880952Y-111090476D01*
X139928571Y-111138095D01*
X140023809Y-111185714D01*
%TO.C,R4*%
X154233333Y-112652380D02*
X153900000Y-112176190D01*
X153661904Y-112652380D02*
X153661904Y-111652380D01*
X154042857Y-111652380D01*
X154138095Y-111700000D01*
X154185714Y-111747619D01*
X154233333Y-111842857D01*
X154233333Y-111985714D01*
X154185714Y-112080952D01*
X154138095Y-112128571D01*
X154042857Y-112176190D01*
X153661904Y-112176190D01*
X155090476Y-111985714D02*
X155090476Y-112652380D01*
X154852380Y-111604761D02*
X154614285Y-112319047D01*
X155233333Y-112319047D01*
%TO.C,R3*%
X139433333Y-104252380D02*
X139100000Y-103776190D01*
X138861904Y-104252380D02*
X138861904Y-103252380D01*
X139242857Y-103252380D01*
X139338095Y-103300000D01*
X139385714Y-103347619D01*
X139433333Y-103442857D01*
X139433333Y-103585714D01*
X139385714Y-103680952D01*
X139338095Y-103728571D01*
X139242857Y-103776190D01*
X138861904Y-103776190D01*
X139766666Y-103252380D02*
X140385714Y-103252380D01*
X140052380Y-103633333D01*
X140195238Y-103633333D01*
X140290476Y-103680952D01*
X140338095Y-103728571D01*
X140385714Y-103823809D01*
X140385714Y-104061904D01*
X140338095Y-104157142D01*
X140290476Y-104204761D01*
X140195238Y-104252380D01*
X139909523Y-104252380D01*
X139814285Y-104204761D01*
X139766666Y-104157142D01*
%TO.C,R2*%
X137852380Y-111566666D02*
X137376190Y-111900000D01*
X137852380Y-112138095D02*
X136852380Y-112138095D01*
X136852380Y-111757142D01*
X136900000Y-111661904D01*
X136947619Y-111614285D01*
X137042857Y-111566666D01*
X137185714Y-111566666D01*
X137280952Y-111614285D01*
X137328571Y-111661904D01*
X137376190Y-111757142D01*
X137376190Y-112138095D01*
X136947619Y-111185714D02*
X136900000Y-111138095D01*
X136852380Y-111042857D01*
X136852380Y-110804761D01*
X136900000Y-110709523D01*
X136947619Y-110661904D01*
X137042857Y-110614285D01*
X137138095Y-110614285D01*
X137280952Y-110661904D01*
X137852380Y-111233333D01*
X137852380Y-110614285D01*
%TO.C,R1*%
X154433333Y-110252380D02*
X154100000Y-109776190D01*
X153861904Y-110252380D02*
X153861904Y-109252380D01*
X154242857Y-109252380D01*
X154338095Y-109300000D01*
X154385714Y-109347619D01*
X154433333Y-109442857D01*
X154433333Y-109585714D01*
X154385714Y-109680952D01*
X154338095Y-109728571D01*
X154242857Y-109776190D01*
X153861904Y-109776190D01*
X155385714Y-110252380D02*
X154814285Y-110252380D01*
X155100000Y-110252380D02*
X155100000Y-109252380D01*
X155004761Y-109395238D01*
X154909523Y-109490476D01*
X154814285Y-109538095D01*
%TO.C,J8*%
X130702380Y-79558333D02*
X131416666Y-79558333D01*
X131559523Y-79605952D01*
X131654761Y-79701190D01*
X131702380Y-79844047D01*
X131702380Y-79939285D01*
X131130952Y-78939285D02*
X131083333Y-79034523D01*
X131035714Y-79082142D01*
X130940476Y-79129761D01*
X130892857Y-79129761D01*
X130797619Y-79082142D01*
X130750000Y-79034523D01*
X130702380Y-78939285D01*
X130702380Y-78748809D01*
X130750000Y-78653571D01*
X130797619Y-78605952D01*
X130892857Y-78558333D01*
X130940476Y-78558333D01*
X131035714Y-78605952D01*
X131083333Y-78653571D01*
X131130952Y-78748809D01*
X131130952Y-78939285D01*
X131178571Y-79034523D01*
X131226190Y-79082142D01*
X131321428Y-79129761D01*
X131511904Y-79129761D01*
X131607142Y-79082142D01*
X131654761Y-79034523D01*
X131702380Y-78939285D01*
X131702380Y-78748809D01*
X131654761Y-78653571D01*
X131607142Y-78605952D01*
X131511904Y-78558333D01*
X131321428Y-78558333D01*
X131226190Y-78605952D01*
X131178571Y-78653571D01*
X131130952Y-78748809D01*
%TO.C,J7*%
X184292380Y-76383333D02*
X185006666Y-76383333D01*
X185149523Y-76430952D01*
X185244761Y-76526190D01*
X185292380Y-76669047D01*
X185292380Y-76764285D01*
X184292380Y-76002380D02*
X184292380Y-75335714D01*
X185292380Y-75764285D01*
%TO.C,J6*%
X146266666Y-76252380D02*
X146266666Y-76966666D01*
X146219047Y-77109523D01*
X146123809Y-77204761D01*
X145980952Y-77252380D01*
X145885714Y-77252380D01*
X147171428Y-76252380D02*
X146980952Y-76252380D01*
X146885714Y-76300000D01*
X146838095Y-76347619D01*
X146742857Y-76490476D01*
X146695238Y-76680952D01*
X146695238Y-77061904D01*
X146742857Y-77157142D01*
X146790476Y-77204761D01*
X146885714Y-77252380D01*
X147076190Y-77252380D01*
X147171428Y-77204761D01*
X147219047Y-77157142D01*
X147266666Y-77061904D01*
X147266666Y-76823809D01*
X147219047Y-76728571D01*
X147171428Y-76680952D01*
X147076190Y-76633333D01*
X146885714Y-76633333D01*
X146790476Y-76680952D01*
X146742857Y-76728571D01*
X146695238Y-76823809D01*
%TO.C,J5*%
X147866666Y-118652380D02*
X147866666Y-119366666D01*
X147819047Y-119509523D01*
X147723809Y-119604761D01*
X147580952Y-119652380D01*
X147485714Y-119652380D01*
X148819047Y-118652380D02*
X148342857Y-118652380D01*
X148295238Y-119128571D01*
X148342857Y-119080952D01*
X148438095Y-119033333D01*
X148676190Y-119033333D01*
X148771428Y-119080952D01*
X148819047Y-119128571D01*
X148866666Y-119223809D01*
X148866666Y-119461904D01*
X148819047Y-119557142D01*
X148771428Y-119604761D01*
X148676190Y-119652380D01*
X148438095Y-119652380D01*
X148342857Y-119604761D01*
X148295238Y-119557142D01*
%TO.C,J4*%
X185952380Y-93933333D02*
X186666666Y-93933333D01*
X186809523Y-93980952D01*
X186904761Y-94076190D01*
X186952380Y-94219047D01*
X186952380Y-94314285D01*
X186285714Y-93028571D02*
X186952380Y-93028571D01*
X185904761Y-93266666D02*
X186619047Y-93504761D01*
X186619047Y-92885714D01*
%TO.C,J3*%
X157466666Y-67052380D02*
X157466666Y-67766666D01*
X157419047Y-67909523D01*
X157323809Y-68004761D01*
X157180952Y-68052380D01*
X157085714Y-68052380D01*
X157847619Y-67052380D02*
X158466666Y-67052380D01*
X158133333Y-67433333D01*
X158276190Y-67433333D01*
X158371428Y-67480952D01*
X158419047Y-67528571D01*
X158466666Y-67623809D01*
X158466666Y-67861904D01*
X158419047Y-67957142D01*
X158371428Y-68004761D01*
X158276190Y-68052380D01*
X157990476Y-68052380D01*
X157895238Y-68004761D01*
X157847619Y-67957142D01*
%TO.C,J2*%
X130702380Y-99858333D02*
X131416666Y-99858333D01*
X131559523Y-99905952D01*
X131654761Y-100001190D01*
X131702380Y-100144047D01*
X131702380Y-100239285D01*
X130797619Y-99429761D02*
X130750000Y-99382142D01*
X130702380Y-99286904D01*
X130702380Y-99048809D01*
X130750000Y-98953571D01*
X130797619Y-98905952D01*
X130892857Y-98858333D01*
X130988095Y-98858333D01*
X131130952Y-98905952D01*
X131702380Y-99477380D01*
X131702380Y-98858333D01*
%TO.C,J1*%
X170191666Y-118852380D02*
X170191666Y-119566666D01*
X170144047Y-119709523D01*
X170048809Y-119804761D01*
X169905952Y-119852380D01*
X169810714Y-119852380D01*
X171191666Y-119852380D02*
X170620238Y-119852380D01*
X170905952Y-119852380D02*
X170905952Y-118852380D01*
X170810714Y-118995238D01*
X170715476Y-119090476D01*
X170620238Y-119138095D01*
%TO.C,D6*%
X176061904Y-83252380D02*
X176061904Y-82252380D01*
X176300000Y-82252380D01*
X176442857Y-82300000D01*
X176538095Y-82395238D01*
X176585714Y-82490476D01*
X176633333Y-82680952D01*
X176633333Y-82823809D01*
X176585714Y-83014285D01*
X176538095Y-83109523D01*
X176442857Y-83204761D01*
X176300000Y-83252380D01*
X176061904Y-83252380D01*
X177490476Y-82252380D02*
X177300000Y-82252380D01*
X177204761Y-82300000D01*
X177157142Y-82347619D01*
X177061904Y-82490476D01*
X177014285Y-82680952D01*
X177014285Y-83061904D01*
X177061904Y-83157142D01*
X177109523Y-83204761D01*
X177204761Y-83252380D01*
X177395238Y-83252380D01*
X177490476Y-83204761D01*
X177538095Y-83157142D01*
X177585714Y-83061904D01*
X177585714Y-82823809D01*
X177538095Y-82728571D01*
X177490476Y-82680952D01*
X177395238Y-82633333D01*
X177204761Y-82633333D01*
X177109523Y-82680952D01*
X177061904Y-82728571D01*
X177014285Y-82823809D01*
%TO.C,D5*%
X169252380Y-66638095D02*
X168252380Y-66638095D01*
X168252380Y-66400000D01*
X168300000Y-66257142D01*
X168395238Y-66161904D01*
X168490476Y-66114285D01*
X168680952Y-66066666D01*
X168823809Y-66066666D01*
X169014285Y-66114285D01*
X169109523Y-66161904D01*
X169204761Y-66257142D01*
X169252380Y-66400000D01*
X169252380Y-66638095D01*
X168252380Y-65161904D02*
X168252380Y-65638095D01*
X168728571Y-65685714D01*
X168680952Y-65638095D01*
X168633333Y-65542857D01*
X168633333Y-65304761D01*
X168680952Y-65209523D01*
X168728571Y-65161904D01*
X168823809Y-65114285D01*
X169061904Y-65114285D01*
X169157142Y-65161904D01*
X169204761Y-65209523D01*
X169252380Y-65304761D01*
X169252380Y-65542857D01*
X169204761Y-65638095D01*
X169157142Y-65685714D01*
%TO.C,D4*%
X157652380Y-121538095D02*
X156652380Y-121538095D01*
X156652380Y-121300000D01*
X156700000Y-121157142D01*
X156795238Y-121061904D01*
X156890476Y-121014285D01*
X157080952Y-120966666D01*
X157223809Y-120966666D01*
X157414285Y-121014285D01*
X157509523Y-121061904D01*
X157604761Y-121157142D01*
X157652380Y-121300000D01*
X157652380Y-121538095D01*
X156985714Y-120109523D02*
X157652380Y-120109523D01*
X156604761Y-120347619D02*
X157319047Y-120585714D01*
X157319047Y-119966666D01*
%TO.C,D3*%
X128861904Y-91252380D02*
X128861904Y-90252380D01*
X129100000Y-90252380D01*
X129242857Y-90300000D01*
X129338095Y-90395238D01*
X129385714Y-90490476D01*
X129433333Y-90680952D01*
X129433333Y-90823809D01*
X129385714Y-91014285D01*
X129338095Y-91109523D01*
X129242857Y-91204761D01*
X129100000Y-91252380D01*
X128861904Y-91252380D01*
X129766666Y-90252380D02*
X130385714Y-90252380D01*
X130052380Y-90633333D01*
X130195238Y-90633333D01*
X130290476Y-90680952D01*
X130338095Y-90728571D01*
X130385714Y-90823809D01*
X130385714Y-91061904D01*
X130338095Y-91157142D01*
X130290476Y-91204761D01*
X130195238Y-91252380D01*
X129909523Y-91252380D01*
X129814285Y-91204761D01*
X129766666Y-91157142D01*
%TO.C,D2*%
X187061904Y-103652380D02*
X187061904Y-102652380D01*
X187300000Y-102652380D01*
X187442857Y-102700000D01*
X187538095Y-102795238D01*
X187585714Y-102890476D01*
X187633333Y-103080952D01*
X187633333Y-103223809D01*
X187585714Y-103414285D01*
X187538095Y-103509523D01*
X187442857Y-103604761D01*
X187300000Y-103652380D01*
X187061904Y-103652380D01*
X188014285Y-102747619D02*
X188061904Y-102700000D01*
X188157142Y-102652380D01*
X188395238Y-102652380D01*
X188490476Y-102700000D01*
X188538095Y-102747619D01*
X188585714Y-102842857D01*
X188585714Y-102938095D01*
X188538095Y-103080952D01*
X187966666Y-103652380D01*
X188585714Y-103652380D01*
%TO.C,D1*%
X161602380Y-121575595D02*
X160602380Y-121575595D01*
X160602380Y-121337500D01*
X160650000Y-121194642D01*
X160745238Y-121099404D01*
X160840476Y-121051785D01*
X161030952Y-121004166D01*
X161173809Y-121004166D01*
X161364285Y-121051785D01*
X161459523Y-121099404D01*
X161554761Y-121194642D01*
X161602380Y-121337500D01*
X161602380Y-121575595D01*
X161602380Y-120051785D02*
X161602380Y-120623214D01*
X161602380Y-120337500D02*
X160602380Y-120337500D01*
X160745238Y-120432738D01*
X160840476Y-120527976D01*
X160888095Y-120623214D01*
%TO.C,C14*%
X155157142Y-102842857D02*
X155204761Y-102890476D01*
X155252380Y-103033333D01*
X155252380Y-103128571D01*
X155204761Y-103271428D01*
X155109523Y-103366666D01*
X155014285Y-103414285D01*
X154823809Y-103461904D01*
X154680952Y-103461904D01*
X154490476Y-103414285D01*
X154395238Y-103366666D01*
X154300000Y-103271428D01*
X154252380Y-103128571D01*
X154252380Y-103033333D01*
X154300000Y-102890476D01*
X154347619Y-102842857D01*
X155252380Y-101890476D02*
X155252380Y-102461904D01*
X155252380Y-102176190D02*
X154252380Y-102176190D01*
X154395238Y-102271428D01*
X154490476Y-102366666D01*
X154538095Y-102461904D01*
X154585714Y-101033333D02*
X155252380Y-101033333D01*
X154204761Y-101271428D02*
X154919047Y-101509523D01*
X154919047Y-100890476D01*
%TO.C,C13*%
X151357142Y-105957142D02*
X151309523Y-106004761D01*
X151166666Y-106052380D01*
X151071428Y-106052380D01*
X150928571Y-106004761D01*
X150833333Y-105909523D01*
X150785714Y-105814285D01*
X150738095Y-105623809D01*
X150738095Y-105480952D01*
X150785714Y-105290476D01*
X150833333Y-105195238D01*
X150928571Y-105100000D01*
X151071428Y-105052380D01*
X151166666Y-105052380D01*
X151309523Y-105100000D01*
X151357142Y-105147619D01*
X152309523Y-106052380D02*
X151738095Y-106052380D01*
X152023809Y-106052380D02*
X152023809Y-105052380D01*
X151928571Y-105195238D01*
X151833333Y-105290476D01*
X151738095Y-105338095D01*
X152642857Y-105052380D02*
X153261904Y-105052380D01*
X152928571Y-105433333D01*
X153071428Y-105433333D01*
X153166666Y-105480952D01*
X153214285Y-105528571D01*
X153261904Y-105623809D01*
X153261904Y-105861904D01*
X153214285Y-105957142D01*
X153166666Y-106004761D01*
X153071428Y-106052380D01*
X152785714Y-106052380D01*
X152690476Y-106004761D01*
X152642857Y-105957142D01*
%TO.C,C12*%
X143457142Y-83877142D02*
X143409523Y-83924761D01*
X143266666Y-83972380D01*
X143171428Y-83972380D01*
X143028571Y-83924761D01*
X142933333Y-83829523D01*
X142885714Y-83734285D01*
X142838095Y-83543809D01*
X142838095Y-83400952D01*
X142885714Y-83210476D01*
X142933333Y-83115238D01*
X143028571Y-83020000D01*
X143171428Y-82972380D01*
X143266666Y-82972380D01*
X143409523Y-83020000D01*
X143457142Y-83067619D01*
X144409523Y-83972380D02*
X143838095Y-83972380D01*
X144123809Y-83972380D02*
X144123809Y-82972380D01*
X144028571Y-83115238D01*
X143933333Y-83210476D01*
X143838095Y-83258095D01*
X144790476Y-83067619D02*
X144838095Y-83020000D01*
X144933333Y-82972380D01*
X145171428Y-82972380D01*
X145266666Y-83020000D01*
X145314285Y-83067619D01*
X145361904Y-83162857D01*
X145361904Y-83258095D01*
X145314285Y-83400952D01*
X144742857Y-83972380D01*
X145361904Y-83972380D01*
%TO.C,C10*%
X155357142Y-87757142D02*
X155309523Y-87804761D01*
X155166666Y-87852380D01*
X155071428Y-87852380D01*
X154928571Y-87804761D01*
X154833333Y-87709523D01*
X154785714Y-87614285D01*
X154738095Y-87423809D01*
X154738095Y-87280952D01*
X154785714Y-87090476D01*
X154833333Y-86995238D01*
X154928571Y-86900000D01*
X155071428Y-86852380D01*
X155166666Y-86852380D01*
X155309523Y-86900000D01*
X155357142Y-86947619D01*
X156309523Y-87852380D02*
X155738095Y-87852380D01*
X156023809Y-87852380D02*
X156023809Y-86852380D01*
X155928571Y-86995238D01*
X155833333Y-87090476D01*
X155738095Y-87138095D01*
X156928571Y-86852380D02*
X157023809Y-86852380D01*
X157119047Y-86900000D01*
X157166666Y-86947619D01*
X157214285Y-87042857D01*
X157261904Y-87233333D01*
X157261904Y-87471428D01*
X157214285Y-87661904D01*
X157166666Y-87757142D01*
X157119047Y-87804761D01*
X157023809Y-87852380D01*
X156928571Y-87852380D01*
X156833333Y-87804761D01*
X156785714Y-87757142D01*
X156738095Y-87661904D01*
X156690476Y-87471428D01*
X156690476Y-87233333D01*
X156738095Y-87042857D01*
X156785714Y-86947619D01*
X156833333Y-86900000D01*
X156928571Y-86852380D01*
%TO.C,C9*%
X152183333Y-83477142D02*
X152135714Y-83524761D01*
X151992857Y-83572380D01*
X151897619Y-83572380D01*
X151754761Y-83524761D01*
X151659523Y-83429523D01*
X151611904Y-83334285D01*
X151564285Y-83143809D01*
X151564285Y-83000952D01*
X151611904Y-82810476D01*
X151659523Y-82715238D01*
X151754761Y-82620000D01*
X151897619Y-82572380D01*
X151992857Y-82572380D01*
X152135714Y-82620000D01*
X152183333Y-82667619D01*
X152659523Y-83572380D02*
X152850000Y-83572380D01*
X152945238Y-83524761D01*
X152992857Y-83477142D01*
X153088095Y-83334285D01*
X153135714Y-83143809D01*
X153135714Y-82762857D01*
X153088095Y-82667619D01*
X153040476Y-82620000D01*
X152945238Y-82572380D01*
X152754761Y-82572380D01*
X152659523Y-82620000D01*
X152611904Y-82667619D01*
X152564285Y-82762857D01*
X152564285Y-83000952D01*
X152611904Y-83096190D01*
X152659523Y-83143809D01*
X152754761Y-83191428D01*
X152945238Y-83191428D01*
X153040476Y-83143809D01*
X153088095Y-83096190D01*
X153135714Y-83000952D01*
%TO.C,C8*%
X181957142Y-78916666D02*
X182004761Y-78964285D01*
X182052380Y-79107142D01*
X182052380Y-79202380D01*
X182004761Y-79345238D01*
X181909523Y-79440476D01*
X181814285Y-79488095D01*
X181623809Y-79535714D01*
X181480952Y-79535714D01*
X181290476Y-79488095D01*
X181195238Y-79440476D01*
X181100000Y-79345238D01*
X181052380Y-79202380D01*
X181052380Y-79107142D01*
X181100000Y-78964285D01*
X181147619Y-78916666D01*
X181480952Y-78345238D02*
X181433333Y-78440476D01*
X181385714Y-78488095D01*
X181290476Y-78535714D01*
X181242857Y-78535714D01*
X181147619Y-78488095D01*
X181100000Y-78440476D01*
X181052380Y-78345238D01*
X181052380Y-78154761D01*
X181100000Y-78059523D01*
X181147619Y-78011904D01*
X181242857Y-77964285D01*
X181290476Y-77964285D01*
X181385714Y-78011904D01*
X181433333Y-78059523D01*
X181480952Y-78154761D01*
X181480952Y-78345238D01*
X181528571Y-78440476D01*
X181576190Y-78488095D01*
X181671428Y-78535714D01*
X181861904Y-78535714D01*
X181957142Y-78488095D01*
X182004761Y-78440476D01*
X182052380Y-78345238D01*
X182052380Y-78154761D01*
X182004761Y-78059523D01*
X181957142Y-78011904D01*
X181861904Y-77964285D01*
X181671428Y-77964285D01*
X181576190Y-78011904D01*
X181528571Y-78059523D01*
X181480952Y-78154761D01*
%TO.C,C7*%
X158233333Y-94357142D02*
X158185714Y-94404761D01*
X158042857Y-94452380D01*
X157947619Y-94452380D01*
X157804761Y-94404761D01*
X157709523Y-94309523D01*
X157661904Y-94214285D01*
X157614285Y-94023809D01*
X157614285Y-93880952D01*
X157661904Y-93690476D01*
X157709523Y-93595238D01*
X157804761Y-93500000D01*
X157947619Y-93452380D01*
X158042857Y-93452380D01*
X158185714Y-93500000D01*
X158233333Y-93547619D01*
X158566666Y-93452380D02*
X159233333Y-93452380D01*
X158804761Y-94452380D01*
%TO.C,C5*%
X166937142Y-99166666D02*
X166984761Y-99214285D01*
X167032380Y-99357142D01*
X167032380Y-99452380D01*
X166984761Y-99595238D01*
X166889523Y-99690476D01*
X166794285Y-99738095D01*
X166603809Y-99785714D01*
X166460952Y-99785714D01*
X166270476Y-99738095D01*
X166175238Y-99690476D01*
X166080000Y-99595238D01*
X166032380Y-99452380D01*
X166032380Y-99357142D01*
X166080000Y-99214285D01*
X166127619Y-99166666D01*
X166032380Y-98261904D02*
X166032380Y-98738095D01*
X166508571Y-98785714D01*
X166460952Y-98738095D01*
X166413333Y-98642857D01*
X166413333Y-98404761D01*
X166460952Y-98309523D01*
X166508571Y-98261904D01*
X166603809Y-98214285D01*
X166841904Y-98214285D01*
X166937142Y-98261904D01*
X166984761Y-98309523D01*
X167032380Y-98404761D01*
X167032380Y-98642857D01*
X166984761Y-98738095D01*
X166937142Y-98785714D01*
%TO.C,C4*%
X157757142Y-101966666D02*
X157804761Y-102014285D01*
X157852380Y-102157142D01*
X157852380Y-102252380D01*
X157804761Y-102395238D01*
X157709523Y-102490476D01*
X157614285Y-102538095D01*
X157423809Y-102585714D01*
X157280952Y-102585714D01*
X157090476Y-102538095D01*
X156995238Y-102490476D01*
X156900000Y-102395238D01*
X156852380Y-102252380D01*
X156852380Y-102157142D01*
X156900000Y-102014285D01*
X156947619Y-101966666D01*
X157185714Y-101109523D02*
X157852380Y-101109523D01*
X156804761Y-101347619D02*
X157519047Y-101585714D01*
X157519047Y-100966666D01*
%TO.C,C3*%
X167633333Y-81627142D02*
X167585714Y-81674761D01*
X167442857Y-81722380D01*
X167347619Y-81722380D01*
X167204761Y-81674761D01*
X167109523Y-81579523D01*
X167061904Y-81484285D01*
X167014285Y-81293809D01*
X167014285Y-81150952D01*
X167061904Y-80960476D01*
X167109523Y-80865238D01*
X167204761Y-80770000D01*
X167347619Y-80722380D01*
X167442857Y-80722380D01*
X167585714Y-80770000D01*
X167633333Y-80817619D01*
X167966666Y-80722380D02*
X168585714Y-80722380D01*
X168252380Y-81103333D01*
X168395238Y-81103333D01*
X168490476Y-81150952D01*
X168538095Y-81198571D01*
X168585714Y-81293809D01*
X168585714Y-81531904D01*
X168538095Y-81627142D01*
X168490476Y-81674761D01*
X168395238Y-81722380D01*
X168109523Y-81722380D01*
X168014285Y-81674761D01*
X167966666Y-81627142D01*
%TO.C,C2*%
X167583333Y-91127142D02*
X167535714Y-91174761D01*
X167392857Y-91222380D01*
X167297619Y-91222380D01*
X167154761Y-91174761D01*
X167059523Y-91079523D01*
X167011904Y-90984285D01*
X166964285Y-90793809D01*
X166964285Y-90650952D01*
X167011904Y-90460476D01*
X167059523Y-90365238D01*
X167154761Y-90270000D01*
X167297619Y-90222380D01*
X167392857Y-90222380D01*
X167535714Y-90270000D01*
X167583333Y-90317619D01*
X167964285Y-90317619D02*
X168011904Y-90270000D01*
X168107142Y-90222380D01*
X168345238Y-90222380D01*
X168440476Y-90270000D01*
X168488095Y-90317619D01*
X168535714Y-90412857D01*
X168535714Y-90508095D01*
X168488095Y-90650952D01*
X167916666Y-91222380D01*
X168535714Y-91222380D01*
%TO.C,C1*%
X143233333Y-113757142D02*
X143185714Y-113804761D01*
X143042857Y-113852380D01*
X142947619Y-113852380D01*
X142804761Y-113804761D01*
X142709523Y-113709523D01*
X142661904Y-113614285D01*
X142614285Y-113423809D01*
X142614285Y-113280952D01*
X142661904Y-113090476D01*
X142709523Y-112995238D01*
X142804761Y-112900000D01*
X142947619Y-112852380D01*
X143042857Y-112852380D01*
X143185714Y-112900000D01*
X143233333Y-112947619D01*
X144185714Y-113852380D02*
X143614285Y-113852380D01*
X143900000Y-113852380D02*
X143900000Y-112852380D01*
X143804761Y-112995238D01*
X143709523Y-113090476D01*
X143614285Y-113138095D01*
%TO.C,R17*%
X172252380Y-73355357D02*
X171776190Y-73688690D01*
X172252380Y-73926785D02*
X171252380Y-73926785D01*
X171252380Y-73545833D01*
X171300000Y-73450595D01*
X171347619Y-73402976D01*
X171442857Y-73355357D01*
X171585714Y-73355357D01*
X171680952Y-73402976D01*
X171728571Y-73450595D01*
X171776190Y-73545833D01*
X171776190Y-73926785D01*
X172252380Y-72402976D02*
X172252380Y-72974404D01*
X172252380Y-72688690D02*
X171252380Y-72688690D01*
X171395238Y-72783928D01*
X171490476Y-72879166D01*
X171538095Y-72974404D01*
X171252380Y-72069642D02*
X171252380Y-71402976D01*
X172252380Y-71831547D01*
%TD*%
%TO.C,C6*%
G36*
G01*
X178600000Y-72525000D02*
X178600000Y-73475000D01*
G75*
G02*
X178350000Y-73725000I-250000J0D01*
G01*
X177850000Y-73725000D01*
G75*
G02*
X177600000Y-73475000I0J250000D01*
G01*
X177600000Y-72525000D01*
G75*
G02*
X177850000Y-72275000I250000J0D01*
G01*
X178350000Y-72275000D01*
G75*
G02*
X178600000Y-72525000I0J-250000D01*
G01*
G37*
G36*
G01*
X180500000Y-72525000D02*
X180500000Y-73475000D01*
G75*
G02*
X180250000Y-73725000I-250000J0D01*
G01*
X179750000Y-73725000D01*
G75*
G02*
X179500000Y-73475000I0J250000D01*
G01*
X179500000Y-72525000D01*
G75*
G02*
X179750000Y-72275000I250000J0D01*
G01*
X180250000Y-72275000D01*
G75*
G02*
X180500000Y-72525000I0J-250000D01*
G01*
G37*
%TD*%
%TO.C,C11*%
G36*
G01*
X140675000Y-97350000D02*
X139725000Y-97350000D01*
G75*
G02*
X139475000Y-97100000I0J250000D01*
G01*
X139475000Y-96600000D01*
G75*
G02*
X139725000Y-96350000I250000J0D01*
G01*
X140675000Y-96350000D01*
G75*
G02*
X140925000Y-96600000I0J-250000D01*
G01*
X140925000Y-97100000D01*
G75*
G02*
X140675000Y-97350000I-250000J0D01*
G01*
G37*
G36*
G01*
X140675000Y-99250000D02*
X139725000Y-99250000D01*
G75*
G02*
X139475000Y-99000000I0J250000D01*
G01*
X139475000Y-98500000D01*
G75*
G02*
X139725000Y-98250000I250000J0D01*
G01*
X140675000Y-98250000D01*
G75*
G02*
X140925000Y-98500000I0J-250000D01*
G01*
X140925000Y-99000000D01*
G75*
G02*
X140675000Y-99250000I-250000J0D01*
G01*
G37*
%TD*%
%TO.C,R5*%
G36*
G01*
X146287500Y-112650001D02*
X146287500Y-111749999D01*
G75*
G02*
X146537499Y-111500000I249999J0D01*
G01*
X147062501Y-111500000D01*
G75*
G02*
X147312500Y-111749999I0J-249999D01*
G01*
X147312500Y-112650001D01*
G75*
G02*
X147062501Y-112900000I-249999J0D01*
G01*
X146537499Y-112900000D01*
G75*
G02*
X146287500Y-112650001I0J249999D01*
G01*
G37*
G36*
G01*
X148112500Y-112650001D02*
X148112500Y-111749999D01*
G75*
G02*
X148362499Y-111500000I249999J0D01*
G01*
X148887501Y-111500000D01*
G75*
G02*
X149137500Y-111749999I0J-249999D01*
G01*
X149137500Y-112650001D01*
G75*
G02*
X148887501Y-112900000I-249999J0D01*
G01*
X148362499Y-112900000D01*
G75*
G02*
X148112500Y-112650001I0J249999D01*
G01*
G37*
%TD*%
D12*
%TO.C,Y2*%
X161150000Y-106425000D03*
D13*
X159900000Y-98675000D03*
X162400000Y-98675000D03*
%TD*%
D14*
%TO.C,Y1*%
X162600000Y-92400000D03*
X162600000Y-82900000D03*
%TD*%
%TO.C,U3*%
G36*
G01*
X151950000Y-98025000D02*
X151950000Y-99425000D01*
G75*
G02*
X151875000Y-99500000I-75000J0D01*
G01*
X151725000Y-99500000D01*
G75*
G02*
X151650000Y-99425000I0J75000D01*
G01*
X151650000Y-98025000D01*
G75*
G02*
X151725000Y-97950000I75000J0D01*
G01*
X151875000Y-97950000D01*
G75*
G02*
X151950000Y-98025000I0J-75000D01*
G01*
G37*
G36*
G01*
X151450000Y-98025000D02*
X151450000Y-99425000D01*
G75*
G02*
X151375000Y-99500000I-75000J0D01*
G01*
X151225000Y-99500000D01*
G75*
G02*
X151150000Y-99425000I0J75000D01*
G01*
X151150000Y-98025000D01*
G75*
G02*
X151225000Y-97950000I75000J0D01*
G01*
X151375000Y-97950000D01*
G75*
G02*
X151450000Y-98025000I0J-75000D01*
G01*
G37*
G36*
G01*
X150950000Y-98025000D02*
X150950000Y-99425000D01*
G75*
G02*
X150875000Y-99500000I-75000J0D01*
G01*
X150725000Y-99500000D01*
G75*
G02*
X150650000Y-99425000I0J75000D01*
G01*
X150650000Y-98025000D01*
G75*
G02*
X150725000Y-97950000I75000J0D01*
G01*
X150875000Y-97950000D01*
G75*
G02*
X150950000Y-98025000I0J-75000D01*
G01*
G37*
G36*
G01*
X150450000Y-98025000D02*
X150450000Y-99425000D01*
G75*
G02*
X150375000Y-99500000I-75000J0D01*
G01*
X150225000Y-99500000D01*
G75*
G02*
X150150000Y-99425000I0J75000D01*
G01*
X150150000Y-98025000D01*
G75*
G02*
X150225000Y-97950000I75000J0D01*
G01*
X150375000Y-97950000D01*
G75*
G02*
X150450000Y-98025000I0J-75000D01*
G01*
G37*
G36*
G01*
X149950000Y-98025000D02*
X149950000Y-99425000D01*
G75*
G02*
X149875000Y-99500000I-75000J0D01*
G01*
X149725000Y-99500000D01*
G75*
G02*
X149650000Y-99425000I0J75000D01*
G01*
X149650000Y-98025000D01*
G75*
G02*
X149725000Y-97950000I75000J0D01*
G01*
X149875000Y-97950000D01*
G75*
G02*
X149950000Y-98025000I0J-75000D01*
G01*
G37*
G36*
G01*
X149450000Y-98025000D02*
X149450000Y-99425000D01*
G75*
G02*
X149375000Y-99500000I-75000J0D01*
G01*
X149225000Y-99500000D01*
G75*
G02*
X149150000Y-99425000I0J75000D01*
G01*
X149150000Y-98025000D01*
G75*
G02*
X149225000Y-97950000I75000J0D01*
G01*
X149375000Y-97950000D01*
G75*
G02*
X149450000Y-98025000I0J-75000D01*
G01*
G37*
G36*
G01*
X148950000Y-98025000D02*
X148950000Y-99425000D01*
G75*
G02*
X148875000Y-99500000I-75000J0D01*
G01*
X148725000Y-99500000D01*
G75*
G02*
X148650000Y-99425000I0J75000D01*
G01*
X148650000Y-98025000D01*
G75*
G02*
X148725000Y-97950000I75000J0D01*
G01*
X148875000Y-97950000D01*
G75*
G02*
X148950000Y-98025000I0J-75000D01*
G01*
G37*
G36*
G01*
X148450000Y-98025000D02*
X148450000Y-99425000D01*
G75*
G02*
X148375000Y-99500000I-75000J0D01*
G01*
X148225000Y-99500000D01*
G75*
G02*
X148150000Y-99425000I0J75000D01*
G01*
X148150000Y-98025000D01*
G75*
G02*
X148225000Y-97950000I75000J0D01*
G01*
X148375000Y-97950000D01*
G75*
G02*
X148450000Y-98025000I0J-75000D01*
G01*
G37*
G36*
G01*
X147950000Y-98025000D02*
X147950000Y-99425000D01*
G75*
G02*
X147875000Y-99500000I-75000J0D01*
G01*
X147725000Y-99500000D01*
G75*
G02*
X147650000Y-99425000I0J75000D01*
G01*
X147650000Y-98025000D01*
G75*
G02*
X147725000Y-97950000I75000J0D01*
G01*
X147875000Y-97950000D01*
G75*
G02*
X147950000Y-98025000I0J-75000D01*
G01*
G37*
G36*
G01*
X147450000Y-98025000D02*
X147450000Y-99425000D01*
G75*
G02*
X147375000Y-99500000I-75000J0D01*
G01*
X147225000Y-99500000D01*
G75*
G02*
X147150000Y-99425000I0J75000D01*
G01*
X147150000Y-98025000D01*
G75*
G02*
X147225000Y-97950000I75000J0D01*
G01*
X147375000Y-97950000D01*
G75*
G02*
X147450000Y-98025000I0J-75000D01*
G01*
G37*
G36*
G01*
X146950000Y-98025000D02*
X146950000Y-99425000D01*
G75*
G02*
X146875000Y-99500000I-75000J0D01*
G01*
X146725000Y-99500000D01*
G75*
G02*
X146650000Y-99425000I0J75000D01*
G01*
X146650000Y-98025000D01*
G75*
G02*
X146725000Y-97950000I75000J0D01*
G01*
X146875000Y-97950000D01*
G75*
G02*
X146950000Y-98025000I0J-75000D01*
G01*
G37*
G36*
G01*
X146450000Y-98025000D02*
X146450000Y-99425000D01*
G75*
G02*
X146375000Y-99500000I-75000J0D01*
G01*
X146225000Y-99500000D01*
G75*
G02*
X146150000Y-99425000I0J75000D01*
G01*
X146150000Y-98025000D01*
G75*
G02*
X146225000Y-97950000I75000J0D01*
G01*
X146375000Y-97950000D01*
G75*
G02*
X146450000Y-98025000I0J-75000D01*
G01*
G37*
G36*
G01*
X145950000Y-98025000D02*
X145950000Y-99425000D01*
G75*
G02*
X145875000Y-99500000I-75000J0D01*
G01*
X145725000Y-99500000D01*
G75*
G02*
X145650000Y-99425000I0J75000D01*
G01*
X145650000Y-98025000D01*
G75*
G02*
X145725000Y-97950000I75000J0D01*
G01*
X145875000Y-97950000D01*
G75*
G02*
X145950000Y-98025000I0J-75000D01*
G01*
G37*
G36*
G01*
X145450000Y-98025000D02*
X145450000Y-99425000D01*
G75*
G02*
X145375000Y-99500000I-75000J0D01*
G01*
X145225000Y-99500000D01*
G75*
G02*
X145150000Y-99425000I0J75000D01*
G01*
X145150000Y-98025000D01*
G75*
G02*
X145225000Y-97950000I75000J0D01*
G01*
X145375000Y-97950000D01*
G75*
G02*
X145450000Y-98025000I0J-75000D01*
G01*
G37*
G36*
G01*
X144950000Y-98025000D02*
X144950000Y-99425000D01*
G75*
G02*
X144875000Y-99500000I-75000J0D01*
G01*
X144725000Y-99500000D01*
G75*
G02*
X144650000Y-99425000I0J75000D01*
G01*
X144650000Y-98025000D01*
G75*
G02*
X144725000Y-97950000I75000J0D01*
G01*
X144875000Y-97950000D01*
G75*
G02*
X144950000Y-98025000I0J-75000D01*
G01*
G37*
G36*
G01*
X144450000Y-98025000D02*
X144450000Y-99425000D01*
G75*
G02*
X144375000Y-99500000I-75000J0D01*
G01*
X144225000Y-99500000D01*
G75*
G02*
X144150000Y-99425000I0J75000D01*
G01*
X144150000Y-98025000D01*
G75*
G02*
X144225000Y-97950000I75000J0D01*
G01*
X144375000Y-97950000D01*
G75*
G02*
X144450000Y-98025000I0J-75000D01*
G01*
G37*
G36*
G01*
X143150000Y-96725000D02*
X143150000Y-96875000D01*
G75*
G02*
X143075000Y-96950000I-75000J0D01*
G01*
X141675000Y-96950000D01*
G75*
G02*
X141600000Y-96875000I0J75000D01*
G01*
X141600000Y-96725000D01*
G75*
G02*
X141675000Y-96650000I75000J0D01*
G01*
X143075000Y-96650000D01*
G75*
G02*
X143150000Y-96725000I0J-75000D01*
G01*
G37*
G36*
G01*
X143150000Y-96225000D02*
X143150000Y-96375000D01*
G75*
G02*
X143075000Y-96450000I-75000J0D01*
G01*
X141675000Y-96450000D01*
G75*
G02*
X141600000Y-96375000I0J75000D01*
G01*
X141600000Y-96225000D01*
G75*
G02*
X141675000Y-96150000I75000J0D01*
G01*
X143075000Y-96150000D01*
G75*
G02*
X143150000Y-96225000I0J-75000D01*
G01*
G37*
G36*
G01*
X143150000Y-95725000D02*
X143150000Y-95875000D01*
G75*
G02*
X143075000Y-95950000I-75000J0D01*
G01*
X141675000Y-95950000D01*
G75*
G02*
X141600000Y-95875000I0J75000D01*
G01*
X141600000Y-95725000D01*
G75*
G02*
X141675000Y-95650000I75000J0D01*
G01*
X143075000Y-95650000D01*
G75*
G02*
X143150000Y-95725000I0J-75000D01*
G01*
G37*
G36*
G01*
X143150000Y-95225000D02*
X143150000Y-95375000D01*
G75*
G02*
X143075000Y-95450000I-75000J0D01*
G01*
X141675000Y-95450000D01*
G75*
G02*
X141600000Y-95375000I0J75000D01*
G01*
X141600000Y-95225000D01*
G75*
G02*
X141675000Y-95150000I75000J0D01*
G01*
X143075000Y-95150000D01*
G75*
G02*
X143150000Y-95225000I0J-75000D01*
G01*
G37*
G36*
G01*
X143150000Y-94725000D02*
X143150000Y-94875000D01*
G75*
G02*
X143075000Y-94950000I-75000J0D01*
G01*
X141675000Y-94950000D01*
G75*
G02*
X141600000Y-94875000I0J75000D01*
G01*
X141600000Y-94725000D01*
G75*
G02*
X141675000Y-94650000I75000J0D01*
G01*
X143075000Y-94650000D01*
G75*
G02*
X143150000Y-94725000I0J-75000D01*
G01*
G37*
G36*
G01*
X143150000Y-94225000D02*
X143150000Y-94375000D01*
G75*
G02*
X143075000Y-94450000I-75000J0D01*
G01*
X141675000Y-94450000D01*
G75*
G02*
X141600000Y-94375000I0J75000D01*
G01*
X141600000Y-94225000D01*
G75*
G02*
X141675000Y-94150000I75000J0D01*
G01*
X143075000Y-94150000D01*
G75*
G02*
X143150000Y-94225000I0J-75000D01*
G01*
G37*
G36*
G01*
X143150000Y-93725000D02*
X143150000Y-93875000D01*
G75*
G02*
X143075000Y-93950000I-75000J0D01*
G01*
X141675000Y-93950000D01*
G75*
G02*
X141600000Y-93875000I0J75000D01*
G01*
X141600000Y-93725000D01*
G75*
G02*
X141675000Y-93650000I75000J0D01*
G01*
X143075000Y-93650000D01*
G75*
G02*
X143150000Y-93725000I0J-75000D01*
G01*
G37*
G36*
G01*
X143150000Y-93225000D02*
X143150000Y-93375000D01*
G75*
G02*
X143075000Y-93450000I-75000J0D01*
G01*
X141675000Y-93450000D01*
G75*
G02*
X141600000Y-93375000I0J75000D01*
G01*
X141600000Y-93225000D01*
G75*
G02*
X141675000Y-93150000I75000J0D01*
G01*
X143075000Y-93150000D01*
G75*
G02*
X143150000Y-93225000I0J-75000D01*
G01*
G37*
G36*
G01*
X143150000Y-92725000D02*
X143150000Y-92875000D01*
G75*
G02*
X143075000Y-92950000I-75000J0D01*
G01*
X141675000Y-92950000D01*
G75*
G02*
X141600000Y-92875000I0J75000D01*
G01*
X141600000Y-92725000D01*
G75*
G02*
X141675000Y-92650000I75000J0D01*
G01*
X143075000Y-92650000D01*
G75*
G02*
X143150000Y-92725000I0J-75000D01*
G01*
G37*
G36*
G01*
X143150000Y-92225000D02*
X143150000Y-92375000D01*
G75*
G02*
X143075000Y-92450000I-75000J0D01*
G01*
X141675000Y-92450000D01*
G75*
G02*
X141600000Y-92375000I0J75000D01*
G01*
X141600000Y-92225000D01*
G75*
G02*
X141675000Y-92150000I75000J0D01*
G01*
X143075000Y-92150000D01*
G75*
G02*
X143150000Y-92225000I0J-75000D01*
G01*
G37*
G36*
G01*
X143150000Y-91725000D02*
X143150000Y-91875000D01*
G75*
G02*
X143075000Y-91950000I-75000J0D01*
G01*
X141675000Y-91950000D01*
G75*
G02*
X141600000Y-91875000I0J75000D01*
G01*
X141600000Y-91725000D01*
G75*
G02*
X141675000Y-91650000I75000J0D01*
G01*
X143075000Y-91650000D01*
G75*
G02*
X143150000Y-91725000I0J-75000D01*
G01*
G37*
G36*
G01*
X143150000Y-91225000D02*
X143150000Y-91375000D01*
G75*
G02*
X143075000Y-91450000I-75000J0D01*
G01*
X141675000Y-91450000D01*
G75*
G02*
X141600000Y-91375000I0J75000D01*
G01*
X141600000Y-91225000D01*
G75*
G02*
X141675000Y-91150000I75000J0D01*
G01*
X143075000Y-91150000D01*
G75*
G02*
X143150000Y-91225000I0J-75000D01*
G01*
G37*
G36*
G01*
X143150000Y-90725000D02*
X143150000Y-90875000D01*
G75*
G02*
X143075000Y-90950000I-75000J0D01*
G01*
X141675000Y-90950000D01*
G75*
G02*
X141600000Y-90875000I0J75000D01*
G01*
X141600000Y-90725000D01*
G75*
G02*
X141675000Y-90650000I75000J0D01*
G01*
X143075000Y-90650000D01*
G75*
G02*
X143150000Y-90725000I0J-75000D01*
G01*
G37*
G36*
G01*
X143150000Y-90225000D02*
X143150000Y-90375000D01*
G75*
G02*
X143075000Y-90450000I-75000J0D01*
G01*
X141675000Y-90450000D01*
G75*
G02*
X141600000Y-90375000I0J75000D01*
G01*
X141600000Y-90225000D01*
G75*
G02*
X141675000Y-90150000I75000J0D01*
G01*
X143075000Y-90150000D01*
G75*
G02*
X143150000Y-90225000I0J-75000D01*
G01*
G37*
G36*
G01*
X143150000Y-89725000D02*
X143150000Y-89875000D01*
G75*
G02*
X143075000Y-89950000I-75000J0D01*
G01*
X141675000Y-89950000D01*
G75*
G02*
X141600000Y-89875000I0J75000D01*
G01*
X141600000Y-89725000D01*
G75*
G02*
X141675000Y-89650000I75000J0D01*
G01*
X143075000Y-89650000D01*
G75*
G02*
X143150000Y-89725000I0J-75000D01*
G01*
G37*
G36*
G01*
X143150000Y-89225000D02*
X143150000Y-89375000D01*
G75*
G02*
X143075000Y-89450000I-75000J0D01*
G01*
X141675000Y-89450000D01*
G75*
G02*
X141600000Y-89375000I0J75000D01*
G01*
X141600000Y-89225000D01*
G75*
G02*
X141675000Y-89150000I75000J0D01*
G01*
X143075000Y-89150000D01*
G75*
G02*
X143150000Y-89225000I0J-75000D01*
G01*
G37*
G36*
G01*
X144450000Y-86675000D02*
X144450000Y-88075000D01*
G75*
G02*
X144375000Y-88150000I-75000J0D01*
G01*
X144225000Y-88150000D01*
G75*
G02*
X144150000Y-88075000I0J75000D01*
G01*
X144150000Y-86675000D01*
G75*
G02*
X144225000Y-86600000I75000J0D01*
G01*
X144375000Y-86600000D01*
G75*
G02*
X144450000Y-86675000I0J-75000D01*
G01*
G37*
G36*
G01*
X144950000Y-86675000D02*
X144950000Y-88075000D01*
G75*
G02*
X144875000Y-88150000I-75000J0D01*
G01*
X144725000Y-88150000D01*
G75*
G02*
X144650000Y-88075000I0J75000D01*
G01*
X144650000Y-86675000D01*
G75*
G02*
X144725000Y-86600000I75000J0D01*
G01*
X144875000Y-86600000D01*
G75*
G02*
X144950000Y-86675000I0J-75000D01*
G01*
G37*
G36*
G01*
X145450000Y-86675000D02*
X145450000Y-88075000D01*
G75*
G02*
X145375000Y-88150000I-75000J0D01*
G01*
X145225000Y-88150000D01*
G75*
G02*
X145150000Y-88075000I0J75000D01*
G01*
X145150000Y-86675000D01*
G75*
G02*
X145225000Y-86600000I75000J0D01*
G01*
X145375000Y-86600000D01*
G75*
G02*
X145450000Y-86675000I0J-75000D01*
G01*
G37*
G36*
G01*
X145950000Y-86675000D02*
X145950000Y-88075000D01*
G75*
G02*
X145875000Y-88150000I-75000J0D01*
G01*
X145725000Y-88150000D01*
G75*
G02*
X145650000Y-88075000I0J75000D01*
G01*
X145650000Y-86675000D01*
G75*
G02*
X145725000Y-86600000I75000J0D01*
G01*
X145875000Y-86600000D01*
G75*
G02*
X145950000Y-86675000I0J-75000D01*
G01*
G37*
G36*
G01*
X146450000Y-86675000D02*
X146450000Y-88075000D01*
G75*
G02*
X146375000Y-88150000I-75000J0D01*
G01*
X146225000Y-88150000D01*
G75*
G02*
X146150000Y-88075000I0J75000D01*
G01*
X146150000Y-86675000D01*
G75*
G02*
X146225000Y-86600000I75000J0D01*
G01*
X146375000Y-86600000D01*
G75*
G02*
X146450000Y-86675000I0J-75000D01*
G01*
G37*
G36*
G01*
X146950000Y-86675000D02*
X146950000Y-88075000D01*
G75*
G02*
X146875000Y-88150000I-75000J0D01*
G01*
X146725000Y-88150000D01*
G75*
G02*
X146650000Y-88075000I0J75000D01*
G01*
X146650000Y-86675000D01*
G75*
G02*
X146725000Y-86600000I75000J0D01*
G01*
X146875000Y-86600000D01*
G75*
G02*
X146950000Y-86675000I0J-75000D01*
G01*
G37*
G36*
G01*
X147450000Y-86675000D02*
X147450000Y-88075000D01*
G75*
G02*
X147375000Y-88150000I-75000J0D01*
G01*
X147225000Y-88150000D01*
G75*
G02*
X147150000Y-88075000I0J75000D01*
G01*
X147150000Y-86675000D01*
G75*
G02*
X147225000Y-86600000I75000J0D01*
G01*
X147375000Y-86600000D01*
G75*
G02*
X147450000Y-86675000I0J-75000D01*
G01*
G37*
G36*
G01*
X147950000Y-86675000D02*
X147950000Y-88075000D01*
G75*
G02*
X147875000Y-88150000I-75000J0D01*
G01*
X147725000Y-88150000D01*
G75*
G02*
X147650000Y-88075000I0J75000D01*
G01*
X147650000Y-86675000D01*
G75*
G02*
X147725000Y-86600000I75000J0D01*
G01*
X147875000Y-86600000D01*
G75*
G02*
X147950000Y-86675000I0J-75000D01*
G01*
G37*
G36*
G01*
X148450000Y-86675000D02*
X148450000Y-88075000D01*
G75*
G02*
X148375000Y-88150000I-75000J0D01*
G01*
X148225000Y-88150000D01*
G75*
G02*
X148150000Y-88075000I0J75000D01*
G01*
X148150000Y-86675000D01*
G75*
G02*
X148225000Y-86600000I75000J0D01*
G01*
X148375000Y-86600000D01*
G75*
G02*
X148450000Y-86675000I0J-75000D01*
G01*
G37*
G36*
G01*
X148950000Y-86675000D02*
X148950000Y-88075000D01*
G75*
G02*
X148875000Y-88150000I-75000J0D01*
G01*
X148725000Y-88150000D01*
G75*
G02*
X148650000Y-88075000I0J75000D01*
G01*
X148650000Y-86675000D01*
G75*
G02*
X148725000Y-86600000I75000J0D01*
G01*
X148875000Y-86600000D01*
G75*
G02*
X148950000Y-86675000I0J-75000D01*
G01*
G37*
G36*
G01*
X149450000Y-86675000D02*
X149450000Y-88075000D01*
G75*
G02*
X149375000Y-88150000I-75000J0D01*
G01*
X149225000Y-88150000D01*
G75*
G02*
X149150000Y-88075000I0J75000D01*
G01*
X149150000Y-86675000D01*
G75*
G02*
X149225000Y-86600000I75000J0D01*
G01*
X149375000Y-86600000D01*
G75*
G02*
X149450000Y-86675000I0J-75000D01*
G01*
G37*
G36*
G01*
X149950000Y-86675000D02*
X149950000Y-88075000D01*
G75*
G02*
X149875000Y-88150000I-75000J0D01*
G01*
X149725000Y-88150000D01*
G75*
G02*
X149650000Y-88075000I0J75000D01*
G01*
X149650000Y-86675000D01*
G75*
G02*
X149725000Y-86600000I75000J0D01*
G01*
X149875000Y-86600000D01*
G75*
G02*
X149950000Y-86675000I0J-75000D01*
G01*
G37*
G36*
G01*
X150450000Y-86675000D02*
X150450000Y-88075000D01*
G75*
G02*
X150375000Y-88150000I-75000J0D01*
G01*
X150225000Y-88150000D01*
G75*
G02*
X150150000Y-88075000I0J75000D01*
G01*
X150150000Y-86675000D01*
G75*
G02*
X150225000Y-86600000I75000J0D01*
G01*
X150375000Y-86600000D01*
G75*
G02*
X150450000Y-86675000I0J-75000D01*
G01*
G37*
G36*
G01*
X150950000Y-86675000D02*
X150950000Y-88075000D01*
G75*
G02*
X150875000Y-88150000I-75000J0D01*
G01*
X150725000Y-88150000D01*
G75*
G02*
X150650000Y-88075000I0J75000D01*
G01*
X150650000Y-86675000D01*
G75*
G02*
X150725000Y-86600000I75000J0D01*
G01*
X150875000Y-86600000D01*
G75*
G02*
X150950000Y-86675000I0J-75000D01*
G01*
G37*
G36*
G01*
X151450000Y-86675000D02*
X151450000Y-88075000D01*
G75*
G02*
X151375000Y-88150000I-75000J0D01*
G01*
X151225000Y-88150000D01*
G75*
G02*
X151150000Y-88075000I0J75000D01*
G01*
X151150000Y-86675000D01*
G75*
G02*
X151225000Y-86600000I75000J0D01*
G01*
X151375000Y-86600000D01*
G75*
G02*
X151450000Y-86675000I0J-75000D01*
G01*
G37*
G36*
G01*
X151950000Y-86675000D02*
X151950000Y-88075000D01*
G75*
G02*
X151875000Y-88150000I-75000J0D01*
G01*
X151725000Y-88150000D01*
G75*
G02*
X151650000Y-88075000I0J75000D01*
G01*
X151650000Y-86675000D01*
G75*
G02*
X151725000Y-86600000I75000J0D01*
G01*
X151875000Y-86600000D01*
G75*
G02*
X151950000Y-86675000I0J-75000D01*
G01*
G37*
G36*
G01*
X154500000Y-89225000D02*
X154500000Y-89375000D01*
G75*
G02*
X154425000Y-89450000I-75000J0D01*
G01*
X153025000Y-89450000D01*
G75*
G02*
X152950000Y-89375000I0J75000D01*
G01*
X152950000Y-89225000D01*
G75*
G02*
X153025000Y-89150000I75000J0D01*
G01*
X154425000Y-89150000D01*
G75*
G02*
X154500000Y-89225000I0J-75000D01*
G01*
G37*
G36*
G01*
X154500000Y-89725000D02*
X154500000Y-89875000D01*
G75*
G02*
X154425000Y-89950000I-75000J0D01*
G01*
X153025000Y-89950000D01*
G75*
G02*
X152950000Y-89875000I0J75000D01*
G01*
X152950000Y-89725000D01*
G75*
G02*
X153025000Y-89650000I75000J0D01*
G01*
X154425000Y-89650000D01*
G75*
G02*
X154500000Y-89725000I0J-75000D01*
G01*
G37*
G36*
G01*
X154500000Y-90225000D02*
X154500000Y-90375000D01*
G75*
G02*
X154425000Y-90450000I-75000J0D01*
G01*
X153025000Y-90450000D01*
G75*
G02*
X152950000Y-90375000I0J75000D01*
G01*
X152950000Y-90225000D01*
G75*
G02*
X153025000Y-90150000I75000J0D01*
G01*
X154425000Y-90150000D01*
G75*
G02*
X154500000Y-90225000I0J-75000D01*
G01*
G37*
G36*
G01*
X154500000Y-90725000D02*
X154500000Y-90875000D01*
G75*
G02*
X154425000Y-90950000I-75000J0D01*
G01*
X153025000Y-90950000D01*
G75*
G02*
X152950000Y-90875000I0J75000D01*
G01*
X152950000Y-90725000D01*
G75*
G02*
X153025000Y-90650000I75000J0D01*
G01*
X154425000Y-90650000D01*
G75*
G02*
X154500000Y-90725000I0J-75000D01*
G01*
G37*
G36*
G01*
X154500000Y-91225000D02*
X154500000Y-91375000D01*
G75*
G02*
X154425000Y-91450000I-75000J0D01*
G01*
X153025000Y-91450000D01*
G75*
G02*
X152950000Y-91375000I0J75000D01*
G01*
X152950000Y-91225000D01*
G75*
G02*
X153025000Y-91150000I75000J0D01*
G01*
X154425000Y-91150000D01*
G75*
G02*
X154500000Y-91225000I0J-75000D01*
G01*
G37*
G36*
G01*
X154500000Y-91725000D02*
X154500000Y-91875000D01*
G75*
G02*
X154425000Y-91950000I-75000J0D01*
G01*
X153025000Y-91950000D01*
G75*
G02*
X152950000Y-91875000I0J75000D01*
G01*
X152950000Y-91725000D01*
G75*
G02*
X153025000Y-91650000I75000J0D01*
G01*
X154425000Y-91650000D01*
G75*
G02*
X154500000Y-91725000I0J-75000D01*
G01*
G37*
G36*
G01*
X154500000Y-92225000D02*
X154500000Y-92375000D01*
G75*
G02*
X154425000Y-92450000I-75000J0D01*
G01*
X153025000Y-92450000D01*
G75*
G02*
X152950000Y-92375000I0J75000D01*
G01*
X152950000Y-92225000D01*
G75*
G02*
X153025000Y-92150000I75000J0D01*
G01*
X154425000Y-92150000D01*
G75*
G02*
X154500000Y-92225000I0J-75000D01*
G01*
G37*
G36*
G01*
X154500000Y-92725000D02*
X154500000Y-92875000D01*
G75*
G02*
X154425000Y-92950000I-75000J0D01*
G01*
X153025000Y-92950000D01*
G75*
G02*
X152950000Y-92875000I0J75000D01*
G01*
X152950000Y-92725000D01*
G75*
G02*
X153025000Y-92650000I75000J0D01*
G01*
X154425000Y-92650000D01*
G75*
G02*
X154500000Y-92725000I0J-75000D01*
G01*
G37*
G36*
G01*
X154500000Y-93225000D02*
X154500000Y-93375000D01*
G75*
G02*
X154425000Y-93450000I-75000J0D01*
G01*
X153025000Y-93450000D01*
G75*
G02*
X152950000Y-93375000I0J75000D01*
G01*
X152950000Y-93225000D01*
G75*
G02*
X153025000Y-93150000I75000J0D01*
G01*
X154425000Y-93150000D01*
G75*
G02*
X154500000Y-93225000I0J-75000D01*
G01*
G37*
G36*
G01*
X154500000Y-93725000D02*
X154500000Y-93875000D01*
G75*
G02*
X154425000Y-93950000I-75000J0D01*
G01*
X153025000Y-93950000D01*
G75*
G02*
X152950000Y-93875000I0J75000D01*
G01*
X152950000Y-93725000D01*
G75*
G02*
X153025000Y-93650000I75000J0D01*
G01*
X154425000Y-93650000D01*
G75*
G02*
X154500000Y-93725000I0J-75000D01*
G01*
G37*
G36*
G01*
X154500000Y-94225000D02*
X154500000Y-94375000D01*
G75*
G02*
X154425000Y-94450000I-75000J0D01*
G01*
X153025000Y-94450000D01*
G75*
G02*
X152950000Y-94375000I0J75000D01*
G01*
X152950000Y-94225000D01*
G75*
G02*
X153025000Y-94150000I75000J0D01*
G01*
X154425000Y-94150000D01*
G75*
G02*
X154500000Y-94225000I0J-75000D01*
G01*
G37*
G36*
G01*
X154500000Y-94725000D02*
X154500000Y-94875000D01*
G75*
G02*
X154425000Y-94950000I-75000J0D01*
G01*
X153025000Y-94950000D01*
G75*
G02*
X152950000Y-94875000I0J75000D01*
G01*
X152950000Y-94725000D01*
G75*
G02*
X153025000Y-94650000I75000J0D01*
G01*
X154425000Y-94650000D01*
G75*
G02*
X154500000Y-94725000I0J-75000D01*
G01*
G37*
G36*
G01*
X154500000Y-95225000D02*
X154500000Y-95375000D01*
G75*
G02*
X154425000Y-95450000I-75000J0D01*
G01*
X153025000Y-95450000D01*
G75*
G02*
X152950000Y-95375000I0J75000D01*
G01*
X152950000Y-95225000D01*
G75*
G02*
X153025000Y-95150000I75000J0D01*
G01*
X154425000Y-95150000D01*
G75*
G02*
X154500000Y-95225000I0J-75000D01*
G01*
G37*
G36*
G01*
X154500000Y-95725000D02*
X154500000Y-95875000D01*
G75*
G02*
X154425000Y-95950000I-75000J0D01*
G01*
X153025000Y-95950000D01*
G75*
G02*
X152950000Y-95875000I0J75000D01*
G01*
X152950000Y-95725000D01*
G75*
G02*
X153025000Y-95650000I75000J0D01*
G01*
X154425000Y-95650000D01*
G75*
G02*
X154500000Y-95725000I0J-75000D01*
G01*
G37*
G36*
G01*
X154500000Y-96225000D02*
X154500000Y-96375000D01*
G75*
G02*
X154425000Y-96450000I-75000J0D01*
G01*
X153025000Y-96450000D01*
G75*
G02*
X152950000Y-96375000I0J75000D01*
G01*
X152950000Y-96225000D01*
G75*
G02*
X153025000Y-96150000I75000J0D01*
G01*
X154425000Y-96150000D01*
G75*
G02*
X154500000Y-96225000I0J-75000D01*
G01*
G37*
G36*
G01*
X154500000Y-96725000D02*
X154500000Y-96875000D01*
G75*
G02*
X154425000Y-96950000I-75000J0D01*
G01*
X153025000Y-96950000D01*
G75*
G02*
X152950000Y-96875000I0J75000D01*
G01*
X152950000Y-96725000D01*
G75*
G02*
X153025000Y-96650000I75000J0D01*
G01*
X154425000Y-96650000D01*
G75*
G02*
X154500000Y-96725000I0J-75000D01*
G01*
G37*
%TD*%
D15*
%TO.C,U2*%
X177690000Y-75205000D03*
X176750000Y-75205000D03*
X175810000Y-75205000D03*
X175810000Y-77695000D03*
X177690000Y-77695000D03*
%TD*%
%TO.C,U1*%
G36*
G01*
X148950000Y-109775000D02*
X148950000Y-109975000D01*
G75*
G02*
X148850000Y-110075000I-100000J0D01*
G01*
X147575000Y-110075000D01*
G75*
G02*
X147475000Y-109975000I0J100000D01*
G01*
X147475000Y-109775000D01*
G75*
G02*
X147575000Y-109675000I100000J0D01*
G01*
X148850000Y-109675000D01*
G75*
G02*
X148950000Y-109775000I0J-100000D01*
G01*
G37*
G36*
G01*
X148950000Y-109125000D02*
X148950000Y-109325000D01*
G75*
G02*
X148850000Y-109425000I-100000J0D01*
G01*
X147575000Y-109425000D01*
G75*
G02*
X147475000Y-109325000I0J100000D01*
G01*
X147475000Y-109125000D01*
G75*
G02*
X147575000Y-109025000I100000J0D01*
G01*
X148850000Y-109025000D01*
G75*
G02*
X148950000Y-109125000I0J-100000D01*
G01*
G37*
G36*
G01*
X148950000Y-108475000D02*
X148950000Y-108675000D01*
G75*
G02*
X148850000Y-108775000I-100000J0D01*
G01*
X147575000Y-108775000D01*
G75*
G02*
X147475000Y-108675000I0J100000D01*
G01*
X147475000Y-108475000D01*
G75*
G02*
X147575000Y-108375000I100000J0D01*
G01*
X148850000Y-108375000D01*
G75*
G02*
X148950000Y-108475000I0J-100000D01*
G01*
G37*
G36*
G01*
X148950000Y-107825000D02*
X148950000Y-108025000D01*
G75*
G02*
X148850000Y-108125000I-100000J0D01*
G01*
X147575000Y-108125000D01*
G75*
G02*
X147475000Y-108025000I0J100000D01*
G01*
X147475000Y-107825000D01*
G75*
G02*
X147575000Y-107725000I100000J0D01*
G01*
X148850000Y-107725000D01*
G75*
G02*
X148950000Y-107825000I0J-100000D01*
G01*
G37*
G36*
G01*
X148950000Y-107175000D02*
X148950000Y-107375000D01*
G75*
G02*
X148850000Y-107475000I-100000J0D01*
G01*
X147575000Y-107475000D01*
G75*
G02*
X147475000Y-107375000I0J100000D01*
G01*
X147475000Y-107175000D01*
G75*
G02*
X147575000Y-107075000I100000J0D01*
G01*
X148850000Y-107075000D01*
G75*
G02*
X148950000Y-107175000I0J-100000D01*
G01*
G37*
G36*
G01*
X148950000Y-106525000D02*
X148950000Y-106725000D01*
G75*
G02*
X148850000Y-106825000I-100000J0D01*
G01*
X147575000Y-106825000D01*
G75*
G02*
X147475000Y-106725000I0J100000D01*
G01*
X147475000Y-106525000D01*
G75*
G02*
X147575000Y-106425000I100000J0D01*
G01*
X148850000Y-106425000D01*
G75*
G02*
X148950000Y-106525000I0J-100000D01*
G01*
G37*
G36*
G01*
X148950000Y-105875000D02*
X148950000Y-106075000D01*
G75*
G02*
X148850000Y-106175000I-100000J0D01*
G01*
X147575000Y-106175000D01*
G75*
G02*
X147475000Y-106075000I0J100000D01*
G01*
X147475000Y-105875000D01*
G75*
G02*
X147575000Y-105775000I100000J0D01*
G01*
X148850000Y-105775000D01*
G75*
G02*
X148950000Y-105875000I0J-100000D01*
G01*
G37*
G36*
G01*
X148950000Y-105225000D02*
X148950000Y-105425000D01*
G75*
G02*
X148850000Y-105525000I-100000J0D01*
G01*
X147575000Y-105525000D01*
G75*
G02*
X147475000Y-105425000I0J100000D01*
G01*
X147475000Y-105225000D01*
G75*
G02*
X147575000Y-105125000I100000J0D01*
G01*
X148850000Y-105125000D01*
G75*
G02*
X148950000Y-105225000I0J-100000D01*
G01*
G37*
G36*
G01*
X148950000Y-104575000D02*
X148950000Y-104775000D01*
G75*
G02*
X148850000Y-104875000I-100000J0D01*
G01*
X147575000Y-104875000D01*
G75*
G02*
X147475000Y-104775000I0J100000D01*
G01*
X147475000Y-104575000D01*
G75*
G02*
X147575000Y-104475000I100000J0D01*
G01*
X148850000Y-104475000D01*
G75*
G02*
X148950000Y-104575000I0J-100000D01*
G01*
G37*
G36*
G01*
X148950000Y-103925000D02*
X148950000Y-104125000D01*
G75*
G02*
X148850000Y-104225000I-100000J0D01*
G01*
X147575000Y-104225000D01*
G75*
G02*
X147475000Y-104125000I0J100000D01*
G01*
X147475000Y-103925000D01*
G75*
G02*
X147575000Y-103825000I100000J0D01*
G01*
X148850000Y-103825000D01*
G75*
G02*
X148950000Y-103925000I0J-100000D01*
G01*
G37*
G36*
G01*
X148950000Y-103275000D02*
X148950000Y-103475000D01*
G75*
G02*
X148850000Y-103575000I-100000J0D01*
G01*
X147575000Y-103575000D01*
G75*
G02*
X147475000Y-103475000I0J100000D01*
G01*
X147475000Y-103275000D01*
G75*
G02*
X147575000Y-103175000I100000J0D01*
G01*
X148850000Y-103175000D01*
G75*
G02*
X148950000Y-103275000I0J-100000D01*
G01*
G37*
G36*
G01*
X148950000Y-102625000D02*
X148950000Y-102825000D01*
G75*
G02*
X148850000Y-102925000I-100000J0D01*
G01*
X147575000Y-102925000D01*
G75*
G02*
X147475000Y-102825000I0J100000D01*
G01*
X147475000Y-102625000D01*
G75*
G02*
X147575000Y-102525000I100000J0D01*
G01*
X148850000Y-102525000D01*
G75*
G02*
X148950000Y-102625000I0J-100000D01*
G01*
G37*
G36*
G01*
X143225000Y-102625000D02*
X143225000Y-102825000D01*
G75*
G02*
X143125000Y-102925000I-100000J0D01*
G01*
X141850000Y-102925000D01*
G75*
G02*
X141750000Y-102825000I0J100000D01*
G01*
X141750000Y-102625000D01*
G75*
G02*
X141850000Y-102525000I100000J0D01*
G01*
X143125000Y-102525000D01*
G75*
G02*
X143225000Y-102625000I0J-100000D01*
G01*
G37*
G36*
G01*
X143225000Y-103275000D02*
X143225000Y-103475000D01*
G75*
G02*
X143125000Y-103575000I-100000J0D01*
G01*
X141850000Y-103575000D01*
G75*
G02*
X141750000Y-103475000I0J100000D01*
G01*
X141750000Y-103275000D01*
G75*
G02*
X141850000Y-103175000I100000J0D01*
G01*
X143125000Y-103175000D01*
G75*
G02*
X143225000Y-103275000I0J-100000D01*
G01*
G37*
G36*
G01*
X143225000Y-103925000D02*
X143225000Y-104125000D01*
G75*
G02*
X143125000Y-104225000I-100000J0D01*
G01*
X141850000Y-104225000D01*
G75*
G02*
X141750000Y-104125000I0J100000D01*
G01*
X141750000Y-103925000D01*
G75*
G02*
X141850000Y-103825000I100000J0D01*
G01*
X143125000Y-103825000D01*
G75*
G02*
X143225000Y-103925000I0J-100000D01*
G01*
G37*
G36*
G01*
X143225000Y-104575000D02*
X143225000Y-104775000D01*
G75*
G02*
X143125000Y-104875000I-100000J0D01*
G01*
X141850000Y-104875000D01*
G75*
G02*
X141750000Y-104775000I0J100000D01*
G01*
X141750000Y-104575000D01*
G75*
G02*
X141850000Y-104475000I100000J0D01*
G01*
X143125000Y-104475000D01*
G75*
G02*
X143225000Y-104575000I0J-100000D01*
G01*
G37*
G36*
G01*
X143225000Y-105225000D02*
X143225000Y-105425000D01*
G75*
G02*
X143125000Y-105525000I-100000J0D01*
G01*
X141850000Y-105525000D01*
G75*
G02*
X141750000Y-105425000I0J100000D01*
G01*
X141750000Y-105225000D01*
G75*
G02*
X141850000Y-105125000I100000J0D01*
G01*
X143125000Y-105125000D01*
G75*
G02*
X143225000Y-105225000I0J-100000D01*
G01*
G37*
G36*
G01*
X143225000Y-105875000D02*
X143225000Y-106075000D01*
G75*
G02*
X143125000Y-106175000I-100000J0D01*
G01*
X141850000Y-106175000D01*
G75*
G02*
X141750000Y-106075000I0J100000D01*
G01*
X141750000Y-105875000D01*
G75*
G02*
X141850000Y-105775000I100000J0D01*
G01*
X143125000Y-105775000D01*
G75*
G02*
X143225000Y-105875000I0J-100000D01*
G01*
G37*
G36*
G01*
X143225000Y-106525000D02*
X143225000Y-106725000D01*
G75*
G02*
X143125000Y-106825000I-100000J0D01*
G01*
X141850000Y-106825000D01*
G75*
G02*
X141750000Y-106725000I0J100000D01*
G01*
X141750000Y-106525000D01*
G75*
G02*
X141850000Y-106425000I100000J0D01*
G01*
X143125000Y-106425000D01*
G75*
G02*
X143225000Y-106525000I0J-100000D01*
G01*
G37*
G36*
G01*
X143225000Y-107175000D02*
X143225000Y-107375000D01*
G75*
G02*
X143125000Y-107475000I-100000J0D01*
G01*
X141850000Y-107475000D01*
G75*
G02*
X141750000Y-107375000I0J100000D01*
G01*
X141750000Y-107175000D01*
G75*
G02*
X141850000Y-107075000I100000J0D01*
G01*
X143125000Y-107075000D01*
G75*
G02*
X143225000Y-107175000I0J-100000D01*
G01*
G37*
G36*
G01*
X143225000Y-107825000D02*
X143225000Y-108025000D01*
G75*
G02*
X143125000Y-108125000I-100000J0D01*
G01*
X141850000Y-108125000D01*
G75*
G02*
X141750000Y-108025000I0J100000D01*
G01*
X141750000Y-107825000D01*
G75*
G02*
X141850000Y-107725000I100000J0D01*
G01*
X143125000Y-107725000D01*
G75*
G02*
X143225000Y-107825000I0J-100000D01*
G01*
G37*
G36*
G01*
X143225000Y-108475000D02*
X143225000Y-108675000D01*
G75*
G02*
X143125000Y-108775000I-100000J0D01*
G01*
X141850000Y-108775000D01*
G75*
G02*
X141750000Y-108675000I0J100000D01*
G01*
X141750000Y-108475000D01*
G75*
G02*
X141850000Y-108375000I100000J0D01*
G01*
X143125000Y-108375000D01*
G75*
G02*
X143225000Y-108475000I0J-100000D01*
G01*
G37*
G36*
G01*
X143225000Y-109125000D02*
X143225000Y-109325000D01*
G75*
G02*
X143125000Y-109425000I-100000J0D01*
G01*
X141850000Y-109425000D01*
G75*
G02*
X141750000Y-109325000I0J100000D01*
G01*
X141750000Y-109125000D01*
G75*
G02*
X141850000Y-109025000I100000J0D01*
G01*
X143125000Y-109025000D01*
G75*
G02*
X143225000Y-109125000I0J-100000D01*
G01*
G37*
G36*
G01*
X143225000Y-109775000D02*
X143225000Y-109975000D01*
G75*
G02*
X143125000Y-110075000I-100000J0D01*
G01*
X141850000Y-110075000D01*
G75*
G02*
X141750000Y-109975000I0J100000D01*
G01*
X141750000Y-109775000D01*
G75*
G02*
X141850000Y-109675000I100000J0D01*
G01*
X143125000Y-109675000D01*
G75*
G02*
X143225000Y-109775000I0J-100000D01*
G01*
G37*
%TD*%
D16*
%TO.C,SW1*%
X168425000Y-111650000D03*
X168425000Y-107150000D03*
X176375000Y-107150000D03*
X176375000Y-111650000D03*
%TD*%
%TO.C,R16*%
G36*
G01*
X172350000Y-80549999D02*
X172350000Y-81450001D01*
G75*
G02*
X172100001Y-81700000I-249999J0D01*
G01*
X171574999Y-81700000D01*
G75*
G02*
X171325000Y-81450001I0J249999D01*
G01*
X171325000Y-80549999D01*
G75*
G02*
X171574999Y-80300000I249999J0D01*
G01*
X172100001Y-80300000D01*
G75*
G02*
X172350000Y-80549999I0J-249999D01*
G01*
G37*
G36*
G01*
X174175000Y-80549999D02*
X174175000Y-81450001D01*
G75*
G02*
X173925001Y-81700000I-249999J0D01*
G01*
X173399999Y-81700000D01*
G75*
G02*
X173150000Y-81450001I0J249999D01*
G01*
X173150000Y-80549999D01*
G75*
G02*
X173399999Y-80300000I249999J0D01*
G01*
X173925001Y-80300000D01*
G75*
G02*
X174175000Y-80549999I0J-249999D01*
G01*
G37*
%TD*%
%TO.C,R15*%
G36*
G01*
X167350001Y-61662500D02*
X166449999Y-61662500D01*
G75*
G02*
X166200000Y-61412501I0J249999D01*
G01*
X166200000Y-60887499D01*
G75*
G02*
X166449999Y-60637500I249999J0D01*
G01*
X167350001Y-60637500D01*
G75*
G02*
X167600000Y-60887499I0J-249999D01*
G01*
X167600000Y-61412501D01*
G75*
G02*
X167350001Y-61662500I-249999J0D01*
G01*
G37*
G36*
G01*
X167350001Y-63487500D02*
X166449999Y-63487500D01*
G75*
G02*
X166200000Y-63237501I0J249999D01*
G01*
X166200000Y-62712499D01*
G75*
G02*
X166449999Y-62462500I249999J0D01*
G01*
X167350001Y-62462500D01*
G75*
G02*
X167600000Y-62712499I0J-249999D01*
G01*
X167600000Y-63237501D01*
G75*
G02*
X167350001Y-63487500I-249999J0D01*
G01*
G37*
%TD*%
%TO.C,R14*%
G36*
G01*
X155049999Y-125100000D02*
X155950001Y-125100000D01*
G75*
G02*
X156200000Y-125349999I0J-249999D01*
G01*
X156200000Y-125875001D01*
G75*
G02*
X155950001Y-126125000I-249999J0D01*
G01*
X155049999Y-126125000D01*
G75*
G02*
X154800000Y-125875001I0J249999D01*
G01*
X154800000Y-125349999D01*
G75*
G02*
X155049999Y-125100000I249999J0D01*
G01*
G37*
G36*
G01*
X155049999Y-123275000D02*
X155950001Y-123275000D01*
G75*
G02*
X156200000Y-123524999I0J-249999D01*
G01*
X156200000Y-124050001D01*
G75*
G02*
X155950001Y-124300000I-249999J0D01*
G01*
X155049999Y-124300000D01*
G75*
G02*
X154800000Y-124050001I0J249999D01*
G01*
X154800000Y-123524999D01*
G75*
G02*
X155049999Y-123275000I249999J0D01*
G01*
G37*
%TD*%
%TO.C,R13*%
G36*
G01*
X125450000Y-92099999D02*
X125450000Y-93000001D01*
G75*
G02*
X125200001Y-93250000I-249999J0D01*
G01*
X124674999Y-93250000D01*
G75*
G02*
X124425000Y-93000001I0J249999D01*
G01*
X124425000Y-92099999D01*
G75*
G02*
X124674999Y-91850000I249999J0D01*
G01*
X125200001Y-91850000D01*
G75*
G02*
X125450000Y-92099999I0J-249999D01*
G01*
G37*
G36*
G01*
X127275000Y-92099999D02*
X127275000Y-93000001D01*
G75*
G02*
X127025001Y-93250000I-249999J0D01*
G01*
X126499999Y-93250000D01*
G75*
G02*
X126250000Y-93000001I0J249999D01*
G01*
X126250000Y-92099999D01*
G75*
G02*
X126499999Y-91850000I249999J0D01*
G01*
X127025001Y-91850000D01*
G75*
G02*
X127275000Y-92099999I0J-249999D01*
G01*
G37*
%TD*%
%TO.C,R12*%
G36*
G01*
X192212500Y-101800001D02*
X192212500Y-100899999D01*
G75*
G02*
X192462499Y-100650000I249999J0D01*
G01*
X192987501Y-100650000D01*
G75*
G02*
X193237500Y-100899999I0J-249999D01*
G01*
X193237500Y-101800001D01*
G75*
G02*
X192987501Y-102050000I-249999J0D01*
G01*
X192462499Y-102050000D01*
G75*
G02*
X192212500Y-101800001I0J249999D01*
G01*
G37*
G36*
G01*
X190387500Y-101800001D02*
X190387500Y-100899999D01*
G75*
G02*
X190637499Y-100650000I249999J0D01*
G01*
X191162501Y-100650000D01*
G75*
G02*
X191412500Y-100899999I0J-249999D01*
G01*
X191412500Y-101800001D01*
G75*
G02*
X191162501Y-102050000I-249999J0D01*
G01*
X190637499Y-102050000D01*
G75*
G02*
X190387500Y-101800001I0J249999D01*
G01*
G37*
%TD*%
%TO.C,R11*%
G36*
G01*
X162349999Y-125300000D02*
X163250001Y-125300000D01*
G75*
G02*
X163500000Y-125549999I0J-249999D01*
G01*
X163500000Y-126075001D01*
G75*
G02*
X163250001Y-126325000I-249999J0D01*
G01*
X162349999Y-126325000D01*
G75*
G02*
X162100000Y-126075001I0J249999D01*
G01*
X162100000Y-125549999D01*
G75*
G02*
X162349999Y-125300000I249999J0D01*
G01*
G37*
G36*
G01*
X162349999Y-123475000D02*
X163250001Y-123475000D01*
G75*
G02*
X163500000Y-123724999I0J-249999D01*
G01*
X163500000Y-124250001D01*
G75*
G02*
X163250001Y-124500000I-249999J0D01*
G01*
X162349999Y-124500000D01*
G75*
G02*
X162100000Y-124250001I0J249999D01*
G01*
X162100000Y-123724999D01*
G75*
G02*
X162349999Y-123475000I249999J0D01*
G01*
G37*
%TD*%
%TO.C,R10*%
G36*
G01*
X148050001Y-83400000D02*
X147149999Y-83400000D01*
G75*
G02*
X146900000Y-83150001I0J249999D01*
G01*
X146900000Y-82624999D01*
G75*
G02*
X147149999Y-82375000I249999J0D01*
G01*
X148050001Y-82375000D01*
G75*
G02*
X148300000Y-82624999I0J-249999D01*
G01*
X148300000Y-83150001D01*
G75*
G02*
X148050001Y-83400000I-249999J0D01*
G01*
G37*
G36*
G01*
X148050001Y-85225000D02*
X147149999Y-85225000D01*
G75*
G02*
X146900000Y-84975001I0J249999D01*
G01*
X146900000Y-84449999D01*
G75*
G02*
X147149999Y-84200000I249999J0D01*
G01*
X148050001Y-84200000D01*
G75*
G02*
X148300000Y-84449999I0J-249999D01*
G01*
X148300000Y-84975001D01*
G75*
G02*
X148050001Y-85225000I-249999J0D01*
G01*
G37*
%TD*%
%TO.C,R9*%
G36*
G01*
X152512500Y-104250001D02*
X152512500Y-103349999D01*
G75*
G02*
X152762499Y-103100000I249999J0D01*
G01*
X153287501Y-103100000D01*
G75*
G02*
X153537500Y-103349999I0J-249999D01*
G01*
X153537500Y-104250001D01*
G75*
G02*
X153287501Y-104500000I-249999J0D01*
G01*
X152762499Y-104500000D01*
G75*
G02*
X152512500Y-104250001I0J249999D01*
G01*
G37*
G36*
G01*
X150687500Y-104250001D02*
X150687500Y-103349999D01*
G75*
G02*
X150937499Y-103100000I249999J0D01*
G01*
X151462501Y-103100000D01*
G75*
G02*
X151712500Y-103349999I0J-249999D01*
G01*
X151712500Y-104250001D01*
G75*
G02*
X151462501Y-104500000I-249999J0D01*
G01*
X150937499Y-104500000D01*
G75*
G02*
X150687500Y-104250001I0J249999D01*
G01*
G37*
%TD*%
%TO.C,R8*%
G36*
G01*
X167250001Y-87137500D02*
X166349999Y-87137500D01*
G75*
G02*
X166100000Y-86887501I0J249999D01*
G01*
X166100000Y-86362499D01*
G75*
G02*
X166349999Y-86112500I249999J0D01*
G01*
X167250001Y-86112500D01*
G75*
G02*
X167500000Y-86362499I0J-249999D01*
G01*
X167500000Y-86887501D01*
G75*
G02*
X167250001Y-87137500I-249999J0D01*
G01*
G37*
G36*
G01*
X167250001Y-88962500D02*
X166349999Y-88962500D01*
G75*
G02*
X166100000Y-88712501I0J249999D01*
G01*
X166100000Y-88187499D01*
G75*
G02*
X166349999Y-87937500I249999J0D01*
G01*
X167250001Y-87937500D01*
G75*
G02*
X167500000Y-88187499I0J-249999D01*
G01*
X167500000Y-88712501D01*
G75*
G02*
X167250001Y-88962500I-249999J0D01*
G01*
G37*
%TD*%
%TO.C,R7*%
G36*
G01*
X178949999Y-104487500D02*
X179850001Y-104487500D01*
G75*
G02*
X180100000Y-104737499I0J-249999D01*
G01*
X180100000Y-105262501D01*
G75*
G02*
X179850001Y-105512500I-249999J0D01*
G01*
X178949999Y-105512500D01*
G75*
G02*
X178700000Y-105262501I0J249999D01*
G01*
X178700000Y-104737499D01*
G75*
G02*
X178949999Y-104487500I249999J0D01*
G01*
G37*
G36*
G01*
X178949999Y-106312500D02*
X179850001Y-106312500D01*
G75*
G02*
X180100000Y-106562499I0J-249999D01*
G01*
X180100000Y-107087501D01*
G75*
G02*
X179850001Y-107337500I-249999J0D01*
G01*
X178949999Y-107337500D01*
G75*
G02*
X178700000Y-107087501I0J249999D01*
G01*
X178700000Y-106562499D01*
G75*
G02*
X178949999Y-106312500I249999J0D01*
G01*
G37*
%TD*%
%TO.C,R6*%
G36*
G01*
X139349999Y-107262500D02*
X140250001Y-107262500D01*
G75*
G02*
X140500000Y-107512499I0J-249999D01*
G01*
X140500000Y-108037501D01*
G75*
G02*
X140250001Y-108287500I-249999J0D01*
G01*
X139349999Y-108287500D01*
G75*
G02*
X139100000Y-108037501I0J249999D01*
G01*
X139100000Y-107512499D01*
G75*
G02*
X139349999Y-107262500I249999J0D01*
G01*
G37*
G36*
G01*
X139349999Y-109087500D02*
X140250001Y-109087500D01*
G75*
G02*
X140500000Y-109337499I0J-249999D01*
G01*
X140500000Y-109862501D01*
G75*
G02*
X140250001Y-110112500I-249999J0D01*
G01*
X139349999Y-110112500D01*
G75*
G02*
X139100000Y-109862501I0J249999D01*
G01*
X139100000Y-109337499D01*
G75*
G02*
X139349999Y-109087500I249999J0D01*
G01*
G37*
%TD*%
%TO.C,R4*%
G36*
G01*
X153137500Y-111749999D02*
X153137500Y-112650001D01*
G75*
G02*
X152887501Y-112900000I-249999J0D01*
G01*
X152362499Y-112900000D01*
G75*
G02*
X152112500Y-112650001I0J249999D01*
G01*
X152112500Y-111749999D01*
G75*
G02*
X152362499Y-111500000I249999J0D01*
G01*
X152887501Y-111500000D01*
G75*
G02*
X153137500Y-111749999I0J-249999D01*
G01*
G37*
G36*
G01*
X151312500Y-111749999D02*
X151312500Y-112650001D01*
G75*
G02*
X151062501Y-112900000I-249999J0D01*
G01*
X150537499Y-112900000D01*
G75*
G02*
X150287500Y-112650001I0J249999D01*
G01*
X150287500Y-111749999D01*
G75*
G02*
X150537499Y-111500000I249999J0D01*
G01*
X151062501Y-111500000D01*
G75*
G02*
X151312500Y-111749999I0J-249999D01*
G01*
G37*
%TD*%
%TO.C,R3*%
G36*
G01*
X139912500Y-104949999D02*
X139912500Y-105850001D01*
G75*
G02*
X139662501Y-106100000I-249999J0D01*
G01*
X139137499Y-106100000D01*
G75*
G02*
X138887500Y-105850001I0J249999D01*
G01*
X138887500Y-104949999D01*
G75*
G02*
X139137499Y-104700000I249999J0D01*
G01*
X139662501Y-104700000D01*
G75*
G02*
X139912500Y-104949999I0J-249999D01*
G01*
G37*
G36*
G01*
X138087500Y-104949999D02*
X138087500Y-105850001D01*
G75*
G02*
X137837501Y-106100000I-249999J0D01*
G01*
X137312499Y-106100000D01*
G75*
G02*
X137062500Y-105850001I0J249999D01*
G01*
X137062500Y-104949999D01*
G75*
G02*
X137312499Y-104700000I249999J0D01*
G01*
X137837501Y-104700000D01*
G75*
G02*
X138087500Y-104949999I0J-249999D01*
G01*
G37*
%TD*%
%TO.C,R2*%
G36*
G01*
X136949999Y-107262500D02*
X137850001Y-107262500D01*
G75*
G02*
X138100000Y-107512499I0J-249999D01*
G01*
X138100000Y-108037501D01*
G75*
G02*
X137850001Y-108287500I-249999J0D01*
G01*
X136949999Y-108287500D01*
G75*
G02*
X136700000Y-108037501I0J249999D01*
G01*
X136700000Y-107512499D01*
G75*
G02*
X136949999Y-107262500I249999J0D01*
G01*
G37*
G36*
G01*
X136949999Y-109087500D02*
X137850001Y-109087500D01*
G75*
G02*
X138100000Y-109337499I0J-249999D01*
G01*
X138100000Y-109862501D01*
G75*
G02*
X137850001Y-110112500I-249999J0D01*
G01*
X136949999Y-110112500D01*
G75*
G02*
X136700000Y-109862501I0J249999D01*
G01*
X136700000Y-109337499D01*
G75*
G02*
X136949999Y-109087500I249999J0D01*
G01*
G37*
%TD*%
%TO.C,R1*%
G36*
G01*
X153225000Y-109349999D02*
X153225000Y-110250001D01*
G75*
G02*
X152975001Y-110500000I-249999J0D01*
G01*
X152449999Y-110500000D01*
G75*
G02*
X152200000Y-110250001I0J249999D01*
G01*
X152200000Y-109349999D01*
G75*
G02*
X152449999Y-109100000I249999J0D01*
G01*
X152975001Y-109100000D01*
G75*
G02*
X153225000Y-109349999I0J-249999D01*
G01*
G37*
G36*
G01*
X151400000Y-109349999D02*
X151400000Y-110250001D01*
G75*
G02*
X151150001Y-110500000I-249999J0D01*
G01*
X150624999Y-110500000D01*
G75*
G02*
X150375000Y-110250001I0J249999D01*
G01*
X150375000Y-109349999D01*
G75*
G02*
X150624999Y-109100000I249999J0D01*
G01*
X151150001Y-109100000D01*
G75*
G02*
X151400000Y-109349999I0J-249999D01*
G01*
G37*
%TD*%
%TO.C,J8*%
G36*
G01*
X124900000Y-83700000D02*
X127100000Y-83700000D01*
G75*
G02*
X127350000Y-83950000I0J-250000D01*
G01*
X127350000Y-84450000D01*
G75*
G02*
X127100000Y-84700000I-250000J0D01*
G01*
X124900000Y-84700000D01*
G75*
G02*
X124650000Y-84450000I0J250000D01*
G01*
X124650000Y-83950000D01*
G75*
G02*
X124900000Y-83700000I250000J0D01*
G01*
G37*
G36*
G01*
X124900000Y-73750000D02*
X127100000Y-73750000D01*
G75*
G02*
X127350000Y-74000000I0J-250000D01*
G01*
X127350000Y-74500000D01*
G75*
G02*
X127100000Y-74750000I-250000J0D01*
G01*
X124900000Y-74750000D01*
G75*
G02*
X124650000Y-74500000I0J250000D01*
G01*
X124650000Y-74000000D01*
G75*
G02*
X124900000Y-73750000I250000J0D01*
G01*
G37*
G36*
G01*
X128500000Y-82050000D02*
X129900000Y-82050000D01*
G75*
G02*
X130050000Y-82200000I0J-150000D01*
G01*
X130050000Y-82500000D01*
G75*
G02*
X129900000Y-82650000I-150000J0D01*
G01*
X128500000Y-82650000D01*
G75*
G02*
X128350000Y-82500000I0J150000D01*
G01*
X128350000Y-82200000D01*
G75*
G02*
X128500000Y-82050000I150000J0D01*
G01*
G37*
G36*
G01*
X128500000Y-80800000D02*
X129900000Y-80800000D01*
G75*
G02*
X130050000Y-80950000I0J-150000D01*
G01*
X130050000Y-81250000D01*
G75*
G02*
X129900000Y-81400000I-150000J0D01*
G01*
X128500000Y-81400000D01*
G75*
G02*
X128350000Y-81250000I0J150000D01*
G01*
X128350000Y-80950000D01*
G75*
G02*
X128500000Y-80800000I150000J0D01*
G01*
G37*
G36*
G01*
X128500000Y-79550000D02*
X129900000Y-79550000D01*
G75*
G02*
X130050000Y-79700000I0J-150000D01*
G01*
X130050000Y-80000000D01*
G75*
G02*
X129900000Y-80150000I-150000J0D01*
G01*
X128500000Y-80150000D01*
G75*
G02*
X128350000Y-80000000I0J150000D01*
G01*
X128350000Y-79700000D01*
G75*
G02*
X128500000Y-79550000I150000J0D01*
G01*
G37*
G36*
G01*
X128500000Y-78300000D02*
X129900000Y-78300000D01*
G75*
G02*
X130050000Y-78450000I0J-150000D01*
G01*
X130050000Y-78750000D01*
G75*
G02*
X129900000Y-78900000I-150000J0D01*
G01*
X128500000Y-78900000D01*
G75*
G02*
X128350000Y-78750000I0J150000D01*
G01*
X128350000Y-78450000D01*
G75*
G02*
X128500000Y-78300000I150000J0D01*
G01*
G37*
G36*
G01*
X128500000Y-77050000D02*
X129900000Y-77050000D01*
G75*
G02*
X130050000Y-77200000I0J-150000D01*
G01*
X130050000Y-77500000D01*
G75*
G02*
X129900000Y-77650000I-150000J0D01*
G01*
X128500000Y-77650000D01*
G75*
G02*
X128350000Y-77500000I0J150000D01*
G01*
X128350000Y-77200000D01*
G75*
G02*
X128500000Y-77050000I150000J0D01*
G01*
G37*
G36*
G01*
X128500000Y-75800000D02*
X129900000Y-75800000D01*
G75*
G02*
X130050000Y-75950000I0J-150000D01*
G01*
X130050000Y-76250000D01*
G75*
G02*
X129900000Y-76400000I-150000J0D01*
G01*
X128500000Y-76400000D01*
G75*
G02*
X128350000Y-76250000I0J150000D01*
G01*
X128350000Y-75950000D01*
G75*
G02*
X128500000Y-75800000I150000J0D01*
G01*
G37*
%TD*%
D17*
%TO.C,J6*%
X147740000Y-74400000D03*
X147740000Y-70800000D03*
X146470000Y-74400000D03*
X146470000Y-70800000D03*
X145200000Y-74400000D03*
X145200000Y-70800000D03*
X143930000Y-74400000D03*
X143930000Y-70800000D03*
X142660000Y-74400000D03*
X142660000Y-70800000D03*
%TD*%
%TO.C,J5*%
G36*
G01*
X144975000Y-123450000D02*
X144975000Y-125750000D01*
G75*
G02*
X144725000Y-126000000I-250000J0D01*
G01*
X144225000Y-126000000D01*
G75*
G02*
X143975000Y-125750000I0J250000D01*
G01*
X143975000Y-123450000D01*
G75*
G02*
X144225000Y-123200000I250000J0D01*
G01*
X144725000Y-123200000D01*
G75*
G02*
X144975000Y-123450000I0J-250000D01*
G01*
G37*
G36*
G01*
X152425000Y-123450000D02*
X152425000Y-125750000D01*
G75*
G02*
X152175000Y-126000000I-250000J0D01*
G01*
X151675000Y-126000000D01*
G75*
G02*
X151425000Y-125750000I0J250000D01*
G01*
X151425000Y-123450000D01*
G75*
G02*
X151675000Y-123200000I250000J0D01*
G01*
X152175000Y-123200000D01*
G75*
G02*
X152425000Y-123450000I0J-250000D01*
G01*
G37*
G36*
G01*
X146625000Y-120550000D02*
X146625000Y-121950000D01*
G75*
G02*
X146475000Y-122100000I-150000J0D01*
G01*
X146175000Y-122100000D01*
G75*
G02*
X146025000Y-121950000I0J150000D01*
G01*
X146025000Y-120550000D01*
G75*
G02*
X146175000Y-120400000I150000J0D01*
G01*
X146475000Y-120400000D01*
G75*
G02*
X146625000Y-120550000I0J-150000D01*
G01*
G37*
G36*
G01*
X147875000Y-120550000D02*
X147875000Y-121950000D01*
G75*
G02*
X147725000Y-122100000I-150000J0D01*
G01*
X147425000Y-122100000D01*
G75*
G02*
X147275000Y-121950000I0J150000D01*
G01*
X147275000Y-120550000D01*
G75*
G02*
X147425000Y-120400000I150000J0D01*
G01*
X147725000Y-120400000D01*
G75*
G02*
X147875000Y-120550000I0J-150000D01*
G01*
G37*
G36*
G01*
X149125000Y-120550000D02*
X149125000Y-121950000D01*
G75*
G02*
X148975000Y-122100000I-150000J0D01*
G01*
X148675000Y-122100000D01*
G75*
G02*
X148525000Y-121950000I0J150000D01*
G01*
X148525000Y-120550000D01*
G75*
G02*
X148675000Y-120400000I150000J0D01*
G01*
X148975000Y-120400000D01*
G75*
G02*
X149125000Y-120550000I0J-150000D01*
G01*
G37*
G36*
G01*
X150375000Y-120550000D02*
X150375000Y-121950000D01*
G75*
G02*
X150225000Y-122100000I-150000J0D01*
G01*
X149925000Y-122100000D01*
G75*
G02*
X149775000Y-121950000I0J150000D01*
G01*
X149775000Y-120550000D01*
G75*
G02*
X149925000Y-120400000I150000J0D01*
G01*
X150225000Y-120400000D01*
G75*
G02*
X150375000Y-120550000I0J-150000D01*
G01*
G37*
%TD*%
%TO.C,J4*%
G36*
G01*
X192850000Y-90375000D02*
X190650000Y-90375000D01*
G75*
G02*
X190400000Y-90125000I0J250000D01*
G01*
X190400000Y-89625000D01*
G75*
G02*
X190650000Y-89375000I250000J0D01*
G01*
X192850000Y-89375000D01*
G75*
G02*
X193100000Y-89625000I0J-250000D01*
G01*
X193100000Y-90125000D01*
G75*
G02*
X192850000Y-90375000I-250000J0D01*
G01*
G37*
G36*
G01*
X192850000Y-97825000D02*
X190650000Y-97825000D01*
G75*
G02*
X190400000Y-97575000I0J250000D01*
G01*
X190400000Y-97075000D01*
G75*
G02*
X190650000Y-96825000I250000J0D01*
G01*
X192850000Y-96825000D01*
G75*
G02*
X193100000Y-97075000I0J-250000D01*
G01*
X193100000Y-97575000D01*
G75*
G02*
X192850000Y-97825000I-250000J0D01*
G01*
G37*
G36*
G01*
X189250000Y-92025000D02*
X187850000Y-92025000D01*
G75*
G02*
X187700000Y-91875000I0J150000D01*
G01*
X187700000Y-91575000D01*
G75*
G02*
X187850000Y-91425000I150000J0D01*
G01*
X189250000Y-91425000D01*
G75*
G02*
X189400000Y-91575000I0J-150000D01*
G01*
X189400000Y-91875000D01*
G75*
G02*
X189250000Y-92025000I-150000J0D01*
G01*
G37*
G36*
G01*
X189250000Y-93275000D02*
X187850000Y-93275000D01*
G75*
G02*
X187700000Y-93125000I0J150000D01*
G01*
X187700000Y-92825000D01*
G75*
G02*
X187850000Y-92675000I150000J0D01*
G01*
X189250000Y-92675000D01*
G75*
G02*
X189400000Y-92825000I0J-150000D01*
G01*
X189400000Y-93125000D01*
G75*
G02*
X189250000Y-93275000I-150000J0D01*
G01*
G37*
G36*
G01*
X189250000Y-94525000D02*
X187850000Y-94525000D01*
G75*
G02*
X187700000Y-94375000I0J150000D01*
G01*
X187700000Y-94075000D01*
G75*
G02*
X187850000Y-93925000I150000J0D01*
G01*
X189250000Y-93925000D01*
G75*
G02*
X189400000Y-94075000I0J-150000D01*
G01*
X189400000Y-94375000D01*
G75*
G02*
X189250000Y-94525000I-150000J0D01*
G01*
G37*
G36*
G01*
X189250000Y-95775000D02*
X187850000Y-95775000D01*
G75*
G02*
X187700000Y-95625000I0J150000D01*
G01*
X187700000Y-95325000D01*
G75*
G02*
X187850000Y-95175000I150000J0D01*
G01*
X189250000Y-95175000D01*
G75*
G02*
X189400000Y-95325000I0J-150000D01*
G01*
X189400000Y-95625000D01*
G75*
G02*
X189250000Y-95775000I-150000J0D01*
G01*
G37*
%TD*%
%TO.C,J3*%
G36*
G01*
X156650000Y-61100000D02*
X156650000Y-63300000D01*
G75*
G02*
X156400000Y-63550000I-250000J0D01*
G01*
X155900000Y-63550000D01*
G75*
G02*
X155650000Y-63300000I0J250000D01*
G01*
X155650000Y-61100000D01*
G75*
G02*
X155900000Y-60850000I250000J0D01*
G01*
X156400000Y-60850000D01*
G75*
G02*
X156650000Y-61100000I0J-250000D01*
G01*
G37*
G36*
G01*
X164100000Y-61100000D02*
X164100000Y-63300000D01*
G75*
G02*
X163850000Y-63550000I-250000J0D01*
G01*
X163350000Y-63550000D01*
G75*
G02*
X163100000Y-63300000I0J250000D01*
G01*
X163100000Y-61100000D01*
G75*
G02*
X163350000Y-60850000I250000J0D01*
G01*
X163850000Y-60850000D01*
G75*
G02*
X164100000Y-61100000I0J-250000D01*
G01*
G37*
G36*
G01*
X158300000Y-64700000D02*
X158300000Y-66100000D01*
G75*
G02*
X158150000Y-66250000I-150000J0D01*
G01*
X157850000Y-66250000D01*
G75*
G02*
X157700000Y-66100000I0J150000D01*
G01*
X157700000Y-64700000D01*
G75*
G02*
X157850000Y-64550000I150000J0D01*
G01*
X158150000Y-64550000D01*
G75*
G02*
X158300000Y-64700000I0J-150000D01*
G01*
G37*
G36*
G01*
X159550000Y-64700000D02*
X159550000Y-66100000D01*
G75*
G02*
X159400000Y-66250000I-150000J0D01*
G01*
X159100000Y-66250000D01*
G75*
G02*
X158950000Y-66100000I0J150000D01*
G01*
X158950000Y-64700000D01*
G75*
G02*
X159100000Y-64550000I150000J0D01*
G01*
X159400000Y-64550000D01*
G75*
G02*
X159550000Y-64700000I0J-150000D01*
G01*
G37*
G36*
G01*
X160800000Y-64700000D02*
X160800000Y-66100000D01*
G75*
G02*
X160650000Y-66250000I-150000J0D01*
G01*
X160350000Y-66250000D01*
G75*
G02*
X160200000Y-66100000I0J150000D01*
G01*
X160200000Y-64700000D01*
G75*
G02*
X160350000Y-64550000I150000J0D01*
G01*
X160650000Y-64550000D01*
G75*
G02*
X160800000Y-64700000I0J-150000D01*
G01*
G37*
G36*
G01*
X162050000Y-64700000D02*
X162050000Y-66100000D01*
G75*
G02*
X161900000Y-66250000I-150000J0D01*
G01*
X161600000Y-66250000D01*
G75*
G02*
X161450000Y-66100000I0J150000D01*
G01*
X161450000Y-64700000D01*
G75*
G02*
X161600000Y-64550000I150000J0D01*
G01*
X161900000Y-64550000D01*
G75*
G02*
X162050000Y-64700000I0J-150000D01*
G01*
G37*
%TD*%
%TO.C,J2*%
G36*
G01*
X124900000Y-102750000D02*
X127100000Y-102750000D01*
G75*
G02*
X127350000Y-103000000I0J-250000D01*
G01*
X127350000Y-103500000D01*
G75*
G02*
X127100000Y-103750000I-250000J0D01*
G01*
X124900000Y-103750000D01*
G75*
G02*
X124650000Y-103500000I0J250000D01*
G01*
X124650000Y-103000000D01*
G75*
G02*
X124900000Y-102750000I250000J0D01*
G01*
G37*
G36*
G01*
X124900000Y-95300000D02*
X127100000Y-95300000D01*
G75*
G02*
X127350000Y-95550000I0J-250000D01*
G01*
X127350000Y-96050000D01*
G75*
G02*
X127100000Y-96300000I-250000J0D01*
G01*
X124900000Y-96300000D01*
G75*
G02*
X124650000Y-96050000I0J250000D01*
G01*
X124650000Y-95550000D01*
G75*
G02*
X124900000Y-95300000I250000J0D01*
G01*
G37*
G36*
G01*
X128500000Y-101100000D02*
X129900000Y-101100000D01*
G75*
G02*
X130050000Y-101250000I0J-150000D01*
G01*
X130050000Y-101550000D01*
G75*
G02*
X129900000Y-101700000I-150000J0D01*
G01*
X128500000Y-101700000D01*
G75*
G02*
X128350000Y-101550000I0J150000D01*
G01*
X128350000Y-101250000D01*
G75*
G02*
X128500000Y-101100000I150000J0D01*
G01*
G37*
G36*
G01*
X128500000Y-99850000D02*
X129900000Y-99850000D01*
G75*
G02*
X130050000Y-100000000I0J-150000D01*
G01*
X130050000Y-100300000D01*
G75*
G02*
X129900000Y-100450000I-150000J0D01*
G01*
X128500000Y-100450000D01*
G75*
G02*
X128350000Y-100300000I0J150000D01*
G01*
X128350000Y-100000000D01*
G75*
G02*
X128500000Y-99850000I150000J0D01*
G01*
G37*
G36*
G01*
X128500000Y-98600000D02*
X129900000Y-98600000D01*
G75*
G02*
X130050000Y-98750000I0J-150000D01*
G01*
X130050000Y-99050000D01*
G75*
G02*
X129900000Y-99200000I-150000J0D01*
G01*
X128500000Y-99200000D01*
G75*
G02*
X128350000Y-99050000I0J150000D01*
G01*
X128350000Y-98750000D01*
G75*
G02*
X128500000Y-98600000I150000J0D01*
G01*
G37*
G36*
G01*
X128500000Y-97350000D02*
X129900000Y-97350000D01*
G75*
G02*
X130050000Y-97500000I0J-150000D01*
G01*
X130050000Y-97800000D01*
G75*
G02*
X129900000Y-97950000I-150000J0D01*
G01*
X128500000Y-97950000D01*
G75*
G02*
X128350000Y-97800000I0J150000D01*
G01*
X128350000Y-97500000D01*
G75*
G02*
X128500000Y-97350000I150000J0D01*
G01*
G37*
%TD*%
%TO.C,J1*%
G36*
G01*
X173750000Y-125750000D02*
X173750000Y-123550000D01*
G75*
G02*
X174000000Y-123300000I250000J0D01*
G01*
X174500000Y-123300000D01*
G75*
G02*
X174750000Y-123550000I0J-250000D01*
G01*
X174750000Y-125750000D01*
G75*
G02*
X174500000Y-126000000I-250000J0D01*
G01*
X174000000Y-126000000D01*
G75*
G02*
X173750000Y-125750000I0J250000D01*
G01*
G37*
G36*
G01*
X166300000Y-125750000D02*
X166300000Y-123550000D01*
G75*
G02*
X166550000Y-123300000I250000J0D01*
G01*
X167050000Y-123300000D01*
G75*
G02*
X167300000Y-123550000I0J-250000D01*
G01*
X167300000Y-125750000D01*
G75*
G02*
X167050000Y-126000000I-250000J0D01*
G01*
X166550000Y-126000000D01*
G75*
G02*
X166300000Y-125750000I0J250000D01*
G01*
G37*
G36*
G01*
X172100000Y-122150000D02*
X172100000Y-120750000D01*
G75*
G02*
X172250000Y-120600000I150000J0D01*
G01*
X172550000Y-120600000D01*
G75*
G02*
X172700000Y-120750000I0J-150000D01*
G01*
X172700000Y-122150000D01*
G75*
G02*
X172550000Y-122300000I-150000J0D01*
G01*
X172250000Y-122300000D01*
G75*
G02*
X172100000Y-122150000I0J150000D01*
G01*
G37*
G36*
G01*
X170850000Y-122150000D02*
X170850000Y-120750000D01*
G75*
G02*
X171000000Y-120600000I150000J0D01*
G01*
X171300000Y-120600000D01*
G75*
G02*
X171450000Y-120750000I0J-150000D01*
G01*
X171450000Y-122150000D01*
G75*
G02*
X171300000Y-122300000I-150000J0D01*
G01*
X171000000Y-122300000D01*
G75*
G02*
X170850000Y-122150000I0J150000D01*
G01*
G37*
G36*
G01*
X169600000Y-122150000D02*
X169600000Y-120750000D01*
G75*
G02*
X169750000Y-120600000I150000J0D01*
G01*
X170050000Y-120600000D01*
G75*
G02*
X170200000Y-120750000I0J-150000D01*
G01*
X170200000Y-122150000D01*
G75*
G02*
X170050000Y-122300000I-150000J0D01*
G01*
X169750000Y-122300000D01*
G75*
G02*
X169600000Y-122150000I0J150000D01*
G01*
G37*
G36*
G01*
X168350000Y-122150000D02*
X168350000Y-120750000D01*
G75*
G02*
X168500000Y-120600000I150000J0D01*
G01*
X168800000Y-120600000D01*
G75*
G02*
X168950000Y-120750000I0J-150000D01*
G01*
X168950000Y-122150000D01*
G75*
G02*
X168800000Y-122300000I-150000J0D01*
G01*
X168500000Y-122300000D01*
G75*
G02*
X168350000Y-122150000I0J150000D01*
G01*
G37*
%TD*%
%TO.C,D6*%
G36*
G01*
X177200000Y-81456250D02*
X177200000Y-80543750D01*
G75*
G02*
X177443750Y-80300000I243750J0D01*
G01*
X177931250Y-80300000D01*
G75*
G02*
X178175000Y-80543750I0J-243750D01*
G01*
X178175000Y-81456250D01*
G75*
G02*
X177931250Y-81700000I-243750J0D01*
G01*
X177443750Y-81700000D01*
G75*
G02*
X177200000Y-81456250I0J243750D01*
G01*
G37*
G36*
G01*
X175325000Y-81456250D02*
X175325000Y-80543750D01*
G75*
G02*
X175568750Y-80300000I243750J0D01*
G01*
X176056250Y-80300000D01*
G75*
G02*
X176300000Y-80543750I0J-243750D01*
G01*
X176300000Y-81456250D01*
G75*
G02*
X176056250Y-81700000I-243750J0D01*
G01*
X175568750Y-81700000D01*
G75*
G02*
X175325000Y-81456250I0J243750D01*
G01*
G37*
%TD*%
%TO.C,D5*%
G36*
G01*
X166443750Y-66350000D02*
X167356250Y-66350000D01*
G75*
G02*
X167600000Y-66593750I0J-243750D01*
G01*
X167600000Y-67081250D01*
G75*
G02*
X167356250Y-67325000I-243750J0D01*
G01*
X166443750Y-67325000D01*
G75*
G02*
X166200000Y-67081250I0J243750D01*
G01*
X166200000Y-66593750D01*
G75*
G02*
X166443750Y-66350000I243750J0D01*
G01*
G37*
G36*
G01*
X166443750Y-64475000D02*
X167356250Y-64475000D01*
G75*
G02*
X167600000Y-64718750I0J-243750D01*
G01*
X167600000Y-65206250D01*
G75*
G02*
X167356250Y-65450000I-243750J0D01*
G01*
X166443750Y-65450000D01*
G75*
G02*
X166200000Y-65206250I0J243750D01*
G01*
X166200000Y-64718750D01*
G75*
G02*
X166443750Y-64475000I243750J0D01*
G01*
G37*
%TD*%
%TO.C,D4*%
G36*
G01*
X155956250Y-120250000D02*
X155043750Y-120250000D01*
G75*
G02*
X154800000Y-120006250I0J243750D01*
G01*
X154800000Y-119518750D01*
G75*
G02*
X155043750Y-119275000I243750J0D01*
G01*
X155956250Y-119275000D01*
G75*
G02*
X156200000Y-119518750I0J-243750D01*
G01*
X156200000Y-120006250D01*
G75*
G02*
X155956250Y-120250000I-243750J0D01*
G01*
G37*
G36*
G01*
X155956250Y-122125000D02*
X155043750Y-122125000D01*
G75*
G02*
X154800000Y-121881250I0J243750D01*
G01*
X154800000Y-121393750D01*
G75*
G02*
X155043750Y-121150000I243750J0D01*
G01*
X155956250Y-121150000D01*
G75*
G02*
X156200000Y-121393750I0J-243750D01*
G01*
X156200000Y-121881250D01*
G75*
G02*
X155956250Y-122125000I-243750J0D01*
G01*
G37*
%TD*%
%TO.C,D3*%
G36*
G01*
X130112500Y-93006250D02*
X130112500Y-92093750D01*
G75*
G02*
X130356250Y-91850000I243750J0D01*
G01*
X130843750Y-91850000D01*
G75*
G02*
X131087500Y-92093750I0J-243750D01*
G01*
X131087500Y-93006250D01*
G75*
G02*
X130843750Y-93250000I-243750J0D01*
G01*
X130356250Y-93250000D01*
G75*
G02*
X130112500Y-93006250I0J243750D01*
G01*
G37*
G36*
G01*
X128237500Y-93006250D02*
X128237500Y-92093750D01*
G75*
G02*
X128481250Y-91850000I243750J0D01*
G01*
X128968750Y-91850000D01*
G75*
G02*
X129212500Y-92093750I0J-243750D01*
G01*
X129212500Y-93006250D01*
G75*
G02*
X128968750Y-93250000I-243750J0D01*
G01*
X128481250Y-93250000D01*
G75*
G02*
X128237500Y-93006250I0J243750D01*
G01*
G37*
%TD*%
%TO.C,D2*%
G36*
G01*
X187450000Y-100893750D02*
X187450000Y-101806250D01*
G75*
G02*
X187206250Y-102050000I-243750J0D01*
G01*
X186718750Y-102050000D01*
G75*
G02*
X186475000Y-101806250I0J243750D01*
G01*
X186475000Y-100893750D01*
G75*
G02*
X186718750Y-100650000I243750J0D01*
G01*
X187206250Y-100650000D01*
G75*
G02*
X187450000Y-100893750I0J-243750D01*
G01*
G37*
G36*
G01*
X189325000Y-100893750D02*
X189325000Y-101806250D01*
G75*
G02*
X189081250Y-102050000I-243750J0D01*
G01*
X188593750Y-102050000D01*
G75*
G02*
X188350000Y-101806250I0J243750D01*
G01*
X188350000Y-100893750D01*
G75*
G02*
X188593750Y-100650000I243750J0D01*
G01*
X189081250Y-100650000D01*
G75*
G02*
X189325000Y-100893750I0J-243750D01*
G01*
G37*
%TD*%
%TO.C,D1*%
G36*
G01*
X163256250Y-120387500D02*
X162343750Y-120387500D01*
G75*
G02*
X162100000Y-120143750I0J243750D01*
G01*
X162100000Y-119656250D01*
G75*
G02*
X162343750Y-119412500I243750J0D01*
G01*
X163256250Y-119412500D01*
G75*
G02*
X163500000Y-119656250I0J-243750D01*
G01*
X163500000Y-120143750D01*
G75*
G02*
X163256250Y-120387500I-243750J0D01*
G01*
G37*
G36*
G01*
X163256250Y-122262500D02*
X162343750Y-122262500D01*
G75*
G02*
X162100000Y-122018750I0J243750D01*
G01*
X162100000Y-121531250D01*
G75*
G02*
X162343750Y-121287500I243750J0D01*
G01*
X163256250Y-121287500D01*
G75*
G02*
X163500000Y-121531250I0J-243750D01*
G01*
X163500000Y-122018750D01*
G75*
G02*
X163256250Y-122262500I-243750J0D01*
G01*
G37*
%TD*%
%TO.C,C14*%
G36*
G01*
X154125000Y-99550000D02*
X155075000Y-99550000D01*
G75*
G02*
X155325000Y-99800000I0J-250000D01*
G01*
X155325000Y-100300000D01*
G75*
G02*
X155075000Y-100550000I-250000J0D01*
G01*
X154125000Y-100550000D01*
G75*
G02*
X153875000Y-100300000I0J250000D01*
G01*
X153875000Y-99800000D01*
G75*
G02*
X154125000Y-99550000I250000J0D01*
G01*
G37*
G36*
G01*
X154125000Y-97650000D02*
X155075000Y-97650000D01*
G75*
G02*
X155325000Y-97900000I0J-250000D01*
G01*
X155325000Y-98400000D01*
G75*
G02*
X155075000Y-98650000I-250000J0D01*
G01*
X154125000Y-98650000D01*
G75*
G02*
X153875000Y-98400000I0J250000D01*
G01*
X153875000Y-97900000D01*
G75*
G02*
X154125000Y-97650000I250000J0D01*
G01*
G37*
%TD*%
%TO.C,C13*%
G36*
G01*
X151350000Y-101075000D02*
X151350000Y-102025000D01*
G75*
G02*
X151100000Y-102275000I-250000J0D01*
G01*
X150600000Y-102275000D01*
G75*
G02*
X150350000Y-102025000I0J250000D01*
G01*
X150350000Y-101075000D01*
G75*
G02*
X150600000Y-100825000I250000J0D01*
G01*
X151100000Y-100825000D01*
G75*
G02*
X151350000Y-101075000I0J-250000D01*
G01*
G37*
G36*
G01*
X153250000Y-101075000D02*
X153250000Y-102025000D01*
G75*
G02*
X153000000Y-102275000I-250000J0D01*
G01*
X152500000Y-102275000D01*
G75*
G02*
X152250000Y-102025000I0J250000D01*
G01*
X152250000Y-101075000D01*
G75*
G02*
X152500000Y-100825000I250000J0D01*
G01*
X153000000Y-100825000D01*
G75*
G02*
X153250000Y-101075000I0J-250000D01*
G01*
G37*
%TD*%
%TO.C,C12*%
G36*
G01*
X144550000Y-85675000D02*
X144550000Y-84725000D01*
G75*
G02*
X144800000Y-84475000I250000J0D01*
G01*
X145300000Y-84475000D01*
G75*
G02*
X145550000Y-84725000I0J-250000D01*
G01*
X145550000Y-85675000D01*
G75*
G02*
X145300000Y-85925000I-250000J0D01*
G01*
X144800000Y-85925000D01*
G75*
G02*
X144550000Y-85675000I0J250000D01*
G01*
G37*
G36*
G01*
X142650000Y-85675000D02*
X142650000Y-84725000D01*
G75*
G02*
X142900000Y-84475000I250000J0D01*
G01*
X143400000Y-84475000D01*
G75*
G02*
X143650000Y-84725000I0J-250000D01*
G01*
X143650000Y-85675000D01*
G75*
G02*
X143400000Y-85925000I-250000J0D01*
G01*
X142900000Y-85925000D01*
G75*
G02*
X142650000Y-85675000I0J250000D01*
G01*
G37*
%TD*%
%TO.C,C10*%
G36*
G01*
X155525000Y-90000000D02*
X156475000Y-90000000D01*
G75*
G02*
X156725000Y-90250000I0J-250000D01*
G01*
X156725000Y-90750000D01*
G75*
G02*
X156475000Y-91000000I-250000J0D01*
G01*
X155525000Y-91000000D01*
G75*
G02*
X155275000Y-90750000I0J250000D01*
G01*
X155275000Y-90250000D01*
G75*
G02*
X155525000Y-90000000I250000J0D01*
G01*
G37*
G36*
G01*
X155525000Y-88100000D02*
X156475000Y-88100000D01*
G75*
G02*
X156725000Y-88350000I0J-250000D01*
G01*
X156725000Y-88850000D01*
G75*
G02*
X156475000Y-89100000I-250000J0D01*
G01*
X155525000Y-89100000D01*
G75*
G02*
X155275000Y-88850000I0J250000D01*
G01*
X155275000Y-88350000D01*
G75*
G02*
X155525000Y-88100000I250000J0D01*
G01*
G37*
%TD*%
%TO.C,C9*%
G36*
G01*
X152800000Y-85275000D02*
X152800000Y-84325000D01*
G75*
G02*
X153050000Y-84075000I250000J0D01*
G01*
X153550000Y-84075000D01*
G75*
G02*
X153800000Y-84325000I0J-250000D01*
G01*
X153800000Y-85275000D01*
G75*
G02*
X153550000Y-85525000I-250000J0D01*
G01*
X153050000Y-85525000D01*
G75*
G02*
X152800000Y-85275000I0J250000D01*
G01*
G37*
G36*
G01*
X150900000Y-85275000D02*
X150900000Y-84325000D01*
G75*
G02*
X151150000Y-84075000I250000J0D01*
G01*
X151650000Y-84075000D01*
G75*
G02*
X151900000Y-84325000I0J-250000D01*
G01*
X151900000Y-85275000D01*
G75*
G02*
X151650000Y-85525000I-250000J0D01*
G01*
X151150000Y-85525000D01*
G75*
G02*
X150900000Y-85275000I0J250000D01*
G01*
G37*
%TD*%
%TO.C,C8*%
G36*
G01*
X180275000Y-78300000D02*
X179325000Y-78300000D01*
G75*
G02*
X179075000Y-78050000I0J250000D01*
G01*
X179075000Y-77550000D01*
G75*
G02*
X179325000Y-77300000I250000J0D01*
G01*
X180275000Y-77300000D01*
G75*
G02*
X180525000Y-77550000I0J-250000D01*
G01*
X180525000Y-78050000D01*
G75*
G02*
X180275000Y-78300000I-250000J0D01*
G01*
G37*
G36*
G01*
X180275000Y-80200000D02*
X179325000Y-80200000D01*
G75*
G02*
X179075000Y-79950000I0J250000D01*
G01*
X179075000Y-79450000D01*
G75*
G02*
X179325000Y-79200000I250000J0D01*
G01*
X180275000Y-79200000D01*
G75*
G02*
X180525000Y-79450000I0J-250000D01*
G01*
X180525000Y-79950000D01*
G75*
G02*
X180275000Y-80200000I-250000J0D01*
G01*
G37*
%TD*%
%TO.C,C7*%
G36*
G01*
X158875000Y-91100000D02*
X157925000Y-91100000D01*
G75*
G02*
X157675000Y-90850000I0J250000D01*
G01*
X157675000Y-90350000D01*
G75*
G02*
X157925000Y-90100000I250000J0D01*
G01*
X158875000Y-90100000D01*
G75*
G02*
X159125000Y-90350000I0J-250000D01*
G01*
X159125000Y-90850000D01*
G75*
G02*
X158875000Y-91100000I-250000J0D01*
G01*
G37*
G36*
G01*
X158875000Y-93000000D02*
X157925000Y-93000000D01*
G75*
G02*
X157675000Y-92750000I0J250000D01*
G01*
X157675000Y-92250000D01*
G75*
G02*
X157925000Y-92000000I250000J0D01*
G01*
X158875000Y-92000000D01*
G75*
G02*
X159125000Y-92250000I0J-250000D01*
G01*
X159125000Y-92750000D01*
G75*
G02*
X158875000Y-93000000I-250000J0D01*
G01*
G37*
%TD*%
%TO.C,C5*%
G36*
G01*
X164425000Y-99450000D02*
X165375000Y-99450000D01*
G75*
G02*
X165625000Y-99700000I0J-250000D01*
G01*
X165625000Y-100200000D01*
G75*
G02*
X165375000Y-100450000I-250000J0D01*
G01*
X164425000Y-100450000D01*
G75*
G02*
X164175000Y-100200000I0J250000D01*
G01*
X164175000Y-99700000D01*
G75*
G02*
X164425000Y-99450000I250000J0D01*
G01*
G37*
G36*
G01*
X164425000Y-97550000D02*
X165375000Y-97550000D01*
G75*
G02*
X165625000Y-97800000I0J-250000D01*
G01*
X165625000Y-98300000D01*
G75*
G02*
X165375000Y-98550000I-250000J0D01*
G01*
X164425000Y-98550000D01*
G75*
G02*
X164175000Y-98300000I0J250000D01*
G01*
X164175000Y-97800000D01*
G75*
G02*
X164425000Y-97550000I250000J0D01*
G01*
G37*
%TD*%
%TO.C,C4*%
G36*
G01*
X156925000Y-99450000D02*
X157875000Y-99450000D01*
G75*
G02*
X158125000Y-99700000I0J-250000D01*
G01*
X158125000Y-100200000D01*
G75*
G02*
X157875000Y-100450000I-250000J0D01*
G01*
X156925000Y-100450000D01*
G75*
G02*
X156675000Y-100200000I0J250000D01*
G01*
X156675000Y-99700000D01*
G75*
G02*
X156925000Y-99450000I250000J0D01*
G01*
G37*
G36*
G01*
X156925000Y-97550000D02*
X157875000Y-97550000D01*
G75*
G02*
X158125000Y-97800000I0J-250000D01*
G01*
X158125000Y-98300000D01*
G75*
G02*
X157875000Y-98550000I-250000J0D01*
G01*
X156925000Y-98550000D01*
G75*
G02*
X156675000Y-98300000I0J250000D01*
G01*
X156675000Y-97800000D01*
G75*
G02*
X156925000Y-97550000I250000J0D01*
G01*
G37*
%TD*%
%TO.C,C3*%
G36*
G01*
X168250000Y-83425000D02*
X168250000Y-82475000D01*
G75*
G02*
X168500000Y-82225000I250000J0D01*
G01*
X169000000Y-82225000D01*
G75*
G02*
X169250000Y-82475000I0J-250000D01*
G01*
X169250000Y-83425000D01*
G75*
G02*
X169000000Y-83675000I-250000J0D01*
G01*
X168500000Y-83675000D01*
G75*
G02*
X168250000Y-83425000I0J250000D01*
G01*
G37*
G36*
G01*
X166350000Y-83425000D02*
X166350000Y-82475000D01*
G75*
G02*
X166600000Y-82225000I250000J0D01*
G01*
X167100000Y-82225000D01*
G75*
G02*
X167350000Y-82475000I0J-250000D01*
G01*
X167350000Y-83425000D01*
G75*
G02*
X167100000Y-83675000I-250000J0D01*
G01*
X166600000Y-83675000D01*
G75*
G02*
X166350000Y-83425000I0J250000D01*
G01*
G37*
%TD*%
%TO.C,C2*%
G36*
G01*
X168200000Y-92925000D02*
X168200000Y-91975000D01*
G75*
G02*
X168450000Y-91725000I250000J0D01*
G01*
X168950000Y-91725000D01*
G75*
G02*
X169200000Y-91975000I0J-250000D01*
G01*
X169200000Y-92925000D01*
G75*
G02*
X168950000Y-93175000I-250000J0D01*
G01*
X168450000Y-93175000D01*
G75*
G02*
X168200000Y-92925000I0J250000D01*
G01*
G37*
G36*
G01*
X166300000Y-92925000D02*
X166300000Y-91975000D01*
G75*
G02*
X166550000Y-91725000I250000J0D01*
G01*
X167050000Y-91725000D01*
G75*
G02*
X167300000Y-91975000I0J-250000D01*
G01*
X167300000Y-92925000D01*
G75*
G02*
X167050000Y-93175000I-250000J0D01*
G01*
X166550000Y-93175000D01*
G75*
G02*
X166300000Y-92925000I0J250000D01*
G01*
G37*
%TD*%
%TO.C,C1*%
G36*
G01*
X142350000Y-112075000D02*
X142350000Y-111125000D01*
G75*
G02*
X142600000Y-110875000I250000J0D01*
G01*
X143100000Y-110875000D01*
G75*
G02*
X143350000Y-111125000I0J-250000D01*
G01*
X143350000Y-112075000D01*
G75*
G02*
X143100000Y-112325000I-250000J0D01*
G01*
X142600000Y-112325000D01*
G75*
G02*
X142350000Y-112075000I0J250000D01*
G01*
G37*
G36*
G01*
X144250000Y-112075000D02*
X144250000Y-111125000D01*
G75*
G02*
X144500000Y-110875000I250000J0D01*
G01*
X145000000Y-110875000D01*
G75*
G02*
X145250000Y-111125000I0J-250000D01*
G01*
X145250000Y-112075000D01*
G75*
G02*
X145000000Y-112325000I-250000J0D01*
G01*
X144500000Y-112325000D01*
G75*
G02*
X144250000Y-112075000I0J250000D01*
G01*
G37*
%TD*%
%TO.C,R17*%
G36*
G01*
X174050001Y-74137500D02*
X173149999Y-74137500D01*
G75*
G02*
X172900000Y-73887501I0J249999D01*
G01*
X172900000Y-73362499D01*
G75*
G02*
X173149999Y-73112500I249999J0D01*
G01*
X174050001Y-73112500D01*
G75*
G02*
X174300000Y-73362499I0J-249999D01*
G01*
X174300000Y-73887501D01*
G75*
G02*
X174050001Y-74137500I-249999J0D01*
G01*
G37*
G36*
G01*
X174050001Y-72312500D02*
X173149999Y-72312500D01*
G75*
G02*
X172900000Y-72062501I0J249999D01*
G01*
X172900000Y-71537499D01*
G75*
G02*
X173149999Y-71287500I249999J0D01*
G01*
X174050001Y-71287500D01*
G75*
G02*
X174300000Y-71537499I0J-249999D01*
G01*
X174300000Y-72062501D01*
G75*
G02*
X174050001Y-72312500I-249999J0D01*
G01*
G37*
%TD*%
M02*
