%TF.GenerationSoftware,KiCad,Pcbnew,(5.1.9-0-10_14)*%
%TF.CreationDate,2021-04-28T14:39:26+08:00*%
%TF.ProjectId,TPT_PCB,5450545f-5043-4422-9e6b-696361645f70,rev?*%
%TF.SameCoordinates,Original*%
%TF.FileFunction,Copper,L1,Top*%
%TF.FilePolarity,Positive*%
%FSLAX46Y46*%
G04 Gerber Fmt 4.6, Leading zero omitted, Abs format (unit mm)*
G04 Created by KiCad (PCBNEW (5.1.9-0-10_14)) date 2021-04-28 14:39:26*
%MOMM*%
%LPD*%
G01*
G04 APERTURE LIST*
%TA.AperFunction,SMDPad,CuDef*%
%ADD10R,2.500000X2.500000*%
%TD*%
%TA.AperFunction,SMDPad,CuDef*%
%ADD11R,1.000000X2.500000*%
%TD*%
%TA.AperFunction,SMDPad,CuDef*%
%ADD12R,2.100000X5.600000*%
%TD*%
%TA.AperFunction,SMDPad,CuDef*%
%ADD13R,0.650000X1.220000*%
%TD*%
%TA.AperFunction,SMDPad,CuDef*%
%ADD14R,1.550000X1.300000*%
%TD*%
%TA.AperFunction,ComponentPad*%
%ADD15C,2.400000*%
%TD*%
%TA.AperFunction,ComponentPad*%
%ADD16R,2.400000X2.400000*%
%TD*%
%TA.AperFunction,SMDPad,CuDef*%
%ADD17R,0.750000X2.100000*%
%TD*%
%TA.AperFunction,ComponentPad*%
%ADD18C,0.900000*%
%TD*%
%TA.AperFunction,ComponentPad*%
%ADD19C,8.600000*%
%TD*%
%TA.AperFunction,ViaPad*%
%ADD20C,0.800000*%
%TD*%
%TA.AperFunction,Conductor*%
%ADD21C,0.500000*%
%TD*%
%TA.AperFunction,Conductor*%
%ADD22C,0.750000*%
%TD*%
%TA.AperFunction,Conductor*%
%ADD23C,1.000000*%
%TD*%
%TA.AperFunction,Conductor*%
%ADD24C,0.300000*%
%TD*%
G04 APERTURE END LIST*
%TO.P,C6,2*%
%TO.N,GND*%
%TA.AperFunction,SMDPad,CuDef*%
G36*
G01*
X178600000Y-72525000D02*
X178600000Y-73475000D01*
G75*
G02*
X178350000Y-73725000I-250000J0D01*
G01*
X177850000Y-73725000D01*
G75*
G02*
X177600000Y-73475000I0J250000D01*
G01*
X177600000Y-72525000D01*
G75*
G02*
X177850000Y-72275000I250000J0D01*
G01*
X178350000Y-72275000D01*
G75*
G02*
X178600000Y-72525000I0J-250000D01*
G01*
G37*
%TD.AperFunction*%
%TO.P,C6,1*%
%TO.N,+5V*%
%TA.AperFunction,SMDPad,CuDef*%
G36*
G01*
X180500000Y-72525000D02*
X180500000Y-73475000D01*
G75*
G02*
X180250000Y-73725000I-250000J0D01*
G01*
X179750000Y-73725000D01*
G75*
G02*
X179500000Y-73475000I0J250000D01*
G01*
X179500000Y-72525000D01*
G75*
G02*
X179750000Y-72275000I250000J0D01*
G01*
X180250000Y-72275000D01*
G75*
G02*
X180500000Y-72525000I0J-250000D01*
G01*
G37*
%TD.AperFunction*%
%TD*%
%TO.P,C11,2*%
%TO.N,GND*%
%TA.AperFunction,SMDPad,CuDef*%
G36*
G01*
X140675000Y-97350000D02*
X139725000Y-97350000D01*
G75*
G02*
X139475000Y-97100000I0J250000D01*
G01*
X139475000Y-96600000D01*
G75*
G02*
X139725000Y-96350000I250000J0D01*
G01*
X140675000Y-96350000D01*
G75*
G02*
X140925000Y-96600000I0J-250000D01*
G01*
X140925000Y-97100000D01*
G75*
G02*
X140675000Y-97350000I-250000J0D01*
G01*
G37*
%TD.AperFunction*%
%TO.P,C11,1*%
%TO.N,+3V3*%
%TA.AperFunction,SMDPad,CuDef*%
G36*
G01*
X140675000Y-99250000D02*
X139725000Y-99250000D01*
G75*
G02*
X139475000Y-99000000I0J250000D01*
G01*
X139475000Y-98500000D01*
G75*
G02*
X139725000Y-98250000I250000J0D01*
G01*
X140675000Y-98250000D01*
G75*
G02*
X140925000Y-98500000I0J-250000D01*
G01*
X140925000Y-99000000D01*
G75*
G02*
X140675000Y-99250000I-250000J0D01*
G01*
G37*
%TD.AperFunction*%
%TD*%
%TO.P,R5,1*%
%TO.N,Net-(R5-Pad1)*%
%TA.AperFunction,SMDPad,CuDef*%
G36*
G01*
X146287500Y-112650001D02*
X146287500Y-111749999D01*
G75*
G02*
X146537499Y-111500000I249999J0D01*
G01*
X147062501Y-111500000D01*
G75*
G02*
X147312500Y-111749999I0J-249999D01*
G01*
X147312500Y-112650001D01*
G75*
G02*
X147062501Y-112900000I-249999J0D01*
G01*
X146537499Y-112900000D01*
G75*
G02*
X146287500Y-112650001I0J249999D01*
G01*
G37*
%TD.AperFunction*%
%TO.P,R5,2*%
%TO.N,GND*%
%TA.AperFunction,SMDPad,CuDef*%
G36*
G01*
X148112500Y-112650001D02*
X148112500Y-111749999D01*
G75*
G02*
X148362499Y-111500000I249999J0D01*
G01*
X148887501Y-111500000D01*
G75*
G02*
X149137500Y-111749999I0J-249999D01*
G01*
X149137500Y-112650001D01*
G75*
G02*
X148887501Y-112900000I-249999J0D01*
G01*
X148362499Y-112900000D01*
G75*
G02*
X148112500Y-112650001I0J249999D01*
G01*
G37*
%TD.AperFunction*%
%TD*%
D10*
%TO.P,Y2,3*%
%TO.N,N/C*%
X161150000Y-106425000D03*
D11*
%TO.P,Y2,1*%
%TO.N,/OSC32_IN*%
X159900000Y-98675000D03*
%TO.P,Y2,2*%
%TO.N,/OSC32_OUT*%
X162400000Y-98675000D03*
%TD*%
D12*
%TO.P,Y1,1*%
%TO.N,/OSC_IN*%
X162600000Y-92400000D03*
%TO.P,Y1,2*%
%TO.N,/OSC_OUT*%
X162600000Y-82900000D03*
%TD*%
%TO.P,U3,64*%
%TO.N,+3V3*%
%TA.AperFunction,SMDPad,CuDef*%
G36*
G01*
X151950000Y-98025000D02*
X151950000Y-99425000D01*
G75*
G02*
X151875000Y-99500000I-75000J0D01*
G01*
X151725000Y-99500000D01*
G75*
G02*
X151650000Y-99425000I0J75000D01*
G01*
X151650000Y-98025000D01*
G75*
G02*
X151725000Y-97950000I75000J0D01*
G01*
X151875000Y-97950000D01*
G75*
G02*
X151950000Y-98025000I0J-75000D01*
G01*
G37*
%TD.AperFunction*%
%TO.P,U3,63*%
%TO.N,GND*%
%TA.AperFunction,SMDPad,CuDef*%
G36*
G01*
X151450000Y-98025000D02*
X151450000Y-99425000D01*
G75*
G02*
X151375000Y-99500000I-75000J0D01*
G01*
X151225000Y-99500000D01*
G75*
G02*
X151150000Y-99425000I0J75000D01*
G01*
X151150000Y-98025000D01*
G75*
G02*
X151225000Y-97950000I75000J0D01*
G01*
X151375000Y-97950000D01*
G75*
G02*
X151450000Y-98025000I0J-75000D01*
G01*
G37*
%TD.AperFunction*%
%TO.P,U3,62*%
%TO.N,Net-(U3-Pad62)*%
%TA.AperFunction,SMDPad,CuDef*%
G36*
G01*
X150950000Y-98025000D02*
X150950000Y-99425000D01*
G75*
G02*
X150875000Y-99500000I-75000J0D01*
G01*
X150725000Y-99500000D01*
G75*
G02*
X150650000Y-99425000I0J75000D01*
G01*
X150650000Y-98025000D01*
G75*
G02*
X150725000Y-97950000I75000J0D01*
G01*
X150875000Y-97950000D01*
G75*
G02*
X150950000Y-98025000I0J-75000D01*
G01*
G37*
%TD.AperFunction*%
%TO.P,U3,61*%
%TO.N,Net-(U3-Pad61)*%
%TA.AperFunction,SMDPad,CuDef*%
G36*
G01*
X150450000Y-98025000D02*
X150450000Y-99425000D01*
G75*
G02*
X150375000Y-99500000I-75000J0D01*
G01*
X150225000Y-99500000D01*
G75*
G02*
X150150000Y-99425000I0J75000D01*
G01*
X150150000Y-98025000D01*
G75*
G02*
X150225000Y-97950000I75000J0D01*
G01*
X150375000Y-97950000D01*
G75*
G02*
X150450000Y-98025000I0J-75000D01*
G01*
G37*
%TD.AperFunction*%
%TO.P,U3,60*%
%TO.N,/BOOT0*%
%TA.AperFunction,SMDPad,CuDef*%
G36*
G01*
X149950000Y-98025000D02*
X149950000Y-99425000D01*
G75*
G02*
X149875000Y-99500000I-75000J0D01*
G01*
X149725000Y-99500000D01*
G75*
G02*
X149650000Y-99425000I0J75000D01*
G01*
X149650000Y-98025000D01*
G75*
G02*
X149725000Y-97950000I75000J0D01*
G01*
X149875000Y-97950000D01*
G75*
G02*
X149950000Y-98025000I0J-75000D01*
G01*
G37*
%TD.AperFunction*%
%TO.P,U3,59*%
%TO.N,Master_SDA*%
%TA.AperFunction,SMDPad,CuDef*%
G36*
G01*
X149450000Y-98025000D02*
X149450000Y-99425000D01*
G75*
G02*
X149375000Y-99500000I-75000J0D01*
G01*
X149225000Y-99500000D01*
G75*
G02*
X149150000Y-99425000I0J75000D01*
G01*
X149150000Y-98025000D01*
G75*
G02*
X149225000Y-97950000I75000J0D01*
G01*
X149375000Y-97950000D01*
G75*
G02*
X149450000Y-98025000I0J-75000D01*
G01*
G37*
%TD.AperFunction*%
%TO.P,U3,58*%
%TO.N,Master_SCL*%
%TA.AperFunction,SMDPad,CuDef*%
G36*
G01*
X148950000Y-98025000D02*
X148950000Y-99425000D01*
G75*
G02*
X148875000Y-99500000I-75000J0D01*
G01*
X148725000Y-99500000D01*
G75*
G02*
X148650000Y-99425000I0J75000D01*
G01*
X148650000Y-98025000D01*
G75*
G02*
X148725000Y-97950000I75000J0D01*
G01*
X148875000Y-97950000D01*
G75*
G02*
X148950000Y-98025000I0J-75000D01*
G01*
G37*
%TD.AperFunction*%
%TO.P,U3,57*%
%TO.N,Net-(U3-Pad57)*%
%TA.AperFunction,SMDPad,CuDef*%
G36*
G01*
X148450000Y-98025000D02*
X148450000Y-99425000D01*
G75*
G02*
X148375000Y-99500000I-75000J0D01*
G01*
X148225000Y-99500000D01*
G75*
G02*
X148150000Y-99425000I0J75000D01*
G01*
X148150000Y-98025000D01*
G75*
G02*
X148225000Y-97950000I75000J0D01*
G01*
X148375000Y-97950000D01*
G75*
G02*
X148450000Y-98025000I0J-75000D01*
G01*
G37*
%TD.AperFunction*%
%TO.P,U3,56*%
%TO.N,Net-(U3-Pad56)*%
%TA.AperFunction,SMDPad,CuDef*%
G36*
G01*
X147950000Y-98025000D02*
X147950000Y-99425000D01*
G75*
G02*
X147875000Y-99500000I-75000J0D01*
G01*
X147725000Y-99500000D01*
G75*
G02*
X147650000Y-99425000I0J75000D01*
G01*
X147650000Y-98025000D01*
G75*
G02*
X147725000Y-97950000I75000J0D01*
G01*
X147875000Y-97950000D01*
G75*
G02*
X147950000Y-98025000I0J-75000D01*
G01*
G37*
%TD.AperFunction*%
%TO.P,U3,55*%
%TO.N,/SWO*%
%TA.AperFunction,SMDPad,CuDef*%
G36*
G01*
X147450000Y-98025000D02*
X147450000Y-99425000D01*
G75*
G02*
X147375000Y-99500000I-75000J0D01*
G01*
X147225000Y-99500000D01*
G75*
G02*
X147150000Y-99425000I0J75000D01*
G01*
X147150000Y-98025000D01*
G75*
G02*
X147225000Y-97950000I75000J0D01*
G01*
X147375000Y-97950000D01*
G75*
G02*
X147450000Y-98025000I0J-75000D01*
G01*
G37*
%TD.AperFunction*%
%TO.P,U3,54*%
%TO.N,Net-(U3-Pad54)*%
%TA.AperFunction,SMDPad,CuDef*%
G36*
G01*
X146950000Y-98025000D02*
X146950000Y-99425000D01*
G75*
G02*
X146875000Y-99500000I-75000J0D01*
G01*
X146725000Y-99500000D01*
G75*
G02*
X146650000Y-99425000I0J75000D01*
G01*
X146650000Y-98025000D01*
G75*
G02*
X146725000Y-97950000I75000J0D01*
G01*
X146875000Y-97950000D01*
G75*
G02*
X146950000Y-98025000I0J-75000D01*
G01*
G37*
%TD.AperFunction*%
%TO.P,U3,53*%
%TO.N,Net-(U3-Pad53)*%
%TA.AperFunction,SMDPad,CuDef*%
G36*
G01*
X146450000Y-98025000D02*
X146450000Y-99425000D01*
G75*
G02*
X146375000Y-99500000I-75000J0D01*
G01*
X146225000Y-99500000D01*
G75*
G02*
X146150000Y-99425000I0J75000D01*
G01*
X146150000Y-98025000D01*
G75*
G02*
X146225000Y-97950000I75000J0D01*
G01*
X146375000Y-97950000D01*
G75*
G02*
X146450000Y-98025000I0J-75000D01*
G01*
G37*
%TD.AperFunction*%
%TO.P,U3,52*%
%TO.N,Net-(U3-Pad52)*%
%TA.AperFunction,SMDPad,CuDef*%
G36*
G01*
X145950000Y-98025000D02*
X145950000Y-99425000D01*
G75*
G02*
X145875000Y-99500000I-75000J0D01*
G01*
X145725000Y-99500000D01*
G75*
G02*
X145650000Y-99425000I0J75000D01*
G01*
X145650000Y-98025000D01*
G75*
G02*
X145725000Y-97950000I75000J0D01*
G01*
X145875000Y-97950000D01*
G75*
G02*
X145950000Y-98025000I0J-75000D01*
G01*
G37*
%TD.AperFunction*%
%TO.P,U3,51*%
%TO.N,Net-(U3-Pad51)*%
%TA.AperFunction,SMDPad,CuDef*%
G36*
G01*
X145450000Y-98025000D02*
X145450000Y-99425000D01*
G75*
G02*
X145375000Y-99500000I-75000J0D01*
G01*
X145225000Y-99500000D01*
G75*
G02*
X145150000Y-99425000I0J75000D01*
G01*
X145150000Y-98025000D01*
G75*
G02*
X145225000Y-97950000I75000J0D01*
G01*
X145375000Y-97950000D01*
G75*
G02*
X145450000Y-98025000I0J-75000D01*
G01*
G37*
%TD.AperFunction*%
%TO.P,U3,50*%
%TO.N,Net-(U3-Pad50)*%
%TA.AperFunction,SMDPad,CuDef*%
G36*
G01*
X144950000Y-98025000D02*
X144950000Y-99425000D01*
G75*
G02*
X144875000Y-99500000I-75000J0D01*
G01*
X144725000Y-99500000D01*
G75*
G02*
X144650000Y-99425000I0J75000D01*
G01*
X144650000Y-98025000D01*
G75*
G02*
X144725000Y-97950000I75000J0D01*
G01*
X144875000Y-97950000D01*
G75*
G02*
X144950000Y-98025000I0J-75000D01*
G01*
G37*
%TD.AperFunction*%
%TO.P,U3,49*%
%TO.N,/SWCLK*%
%TA.AperFunction,SMDPad,CuDef*%
G36*
G01*
X144450000Y-98025000D02*
X144450000Y-99425000D01*
G75*
G02*
X144375000Y-99500000I-75000J0D01*
G01*
X144225000Y-99500000D01*
G75*
G02*
X144150000Y-99425000I0J75000D01*
G01*
X144150000Y-98025000D01*
G75*
G02*
X144225000Y-97950000I75000J0D01*
G01*
X144375000Y-97950000D01*
G75*
G02*
X144450000Y-98025000I0J-75000D01*
G01*
G37*
%TD.AperFunction*%
%TO.P,U3,48*%
%TO.N,+3V3*%
%TA.AperFunction,SMDPad,CuDef*%
G36*
G01*
X143150000Y-96725000D02*
X143150000Y-96875000D01*
G75*
G02*
X143075000Y-96950000I-75000J0D01*
G01*
X141675000Y-96950000D01*
G75*
G02*
X141600000Y-96875000I0J75000D01*
G01*
X141600000Y-96725000D01*
G75*
G02*
X141675000Y-96650000I75000J0D01*
G01*
X143075000Y-96650000D01*
G75*
G02*
X143150000Y-96725000I0J-75000D01*
G01*
G37*
%TD.AperFunction*%
%TO.P,U3,47*%
%TO.N,GND*%
%TA.AperFunction,SMDPad,CuDef*%
G36*
G01*
X143150000Y-96225000D02*
X143150000Y-96375000D01*
G75*
G02*
X143075000Y-96450000I-75000J0D01*
G01*
X141675000Y-96450000D01*
G75*
G02*
X141600000Y-96375000I0J75000D01*
G01*
X141600000Y-96225000D01*
G75*
G02*
X141675000Y-96150000I75000J0D01*
G01*
X143075000Y-96150000D01*
G75*
G02*
X143150000Y-96225000I0J-75000D01*
G01*
G37*
%TD.AperFunction*%
%TO.P,U3,46*%
%TO.N,/SWDIO*%
%TA.AperFunction,SMDPad,CuDef*%
G36*
G01*
X143150000Y-95725000D02*
X143150000Y-95875000D01*
G75*
G02*
X143075000Y-95950000I-75000J0D01*
G01*
X141675000Y-95950000D01*
G75*
G02*
X141600000Y-95875000I0J75000D01*
G01*
X141600000Y-95725000D01*
G75*
G02*
X141675000Y-95650000I75000J0D01*
G01*
X143075000Y-95650000D01*
G75*
G02*
X143150000Y-95725000I0J-75000D01*
G01*
G37*
%TD.AperFunction*%
%TO.P,U3,45*%
%TO.N,Net-(U3-Pad45)*%
%TA.AperFunction,SMDPad,CuDef*%
G36*
G01*
X143150000Y-95225000D02*
X143150000Y-95375000D01*
G75*
G02*
X143075000Y-95450000I-75000J0D01*
G01*
X141675000Y-95450000D01*
G75*
G02*
X141600000Y-95375000I0J75000D01*
G01*
X141600000Y-95225000D01*
G75*
G02*
X141675000Y-95150000I75000J0D01*
G01*
X143075000Y-95150000D01*
G75*
G02*
X143150000Y-95225000I0J-75000D01*
G01*
G37*
%TD.AperFunction*%
%TO.P,U3,44*%
%TO.N,Net-(U3-Pad44)*%
%TA.AperFunction,SMDPad,CuDef*%
G36*
G01*
X143150000Y-94725000D02*
X143150000Y-94875000D01*
G75*
G02*
X143075000Y-94950000I-75000J0D01*
G01*
X141675000Y-94950000D01*
G75*
G02*
X141600000Y-94875000I0J75000D01*
G01*
X141600000Y-94725000D01*
G75*
G02*
X141675000Y-94650000I75000J0D01*
G01*
X143075000Y-94650000D01*
G75*
G02*
X143150000Y-94725000I0J-75000D01*
G01*
G37*
%TD.AperFunction*%
%TO.P,U3,43*%
%TO.N,/UART1_RX*%
%TA.AperFunction,SMDPad,CuDef*%
G36*
G01*
X143150000Y-94225000D02*
X143150000Y-94375000D01*
G75*
G02*
X143075000Y-94450000I-75000J0D01*
G01*
X141675000Y-94450000D01*
G75*
G02*
X141600000Y-94375000I0J75000D01*
G01*
X141600000Y-94225000D01*
G75*
G02*
X141675000Y-94150000I75000J0D01*
G01*
X143075000Y-94150000D01*
G75*
G02*
X143150000Y-94225000I0J-75000D01*
G01*
G37*
%TD.AperFunction*%
%TO.P,U3,42*%
%TO.N,/UART1_TX*%
%TA.AperFunction,SMDPad,CuDef*%
G36*
G01*
X143150000Y-93725000D02*
X143150000Y-93875000D01*
G75*
G02*
X143075000Y-93950000I-75000J0D01*
G01*
X141675000Y-93950000D01*
G75*
G02*
X141600000Y-93875000I0J75000D01*
G01*
X141600000Y-93725000D01*
G75*
G02*
X141675000Y-93650000I75000J0D01*
G01*
X143075000Y-93650000D01*
G75*
G02*
X143150000Y-93725000I0J-75000D01*
G01*
G37*
%TD.AperFunction*%
%TO.P,U3,41*%
%TO.N,Net-(U3-Pad41)*%
%TA.AperFunction,SMDPad,CuDef*%
G36*
G01*
X143150000Y-93225000D02*
X143150000Y-93375000D01*
G75*
G02*
X143075000Y-93450000I-75000J0D01*
G01*
X141675000Y-93450000D01*
G75*
G02*
X141600000Y-93375000I0J75000D01*
G01*
X141600000Y-93225000D01*
G75*
G02*
X141675000Y-93150000I75000J0D01*
G01*
X143075000Y-93150000D01*
G75*
G02*
X143150000Y-93225000I0J-75000D01*
G01*
G37*
%TD.AperFunction*%
%TO.P,U3,40*%
%TO.N,Net-(U3-Pad40)*%
%TA.AperFunction,SMDPad,CuDef*%
G36*
G01*
X143150000Y-92725000D02*
X143150000Y-92875000D01*
G75*
G02*
X143075000Y-92950000I-75000J0D01*
G01*
X141675000Y-92950000D01*
G75*
G02*
X141600000Y-92875000I0J75000D01*
G01*
X141600000Y-92725000D01*
G75*
G02*
X141675000Y-92650000I75000J0D01*
G01*
X143075000Y-92650000D01*
G75*
G02*
X143150000Y-92725000I0J-75000D01*
G01*
G37*
%TD.AperFunction*%
%TO.P,U3,39*%
%TO.N,Net-(U3-Pad39)*%
%TA.AperFunction,SMDPad,CuDef*%
G36*
G01*
X143150000Y-92225000D02*
X143150000Y-92375000D01*
G75*
G02*
X143075000Y-92450000I-75000J0D01*
G01*
X141675000Y-92450000D01*
G75*
G02*
X141600000Y-92375000I0J75000D01*
G01*
X141600000Y-92225000D01*
G75*
G02*
X141675000Y-92150000I75000J0D01*
G01*
X143075000Y-92150000D01*
G75*
G02*
X143150000Y-92225000I0J-75000D01*
G01*
G37*
%TD.AperFunction*%
%TO.P,U3,38*%
%TO.N,Net-(U3-Pad38)*%
%TA.AperFunction,SMDPad,CuDef*%
G36*
G01*
X143150000Y-91725000D02*
X143150000Y-91875000D01*
G75*
G02*
X143075000Y-91950000I-75000J0D01*
G01*
X141675000Y-91950000D01*
G75*
G02*
X141600000Y-91875000I0J75000D01*
G01*
X141600000Y-91725000D01*
G75*
G02*
X141675000Y-91650000I75000J0D01*
G01*
X143075000Y-91650000D01*
G75*
G02*
X143150000Y-91725000I0J-75000D01*
G01*
G37*
%TD.AperFunction*%
%TO.P,U3,37*%
%TO.N,Net-(U3-Pad37)*%
%TA.AperFunction,SMDPad,CuDef*%
G36*
G01*
X143150000Y-91225000D02*
X143150000Y-91375000D01*
G75*
G02*
X143075000Y-91450000I-75000J0D01*
G01*
X141675000Y-91450000D01*
G75*
G02*
X141600000Y-91375000I0J75000D01*
G01*
X141600000Y-91225000D01*
G75*
G02*
X141675000Y-91150000I75000J0D01*
G01*
X143075000Y-91150000D01*
G75*
G02*
X143150000Y-91225000I0J-75000D01*
G01*
G37*
%TD.AperFunction*%
%TO.P,U3,36*%
%TO.N,Net-(U3-Pad36)*%
%TA.AperFunction,SMDPad,CuDef*%
G36*
G01*
X143150000Y-90725000D02*
X143150000Y-90875000D01*
G75*
G02*
X143075000Y-90950000I-75000J0D01*
G01*
X141675000Y-90950000D01*
G75*
G02*
X141600000Y-90875000I0J75000D01*
G01*
X141600000Y-90725000D01*
G75*
G02*
X141675000Y-90650000I75000J0D01*
G01*
X143075000Y-90650000D01*
G75*
G02*
X143150000Y-90725000I0J-75000D01*
G01*
G37*
%TD.AperFunction*%
%TO.P,U3,35*%
%TO.N,Net-(U3-Pad35)*%
%TA.AperFunction,SMDPad,CuDef*%
G36*
G01*
X143150000Y-90225000D02*
X143150000Y-90375000D01*
G75*
G02*
X143075000Y-90450000I-75000J0D01*
G01*
X141675000Y-90450000D01*
G75*
G02*
X141600000Y-90375000I0J75000D01*
G01*
X141600000Y-90225000D01*
G75*
G02*
X141675000Y-90150000I75000J0D01*
G01*
X143075000Y-90150000D01*
G75*
G02*
X143150000Y-90225000I0J-75000D01*
G01*
G37*
%TD.AperFunction*%
%TO.P,U3,34*%
%TO.N,Net-(U3-Pad34)*%
%TA.AperFunction,SMDPad,CuDef*%
G36*
G01*
X143150000Y-89725000D02*
X143150000Y-89875000D01*
G75*
G02*
X143075000Y-89950000I-75000J0D01*
G01*
X141675000Y-89950000D01*
G75*
G02*
X141600000Y-89875000I0J75000D01*
G01*
X141600000Y-89725000D01*
G75*
G02*
X141675000Y-89650000I75000J0D01*
G01*
X143075000Y-89650000D01*
G75*
G02*
X143150000Y-89725000I0J-75000D01*
G01*
G37*
%TD.AperFunction*%
%TO.P,U3,33*%
%TO.N,Net-(U3-Pad33)*%
%TA.AperFunction,SMDPad,CuDef*%
G36*
G01*
X143150000Y-89225000D02*
X143150000Y-89375000D01*
G75*
G02*
X143075000Y-89450000I-75000J0D01*
G01*
X141675000Y-89450000D01*
G75*
G02*
X141600000Y-89375000I0J75000D01*
G01*
X141600000Y-89225000D01*
G75*
G02*
X141675000Y-89150000I75000J0D01*
G01*
X143075000Y-89150000D01*
G75*
G02*
X143150000Y-89225000I0J-75000D01*
G01*
G37*
%TD.AperFunction*%
%TO.P,U3,32*%
%TO.N,+3V3*%
%TA.AperFunction,SMDPad,CuDef*%
G36*
G01*
X144450000Y-86675000D02*
X144450000Y-88075000D01*
G75*
G02*
X144375000Y-88150000I-75000J0D01*
G01*
X144225000Y-88150000D01*
G75*
G02*
X144150000Y-88075000I0J75000D01*
G01*
X144150000Y-86675000D01*
G75*
G02*
X144225000Y-86600000I75000J0D01*
G01*
X144375000Y-86600000D01*
G75*
G02*
X144450000Y-86675000I0J-75000D01*
G01*
G37*
%TD.AperFunction*%
%TO.P,U3,31*%
%TO.N,GND*%
%TA.AperFunction,SMDPad,CuDef*%
G36*
G01*
X144950000Y-86675000D02*
X144950000Y-88075000D01*
G75*
G02*
X144875000Y-88150000I-75000J0D01*
G01*
X144725000Y-88150000D01*
G75*
G02*
X144650000Y-88075000I0J75000D01*
G01*
X144650000Y-86675000D01*
G75*
G02*
X144725000Y-86600000I75000J0D01*
G01*
X144875000Y-86600000D01*
G75*
G02*
X144950000Y-86675000I0J-75000D01*
G01*
G37*
%TD.AperFunction*%
%TO.P,U3,30*%
%TO.N,Net-(U3-Pad30)*%
%TA.AperFunction,SMDPad,CuDef*%
G36*
G01*
X145450000Y-86675000D02*
X145450000Y-88075000D01*
G75*
G02*
X145375000Y-88150000I-75000J0D01*
G01*
X145225000Y-88150000D01*
G75*
G02*
X145150000Y-88075000I0J75000D01*
G01*
X145150000Y-86675000D01*
G75*
G02*
X145225000Y-86600000I75000J0D01*
G01*
X145375000Y-86600000D01*
G75*
G02*
X145450000Y-86675000I0J-75000D01*
G01*
G37*
%TD.AperFunction*%
%TO.P,U3,29*%
%TO.N,Net-(U3-Pad29)*%
%TA.AperFunction,SMDPad,CuDef*%
G36*
G01*
X145950000Y-86675000D02*
X145950000Y-88075000D01*
G75*
G02*
X145875000Y-88150000I-75000J0D01*
G01*
X145725000Y-88150000D01*
G75*
G02*
X145650000Y-88075000I0J75000D01*
G01*
X145650000Y-86675000D01*
G75*
G02*
X145725000Y-86600000I75000J0D01*
G01*
X145875000Y-86600000D01*
G75*
G02*
X145950000Y-86675000I0J-75000D01*
G01*
G37*
%TD.AperFunction*%
%TO.P,U3,28*%
%TO.N,/BOOT1*%
%TA.AperFunction,SMDPad,CuDef*%
G36*
G01*
X146450000Y-86675000D02*
X146450000Y-88075000D01*
G75*
G02*
X146375000Y-88150000I-75000J0D01*
G01*
X146225000Y-88150000D01*
G75*
G02*
X146150000Y-88075000I0J75000D01*
G01*
X146150000Y-86675000D01*
G75*
G02*
X146225000Y-86600000I75000J0D01*
G01*
X146375000Y-86600000D01*
G75*
G02*
X146450000Y-86675000I0J-75000D01*
G01*
G37*
%TD.AperFunction*%
%TO.P,U3,27*%
%TO.N,Net-(U3-Pad27)*%
%TA.AperFunction,SMDPad,CuDef*%
G36*
G01*
X146950000Y-86675000D02*
X146950000Y-88075000D01*
G75*
G02*
X146875000Y-88150000I-75000J0D01*
G01*
X146725000Y-88150000D01*
G75*
G02*
X146650000Y-88075000I0J75000D01*
G01*
X146650000Y-86675000D01*
G75*
G02*
X146725000Y-86600000I75000J0D01*
G01*
X146875000Y-86600000D01*
G75*
G02*
X146950000Y-86675000I0J-75000D01*
G01*
G37*
%TD.AperFunction*%
%TO.P,U3,26*%
%TO.N,Net-(U3-Pad26)*%
%TA.AperFunction,SMDPad,CuDef*%
G36*
G01*
X147450000Y-86675000D02*
X147450000Y-88075000D01*
G75*
G02*
X147375000Y-88150000I-75000J0D01*
G01*
X147225000Y-88150000D01*
G75*
G02*
X147150000Y-88075000I0J75000D01*
G01*
X147150000Y-86675000D01*
G75*
G02*
X147225000Y-86600000I75000J0D01*
G01*
X147375000Y-86600000D01*
G75*
G02*
X147450000Y-86675000I0J-75000D01*
G01*
G37*
%TD.AperFunction*%
%TO.P,U3,25*%
%TO.N,Net-(U3-Pad25)*%
%TA.AperFunction,SMDPad,CuDef*%
G36*
G01*
X147950000Y-86675000D02*
X147950000Y-88075000D01*
G75*
G02*
X147875000Y-88150000I-75000J0D01*
G01*
X147725000Y-88150000D01*
G75*
G02*
X147650000Y-88075000I0J75000D01*
G01*
X147650000Y-86675000D01*
G75*
G02*
X147725000Y-86600000I75000J0D01*
G01*
X147875000Y-86600000D01*
G75*
G02*
X147950000Y-86675000I0J-75000D01*
G01*
G37*
%TD.AperFunction*%
%TO.P,U3,24*%
%TO.N,Net-(U3-Pad24)*%
%TA.AperFunction,SMDPad,CuDef*%
G36*
G01*
X148450000Y-86675000D02*
X148450000Y-88075000D01*
G75*
G02*
X148375000Y-88150000I-75000J0D01*
G01*
X148225000Y-88150000D01*
G75*
G02*
X148150000Y-88075000I0J75000D01*
G01*
X148150000Y-86675000D01*
G75*
G02*
X148225000Y-86600000I75000J0D01*
G01*
X148375000Y-86600000D01*
G75*
G02*
X148450000Y-86675000I0J-75000D01*
G01*
G37*
%TD.AperFunction*%
%TO.P,U3,23*%
%TO.N,Net-(U3-Pad23)*%
%TA.AperFunction,SMDPad,CuDef*%
G36*
G01*
X148950000Y-86675000D02*
X148950000Y-88075000D01*
G75*
G02*
X148875000Y-88150000I-75000J0D01*
G01*
X148725000Y-88150000D01*
G75*
G02*
X148650000Y-88075000I0J75000D01*
G01*
X148650000Y-86675000D01*
G75*
G02*
X148725000Y-86600000I75000J0D01*
G01*
X148875000Y-86600000D01*
G75*
G02*
X148950000Y-86675000I0J-75000D01*
G01*
G37*
%TD.AperFunction*%
%TO.P,U3,22*%
%TO.N,/Master_Reset*%
%TA.AperFunction,SMDPad,CuDef*%
G36*
G01*
X149450000Y-86675000D02*
X149450000Y-88075000D01*
G75*
G02*
X149375000Y-88150000I-75000J0D01*
G01*
X149225000Y-88150000D01*
G75*
G02*
X149150000Y-88075000I0J75000D01*
G01*
X149150000Y-86675000D01*
G75*
G02*
X149225000Y-86600000I75000J0D01*
G01*
X149375000Y-86600000D01*
G75*
G02*
X149450000Y-86675000I0J-75000D01*
G01*
G37*
%TD.AperFunction*%
%TO.P,U3,21*%
%TO.N,/Upward_LED*%
%TA.AperFunction,SMDPad,CuDef*%
G36*
G01*
X149950000Y-86675000D02*
X149950000Y-88075000D01*
G75*
G02*
X149875000Y-88150000I-75000J0D01*
G01*
X149725000Y-88150000D01*
G75*
G02*
X149650000Y-88075000I0J75000D01*
G01*
X149650000Y-86675000D01*
G75*
G02*
X149725000Y-86600000I75000J0D01*
G01*
X149875000Y-86600000D01*
G75*
G02*
X149950000Y-86675000I0J-75000D01*
G01*
G37*
%TD.AperFunction*%
%TO.P,U3,20*%
%TO.N,/Left_LED*%
%TA.AperFunction,SMDPad,CuDef*%
G36*
G01*
X150450000Y-86675000D02*
X150450000Y-88075000D01*
G75*
G02*
X150375000Y-88150000I-75000J0D01*
G01*
X150225000Y-88150000D01*
G75*
G02*
X150150000Y-88075000I0J75000D01*
G01*
X150150000Y-86675000D01*
G75*
G02*
X150225000Y-86600000I75000J0D01*
G01*
X150375000Y-86600000D01*
G75*
G02*
X150450000Y-86675000I0J-75000D01*
G01*
G37*
%TD.AperFunction*%
%TO.P,U3,19*%
%TO.N,+3V3*%
%TA.AperFunction,SMDPad,CuDef*%
G36*
G01*
X150950000Y-86675000D02*
X150950000Y-88075000D01*
G75*
G02*
X150875000Y-88150000I-75000J0D01*
G01*
X150725000Y-88150000D01*
G75*
G02*
X150650000Y-88075000I0J75000D01*
G01*
X150650000Y-86675000D01*
G75*
G02*
X150725000Y-86600000I75000J0D01*
G01*
X150875000Y-86600000D01*
G75*
G02*
X150950000Y-86675000I0J-75000D01*
G01*
G37*
%TD.AperFunction*%
%TO.P,U3,18*%
%TO.N,GND*%
%TA.AperFunction,SMDPad,CuDef*%
G36*
G01*
X151450000Y-86675000D02*
X151450000Y-88075000D01*
G75*
G02*
X151375000Y-88150000I-75000J0D01*
G01*
X151225000Y-88150000D01*
G75*
G02*
X151150000Y-88075000I0J75000D01*
G01*
X151150000Y-86675000D01*
G75*
G02*
X151225000Y-86600000I75000J0D01*
G01*
X151375000Y-86600000D01*
G75*
G02*
X151450000Y-86675000I0J-75000D01*
G01*
G37*
%TD.AperFunction*%
%TO.P,U3,17*%
%TO.N,/Rear_LED*%
%TA.AperFunction,SMDPad,CuDef*%
G36*
G01*
X151950000Y-86675000D02*
X151950000Y-88075000D01*
G75*
G02*
X151875000Y-88150000I-75000J0D01*
G01*
X151725000Y-88150000D01*
G75*
G02*
X151650000Y-88075000I0J75000D01*
G01*
X151650000Y-86675000D01*
G75*
G02*
X151725000Y-86600000I75000J0D01*
G01*
X151875000Y-86600000D01*
G75*
G02*
X151950000Y-86675000I0J-75000D01*
G01*
G37*
%TD.AperFunction*%
%TO.P,U3,16*%
%TO.N,/Right_LED*%
%TA.AperFunction,SMDPad,CuDef*%
G36*
G01*
X154500000Y-89225000D02*
X154500000Y-89375000D01*
G75*
G02*
X154425000Y-89450000I-75000J0D01*
G01*
X153025000Y-89450000D01*
G75*
G02*
X152950000Y-89375000I0J75000D01*
G01*
X152950000Y-89225000D01*
G75*
G02*
X153025000Y-89150000I75000J0D01*
G01*
X154425000Y-89150000D01*
G75*
G02*
X154500000Y-89225000I0J-75000D01*
G01*
G37*
%TD.AperFunction*%
%TO.P,U3,15*%
%TO.N,/Forward_LED*%
%TA.AperFunction,SMDPad,CuDef*%
G36*
G01*
X154500000Y-89725000D02*
X154500000Y-89875000D01*
G75*
G02*
X154425000Y-89950000I-75000J0D01*
G01*
X153025000Y-89950000D01*
G75*
G02*
X152950000Y-89875000I0J75000D01*
G01*
X152950000Y-89725000D01*
G75*
G02*
X153025000Y-89650000I75000J0D01*
G01*
X154425000Y-89650000D01*
G75*
G02*
X154500000Y-89725000I0J-75000D01*
G01*
G37*
%TD.AperFunction*%
%TO.P,U3,14*%
%TO.N,Net-(U3-Pad14)*%
%TA.AperFunction,SMDPad,CuDef*%
G36*
G01*
X154500000Y-90225000D02*
X154500000Y-90375000D01*
G75*
G02*
X154425000Y-90450000I-75000J0D01*
G01*
X153025000Y-90450000D01*
G75*
G02*
X152950000Y-90375000I0J75000D01*
G01*
X152950000Y-90225000D01*
G75*
G02*
X153025000Y-90150000I75000J0D01*
G01*
X154425000Y-90150000D01*
G75*
G02*
X154500000Y-90225000I0J-75000D01*
G01*
G37*
%TD.AperFunction*%
%TO.P,U3,13*%
%TO.N,+3V3*%
%TA.AperFunction,SMDPad,CuDef*%
G36*
G01*
X154500000Y-90725000D02*
X154500000Y-90875000D01*
G75*
G02*
X154425000Y-90950000I-75000J0D01*
G01*
X153025000Y-90950000D01*
G75*
G02*
X152950000Y-90875000I0J75000D01*
G01*
X152950000Y-90725000D01*
G75*
G02*
X153025000Y-90650000I75000J0D01*
G01*
X154425000Y-90650000D01*
G75*
G02*
X154500000Y-90725000I0J-75000D01*
G01*
G37*
%TD.AperFunction*%
%TO.P,U3,12*%
%TO.N,GND*%
%TA.AperFunction,SMDPad,CuDef*%
G36*
G01*
X154500000Y-91225000D02*
X154500000Y-91375000D01*
G75*
G02*
X154425000Y-91450000I-75000J0D01*
G01*
X153025000Y-91450000D01*
G75*
G02*
X152950000Y-91375000I0J75000D01*
G01*
X152950000Y-91225000D01*
G75*
G02*
X153025000Y-91150000I75000J0D01*
G01*
X154425000Y-91150000D01*
G75*
G02*
X154500000Y-91225000I0J-75000D01*
G01*
G37*
%TD.AperFunction*%
%TO.P,U3,11*%
%TO.N,Net-(U3-Pad11)*%
%TA.AperFunction,SMDPad,CuDef*%
G36*
G01*
X154500000Y-91725000D02*
X154500000Y-91875000D01*
G75*
G02*
X154425000Y-91950000I-75000J0D01*
G01*
X153025000Y-91950000D01*
G75*
G02*
X152950000Y-91875000I0J75000D01*
G01*
X152950000Y-91725000D01*
G75*
G02*
X153025000Y-91650000I75000J0D01*
G01*
X154425000Y-91650000D01*
G75*
G02*
X154500000Y-91725000I0J-75000D01*
G01*
G37*
%TD.AperFunction*%
%TO.P,U3,10*%
%TO.N,Net-(U3-Pad10)*%
%TA.AperFunction,SMDPad,CuDef*%
G36*
G01*
X154500000Y-92225000D02*
X154500000Y-92375000D01*
G75*
G02*
X154425000Y-92450000I-75000J0D01*
G01*
X153025000Y-92450000D01*
G75*
G02*
X152950000Y-92375000I0J75000D01*
G01*
X152950000Y-92225000D01*
G75*
G02*
X153025000Y-92150000I75000J0D01*
G01*
X154425000Y-92150000D01*
G75*
G02*
X154500000Y-92225000I0J-75000D01*
G01*
G37*
%TD.AperFunction*%
%TO.P,U3,9*%
%TO.N,Net-(U3-Pad9)*%
%TA.AperFunction,SMDPad,CuDef*%
G36*
G01*
X154500000Y-92725000D02*
X154500000Y-92875000D01*
G75*
G02*
X154425000Y-92950000I-75000J0D01*
G01*
X153025000Y-92950000D01*
G75*
G02*
X152950000Y-92875000I0J75000D01*
G01*
X152950000Y-92725000D01*
G75*
G02*
X153025000Y-92650000I75000J0D01*
G01*
X154425000Y-92650000D01*
G75*
G02*
X154500000Y-92725000I0J-75000D01*
G01*
G37*
%TD.AperFunction*%
%TO.P,U3,8*%
%TO.N,Net-(U3-Pad8)*%
%TA.AperFunction,SMDPad,CuDef*%
G36*
G01*
X154500000Y-93225000D02*
X154500000Y-93375000D01*
G75*
G02*
X154425000Y-93450000I-75000J0D01*
G01*
X153025000Y-93450000D01*
G75*
G02*
X152950000Y-93375000I0J75000D01*
G01*
X152950000Y-93225000D01*
G75*
G02*
X153025000Y-93150000I75000J0D01*
G01*
X154425000Y-93150000D01*
G75*
G02*
X154500000Y-93225000I0J-75000D01*
G01*
G37*
%TD.AperFunction*%
%TO.P,U3,7*%
%TO.N,/NRST*%
%TA.AperFunction,SMDPad,CuDef*%
G36*
G01*
X154500000Y-93725000D02*
X154500000Y-93875000D01*
G75*
G02*
X154425000Y-93950000I-75000J0D01*
G01*
X153025000Y-93950000D01*
G75*
G02*
X152950000Y-93875000I0J75000D01*
G01*
X152950000Y-93725000D01*
G75*
G02*
X153025000Y-93650000I75000J0D01*
G01*
X154425000Y-93650000D01*
G75*
G02*
X154500000Y-93725000I0J-75000D01*
G01*
G37*
%TD.AperFunction*%
%TO.P,U3,6*%
%TO.N,/OSC_OUT*%
%TA.AperFunction,SMDPad,CuDef*%
G36*
G01*
X154500000Y-94225000D02*
X154500000Y-94375000D01*
G75*
G02*
X154425000Y-94450000I-75000J0D01*
G01*
X153025000Y-94450000D01*
G75*
G02*
X152950000Y-94375000I0J75000D01*
G01*
X152950000Y-94225000D01*
G75*
G02*
X153025000Y-94150000I75000J0D01*
G01*
X154425000Y-94150000D01*
G75*
G02*
X154500000Y-94225000I0J-75000D01*
G01*
G37*
%TD.AperFunction*%
%TO.P,U3,5*%
%TO.N,/OSC_IN*%
%TA.AperFunction,SMDPad,CuDef*%
G36*
G01*
X154500000Y-94725000D02*
X154500000Y-94875000D01*
G75*
G02*
X154425000Y-94950000I-75000J0D01*
G01*
X153025000Y-94950000D01*
G75*
G02*
X152950000Y-94875000I0J75000D01*
G01*
X152950000Y-94725000D01*
G75*
G02*
X153025000Y-94650000I75000J0D01*
G01*
X154425000Y-94650000D01*
G75*
G02*
X154500000Y-94725000I0J-75000D01*
G01*
G37*
%TD.AperFunction*%
%TO.P,U3,4*%
%TO.N,/OSC32_OUT*%
%TA.AperFunction,SMDPad,CuDef*%
G36*
G01*
X154500000Y-95225000D02*
X154500000Y-95375000D01*
G75*
G02*
X154425000Y-95450000I-75000J0D01*
G01*
X153025000Y-95450000D01*
G75*
G02*
X152950000Y-95375000I0J75000D01*
G01*
X152950000Y-95225000D01*
G75*
G02*
X153025000Y-95150000I75000J0D01*
G01*
X154425000Y-95150000D01*
G75*
G02*
X154500000Y-95225000I0J-75000D01*
G01*
G37*
%TD.AperFunction*%
%TO.P,U3,3*%
%TO.N,/OSC32_IN*%
%TA.AperFunction,SMDPad,CuDef*%
G36*
G01*
X154500000Y-95725000D02*
X154500000Y-95875000D01*
G75*
G02*
X154425000Y-95950000I-75000J0D01*
G01*
X153025000Y-95950000D01*
G75*
G02*
X152950000Y-95875000I0J75000D01*
G01*
X152950000Y-95725000D01*
G75*
G02*
X153025000Y-95650000I75000J0D01*
G01*
X154425000Y-95650000D01*
G75*
G02*
X154500000Y-95725000I0J-75000D01*
G01*
G37*
%TD.AperFunction*%
%TO.P,U3,2*%
%TO.N,Net-(U3-Pad2)*%
%TA.AperFunction,SMDPad,CuDef*%
G36*
G01*
X154500000Y-96225000D02*
X154500000Y-96375000D01*
G75*
G02*
X154425000Y-96450000I-75000J0D01*
G01*
X153025000Y-96450000D01*
G75*
G02*
X152950000Y-96375000I0J75000D01*
G01*
X152950000Y-96225000D01*
G75*
G02*
X153025000Y-96150000I75000J0D01*
G01*
X154425000Y-96150000D01*
G75*
G02*
X154500000Y-96225000I0J-75000D01*
G01*
G37*
%TD.AperFunction*%
%TO.P,U3,1*%
%TO.N,+3V3*%
%TA.AperFunction,SMDPad,CuDef*%
G36*
G01*
X154500000Y-96725000D02*
X154500000Y-96875000D01*
G75*
G02*
X154425000Y-96950000I-75000J0D01*
G01*
X153025000Y-96950000D01*
G75*
G02*
X152950000Y-96875000I0J75000D01*
G01*
X152950000Y-96725000D01*
G75*
G02*
X153025000Y-96650000I75000J0D01*
G01*
X154425000Y-96650000D01*
G75*
G02*
X154500000Y-96725000I0J-75000D01*
G01*
G37*
%TD.AperFunction*%
%TD*%
D13*
%TO.P,U2,1*%
%TO.N,+5V*%
X177690000Y-75205000D03*
%TO.P,U2,2*%
%TO.N,GND*%
X176750000Y-75205000D03*
%TO.P,U2,3*%
%TO.N,+5V*%
X175810000Y-75205000D03*
%TO.P,U2,4*%
%TO.N,Net-(U2-Pad4)*%
X175810000Y-77695000D03*
%TO.P,U2,5*%
%TO.N,+3V3*%
X177690000Y-77695000D03*
%TD*%
%TO.P,U1,1*%
%TO.N,Net-(R5-Pad1)*%
%TA.AperFunction,SMDPad,CuDef*%
G36*
G01*
X148950000Y-109775000D02*
X148950000Y-109975000D01*
G75*
G02*
X148850000Y-110075000I-100000J0D01*
G01*
X147575000Y-110075000D01*
G75*
G02*
X147475000Y-109975000I0J100000D01*
G01*
X147475000Y-109775000D01*
G75*
G02*
X147575000Y-109675000I100000J0D01*
G01*
X148850000Y-109675000D01*
G75*
G02*
X148950000Y-109775000I0J-100000D01*
G01*
G37*
%TD.AperFunction*%
%TO.P,U1,2*%
%TO.N,Net-(R4-Pad1)*%
%TA.AperFunction,SMDPad,CuDef*%
G36*
G01*
X148950000Y-109125000D02*
X148950000Y-109325000D01*
G75*
G02*
X148850000Y-109425000I-100000J0D01*
G01*
X147575000Y-109425000D01*
G75*
G02*
X147475000Y-109325000I0J100000D01*
G01*
X147475000Y-109125000D01*
G75*
G02*
X147575000Y-109025000I100000J0D01*
G01*
X148850000Y-109025000D01*
G75*
G02*
X148950000Y-109125000I0J-100000D01*
G01*
G37*
%TD.AperFunction*%
%TO.P,U1,3*%
%TO.N,/Master_Reset*%
%TA.AperFunction,SMDPad,CuDef*%
G36*
G01*
X148950000Y-108475000D02*
X148950000Y-108675000D01*
G75*
G02*
X148850000Y-108775000I-100000J0D01*
G01*
X147575000Y-108775000D01*
G75*
G02*
X147475000Y-108675000I0J100000D01*
G01*
X147475000Y-108475000D01*
G75*
G02*
X147575000Y-108375000I100000J0D01*
G01*
X148850000Y-108375000D01*
G75*
G02*
X148950000Y-108475000I0J-100000D01*
G01*
G37*
%TD.AperFunction*%
%TO.P,U1,4*%
%TO.N,/Forward_SDA*%
%TA.AperFunction,SMDPad,CuDef*%
G36*
G01*
X148950000Y-107825000D02*
X148950000Y-108025000D01*
G75*
G02*
X148850000Y-108125000I-100000J0D01*
G01*
X147575000Y-108125000D01*
G75*
G02*
X147475000Y-108025000I0J100000D01*
G01*
X147475000Y-107825000D01*
G75*
G02*
X147575000Y-107725000I100000J0D01*
G01*
X148850000Y-107725000D01*
G75*
G02*
X148950000Y-107825000I0J-100000D01*
G01*
G37*
%TD.AperFunction*%
%TO.P,U1,5*%
%TO.N,/Forward_SCL*%
%TA.AperFunction,SMDPad,CuDef*%
G36*
G01*
X148950000Y-107175000D02*
X148950000Y-107375000D01*
G75*
G02*
X148850000Y-107475000I-100000J0D01*
G01*
X147575000Y-107475000D01*
G75*
G02*
X147475000Y-107375000I0J100000D01*
G01*
X147475000Y-107175000D01*
G75*
G02*
X147575000Y-107075000I100000J0D01*
G01*
X148850000Y-107075000D01*
G75*
G02*
X148950000Y-107175000I0J-100000D01*
G01*
G37*
%TD.AperFunction*%
%TO.P,U1,6*%
%TO.N,/Right_SDA*%
%TA.AperFunction,SMDPad,CuDef*%
G36*
G01*
X148950000Y-106525000D02*
X148950000Y-106725000D01*
G75*
G02*
X148850000Y-106825000I-100000J0D01*
G01*
X147575000Y-106825000D01*
G75*
G02*
X147475000Y-106725000I0J100000D01*
G01*
X147475000Y-106525000D01*
G75*
G02*
X147575000Y-106425000I100000J0D01*
G01*
X148850000Y-106425000D01*
G75*
G02*
X148950000Y-106525000I0J-100000D01*
G01*
G37*
%TD.AperFunction*%
%TO.P,U1,7*%
%TO.N,/Right_SCL*%
%TA.AperFunction,SMDPad,CuDef*%
G36*
G01*
X148950000Y-105875000D02*
X148950000Y-106075000D01*
G75*
G02*
X148850000Y-106175000I-100000J0D01*
G01*
X147575000Y-106175000D01*
G75*
G02*
X147475000Y-106075000I0J100000D01*
G01*
X147475000Y-105875000D01*
G75*
G02*
X147575000Y-105775000I100000J0D01*
G01*
X148850000Y-105775000D01*
G75*
G02*
X148950000Y-105875000I0J-100000D01*
G01*
G37*
%TD.AperFunction*%
%TO.P,U1,8*%
%TO.N,/Rear_SDA*%
%TA.AperFunction,SMDPad,CuDef*%
G36*
G01*
X148950000Y-105225000D02*
X148950000Y-105425000D01*
G75*
G02*
X148850000Y-105525000I-100000J0D01*
G01*
X147575000Y-105525000D01*
G75*
G02*
X147475000Y-105425000I0J100000D01*
G01*
X147475000Y-105225000D01*
G75*
G02*
X147575000Y-105125000I100000J0D01*
G01*
X148850000Y-105125000D01*
G75*
G02*
X148950000Y-105225000I0J-100000D01*
G01*
G37*
%TD.AperFunction*%
%TO.P,U1,9*%
%TO.N,/Rear_SCL*%
%TA.AperFunction,SMDPad,CuDef*%
G36*
G01*
X148950000Y-104575000D02*
X148950000Y-104775000D01*
G75*
G02*
X148850000Y-104875000I-100000J0D01*
G01*
X147575000Y-104875000D01*
G75*
G02*
X147475000Y-104775000I0J100000D01*
G01*
X147475000Y-104575000D01*
G75*
G02*
X147575000Y-104475000I100000J0D01*
G01*
X148850000Y-104475000D01*
G75*
G02*
X148950000Y-104575000I0J-100000D01*
G01*
G37*
%TD.AperFunction*%
%TO.P,U1,10*%
%TO.N,/Left_SDA*%
%TA.AperFunction,SMDPad,CuDef*%
G36*
G01*
X148950000Y-103925000D02*
X148950000Y-104125000D01*
G75*
G02*
X148850000Y-104225000I-100000J0D01*
G01*
X147575000Y-104225000D01*
G75*
G02*
X147475000Y-104125000I0J100000D01*
G01*
X147475000Y-103925000D01*
G75*
G02*
X147575000Y-103825000I100000J0D01*
G01*
X148850000Y-103825000D01*
G75*
G02*
X148950000Y-103925000I0J-100000D01*
G01*
G37*
%TD.AperFunction*%
%TO.P,U1,11*%
%TO.N,/Left_SCL*%
%TA.AperFunction,SMDPad,CuDef*%
G36*
G01*
X148950000Y-103275000D02*
X148950000Y-103475000D01*
G75*
G02*
X148850000Y-103575000I-100000J0D01*
G01*
X147575000Y-103575000D01*
G75*
G02*
X147475000Y-103475000I0J100000D01*
G01*
X147475000Y-103275000D01*
G75*
G02*
X147575000Y-103175000I100000J0D01*
G01*
X148850000Y-103175000D01*
G75*
G02*
X148950000Y-103275000I0J-100000D01*
G01*
G37*
%TD.AperFunction*%
%TO.P,U1,12*%
%TO.N,GND*%
%TA.AperFunction,SMDPad,CuDef*%
G36*
G01*
X148950000Y-102625000D02*
X148950000Y-102825000D01*
G75*
G02*
X148850000Y-102925000I-100000J0D01*
G01*
X147575000Y-102925000D01*
G75*
G02*
X147475000Y-102825000I0J100000D01*
G01*
X147475000Y-102625000D01*
G75*
G02*
X147575000Y-102525000I100000J0D01*
G01*
X148850000Y-102525000D01*
G75*
G02*
X148950000Y-102625000I0J-100000D01*
G01*
G37*
%TD.AperFunction*%
%TO.P,U1,13*%
%TO.N,/Upward_SDA*%
%TA.AperFunction,SMDPad,CuDef*%
G36*
G01*
X143225000Y-102625000D02*
X143225000Y-102825000D01*
G75*
G02*
X143125000Y-102925000I-100000J0D01*
G01*
X141850000Y-102925000D01*
G75*
G02*
X141750000Y-102825000I0J100000D01*
G01*
X141750000Y-102625000D01*
G75*
G02*
X141850000Y-102525000I100000J0D01*
G01*
X143125000Y-102525000D01*
G75*
G02*
X143225000Y-102625000I0J-100000D01*
G01*
G37*
%TD.AperFunction*%
%TO.P,U1,14*%
%TO.N,/Upward_SCL*%
%TA.AperFunction,SMDPad,CuDef*%
G36*
G01*
X143225000Y-103275000D02*
X143225000Y-103475000D01*
G75*
G02*
X143125000Y-103575000I-100000J0D01*
G01*
X141850000Y-103575000D01*
G75*
G02*
X141750000Y-103475000I0J100000D01*
G01*
X141750000Y-103275000D01*
G75*
G02*
X141850000Y-103175000I100000J0D01*
G01*
X143125000Y-103175000D01*
G75*
G02*
X143225000Y-103275000I0J-100000D01*
G01*
G37*
%TD.AperFunction*%
%TO.P,U1,15*%
%TO.N,Net-(U1-Pad15)*%
%TA.AperFunction,SMDPad,CuDef*%
G36*
G01*
X143225000Y-103925000D02*
X143225000Y-104125000D01*
G75*
G02*
X143125000Y-104225000I-100000J0D01*
G01*
X141850000Y-104225000D01*
G75*
G02*
X141750000Y-104125000I0J100000D01*
G01*
X141750000Y-103925000D01*
G75*
G02*
X141850000Y-103825000I100000J0D01*
G01*
X143125000Y-103825000D01*
G75*
G02*
X143225000Y-103925000I0J-100000D01*
G01*
G37*
%TD.AperFunction*%
%TO.P,U1,16*%
%TO.N,Net-(U1-Pad16)*%
%TA.AperFunction,SMDPad,CuDef*%
G36*
G01*
X143225000Y-104575000D02*
X143225000Y-104775000D01*
G75*
G02*
X143125000Y-104875000I-100000J0D01*
G01*
X141850000Y-104875000D01*
G75*
G02*
X141750000Y-104775000I0J100000D01*
G01*
X141750000Y-104575000D01*
G75*
G02*
X141850000Y-104475000I100000J0D01*
G01*
X143125000Y-104475000D01*
G75*
G02*
X143225000Y-104575000I0J-100000D01*
G01*
G37*
%TD.AperFunction*%
%TO.P,U1,17*%
%TO.N,Net-(U1-Pad17)*%
%TA.AperFunction,SMDPad,CuDef*%
G36*
G01*
X143225000Y-105225000D02*
X143225000Y-105425000D01*
G75*
G02*
X143125000Y-105525000I-100000J0D01*
G01*
X141850000Y-105525000D01*
G75*
G02*
X141750000Y-105425000I0J100000D01*
G01*
X141750000Y-105225000D01*
G75*
G02*
X141850000Y-105125000I100000J0D01*
G01*
X143125000Y-105125000D01*
G75*
G02*
X143225000Y-105225000I0J-100000D01*
G01*
G37*
%TD.AperFunction*%
%TO.P,U1,18*%
%TO.N,Net-(U1-Pad18)*%
%TA.AperFunction,SMDPad,CuDef*%
G36*
G01*
X143225000Y-105875000D02*
X143225000Y-106075000D01*
G75*
G02*
X143125000Y-106175000I-100000J0D01*
G01*
X141850000Y-106175000D01*
G75*
G02*
X141750000Y-106075000I0J100000D01*
G01*
X141750000Y-105875000D01*
G75*
G02*
X141850000Y-105775000I100000J0D01*
G01*
X143125000Y-105775000D01*
G75*
G02*
X143225000Y-105875000I0J-100000D01*
G01*
G37*
%TD.AperFunction*%
%TO.P,U1,19*%
%TO.N,Net-(U1-Pad19)*%
%TA.AperFunction,SMDPad,CuDef*%
G36*
G01*
X143225000Y-106525000D02*
X143225000Y-106725000D01*
G75*
G02*
X143125000Y-106825000I-100000J0D01*
G01*
X141850000Y-106825000D01*
G75*
G02*
X141750000Y-106725000I0J100000D01*
G01*
X141750000Y-106525000D01*
G75*
G02*
X141850000Y-106425000I100000J0D01*
G01*
X143125000Y-106425000D01*
G75*
G02*
X143225000Y-106525000I0J-100000D01*
G01*
G37*
%TD.AperFunction*%
%TO.P,U1,20*%
%TO.N,Net-(U1-Pad20)*%
%TA.AperFunction,SMDPad,CuDef*%
G36*
G01*
X143225000Y-107175000D02*
X143225000Y-107375000D01*
G75*
G02*
X143125000Y-107475000I-100000J0D01*
G01*
X141850000Y-107475000D01*
G75*
G02*
X141750000Y-107375000I0J100000D01*
G01*
X141750000Y-107175000D01*
G75*
G02*
X141850000Y-107075000I100000J0D01*
G01*
X143125000Y-107075000D01*
G75*
G02*
X143225000Y-107175000I0J-100000D01*
G01*
G37*
%TD.AperFunction*%
%TO.P,U1,21*%
%TO.N,Net-(R3-Pad1)*%
%TA.AperFunction,SMDPad,CuDef*%
G36*
G01*
X143225000Y-107825000D02*
X143225000Y-108025000D01*
G75*
G02*
X143125000Y-108125000I-100000J0D01*
G01*
X141850000Y-108125000D01*
G75*
G02*
X141750000Y-108025000I0J100000D01*
G01*
X141750000Y-107825000D01*
G75*
G02*
X141850000Y-107725000I100000J0D01*
G01*
X143125000Y-107725000D01*
G75*
G02*
X143225000Y-107825000I0J-100000D01*
G01*
G37*
%TD.AperFunction*%
%TO.P,U1,22*%
%TO.N,Master_SCL*%
%TA.AperFunction,SMDPad,CuDef*%
G36*
G01*
X143225000Y-108475000D02*
X143225000Y-108675000D01*
G75*
G02*
X143125000Y-108775000I-100000J0D01*
G01*
X141850000Y-108775000D01*
G75*
G02*
X141750000Y-108675000I0J100000D01*
G01*
X141750000Y-108475000D01*
G75*
G02*
X141850000Y-108375000I100000J0D01*
G01*
X143125000Y-108375000D01*
G75*
G02*
X143225000Y-108475000I0J-100000D01*
G01*
G37*
%TD.AperFunction*%
%TO.P,U1,23*%
%TO.N,Master_SDA*%
%TA.AperFunction,SMDPad,CuDef*%
G36*
G01*
X143225000Y-109125000D02*
X143225000Y-109325000D01*
G75*
G02*
X143125000Y-109425000I-100000J0D01*
G01*
X141850000Y-109425000D01*
G75*
G02*
X141750000Y-109325000I0J100000D01*
G01*
X141750000Y-109125000D01*
G75*
G02*
X141850000Y-109025000I100000J0D01*
G01*
X143125000Y-109025000D01*
G75*
G02*
X143225000Y-109125000I0J-100000D01*
G01*
G37*
%TD.AperFunction*%
%TO.P,U1,24*%
%TO.N,+3V3*%
%TA.AperFunction,SMDPad,CuDef*%
G36*
G01*
X143225000Y-109775000D02*
X143225000Y-109975000D01*
G75*
G02*
X143125000Y-110075000I-100000J0D01*
G01*
X141850000Y-110075000D01*
G75*
G02*
X141750000Y-109975000I0J100000D01*
G01*
X141750000Y-109775000D01*
G75*
G02*
X141850000Y-109675000I100000J0D01*
G01*
X143125000Y-109675000D01*
G75*
G02*
X143225000Y-109775000I0J-100000D01*
G01*
G37*
%TD.AperFunction*%
%TD*%
D14*
%TO.P,SW1,2*%
%TO.N,GND*%
X168425000Y-111650000D03*
%TO.P,SW1,1*%
%TO.N,/NRST*%
X168425000Y-107150000D03*
X176375000Y-107150000D03*
%TO.P,SW1,2*%
%TO.N,GND*%
X176375000Y-111650000D03*
%TD*%
%TO.P,R16,2*%
%TO.N,GND*%
%TA.AperFunction,SMDPad,CuDef*%
G36*
G01*
X172350000Y-80549999D02*
X172350000Y-81450001D01*
G75*
G02*
X172100001Y-81700000I-249999J0D01*
G01*
X171574999Y-81700000D01*
G75*
G02*
X171325000Y-81450001I0J249999D01*
G01*
X171325000Y-80549999D01*
G75*
G02*
X171574999Y-80300000I249999J0D01*
G01*
X172100001Y-80300000D01*
G75*
G02*
X172350000Y-80549999I0J-249999D01*
G01*
G37*
%TD.AperFunction*%
%TO.P,R16,1*%
%TO.N,Net-(D6-Pad1)*%
%TA.AperFunction,SMDPad,CuDef*%
G36*
G01*
X174175000Y-80549999D02*
X174175000Y-81450001D01*
G75*
G02*
X173925001Y-81700000I-249999J0D01*
G01*
X173399999Y-81700000D01*
G75*
G02*
X173150000Y-81450001I0J249999D01*
G01*
X173150000Y-80549999D01*
G75*
G02*
X173399999Y-80300000I249999J0D01*
G01*
X173925001Y-80300000D01*
G75*
G02*
X174175000Y-80549999I0J-249999D01*
G01*
G37*
%TD.AperFunction*%
%TD*%
%TO.P,R15,2*%
%TO.N,GND*%
%TA.AperFunction,SMDPad,CuDef*%
G36*
G01*
X167350001Y-61662500D02*
X166449999Y-61662500D01*
G75*
G02*
X166200000Y-61412501I0J249999D01*
G01*
X166200000Y-60887499D01*
G75*
G02*
X166449999Y-60637500I249999J0D01*
G01*
X167350001Y-60637500D01*
G75*
G02*
X167600000Y-60887499I0J-249999D01*
G01*
X167600000Y-61412501D01*
G75*
G02*
X167350001Y-61662500I-249999J0D01*
G01*
G37*
%TD.AperFunction*%
%TO.P,R15,1*%
%TO.N,Net-(D5-Pad1)*%
%TA.AperFunction,SMDPad,CuDef*%
G36*
G01*
X167350001Y-63487500D02*
X166449999Y-63487500D01*
G75*
G02*
X166200000Y-63237501I0J249999D01*
G01*
X166200000Y-62712499D01*
G75*
G02*
X166449999Y-62462500I249999J0D01*
G01*
X167350001Y-62462500D01*
G75*
G02*
X167600000Y-62712499I0J-249999D01*
G01*
X167600000Y-63237501D01*
G75*
G02*
X167350001Y-63487500I-249999J0D01*
G01*
G37*
%TD.AperFunction*%
%TD*%
%TO.P,R14,2*%
%TO.N,GND*%
%TA.AperFunction,SMDPad,CuDef*%
G36*
G01*
X155049999Y-125100000D02*
X155950001Y-125100000D01*
G75*
G02*
X156200000Y-125349999I0J-249999D01*
G01*
X156200000Y-125875001D01*
G75*
G02*
X155950001Y-126125000I-249999J0D01*
G01*
X155049999Y-126125000D01*
G75*
G02*
X154800000Y-125875001I0J249999D01*
G01*
X154800000Y-125349999D01*
G75*
G02*
X155049999Y-125100000I249999J0D01*
G01*
G37*
%TD.AperFunction*%
%TO.P,R14,1*%
%TO.N,Net-(D4-Pad1)*%
%TA.AperFunction,SMDPad,CuDef*%
G36*
G01*
X155049999Y-123275000D02*
X155950001Y-123275000D01*
G75*
G02*
X156200000Y-123524999I0J-249999D01*
G01*
X156200000Y-124050001D01*
G75*
G02*
X155950001Y-124300000I-249999J0D01*
G01*
X155049999Y-124300000D01*
G75*
G02*
X154800000Y-124050001I0J249999D01*
G01*
X154800000Y-123524999D01*
G75*
G02*
X155049999Y-123275000I249999J0D01*
G01*
G37*
%TD.AperFunction*%
%TD*%
%TO.P,R13,2*%
%TO.N,GND*%
%TA.AperFunction,SMDPad,CuDef*%
G36*
G01*
X125450000Y-92099999D02*
X125450000Y-93000001D01*
G75*
G02*
X125200001Y-93250000I-249999J0D01*
G01*
X124674999Y-93250000D01*
G75*
G02*
X124425000Y-93000001I0J249999D01*
G01*
X124425000Y-92099999D01*
G75*
G02*
X124674999Y-91850000I249999J0D01*
G01*
X125200001Y-91850000D01*
G75*
G02*
X125450000Y-92099999I0J-249999D01*
G01*
G37*
%TD.AperFunction*%
%TO.P,R13,1*%
%TO.N,Net-(D3-Pad1)*%
%TA.AperFunction,SMDPad,CuDef*%
G36*
G01*
X127275000Y-92099999D02*
X127275000Y-93000001D01*
G75*
G02*
X127025001Y-93250000I-249999J0D01*
G01*
X126499999Y-93250000D01*
G75*
G02*
X126250000Y-93000001I0J249999D01*
G01*
X126250000Y-92099999D01*
G75*
G02*
X126499999Y-91850000I249999J0D01*
G01*
X127025001Y-91850000D01*
G75*
G02*
X127275000Y-92099999I0J-249999D01*
G01*
G37*
%TD.AperFunction*%
%TD*%
%TO.P,R12,2*%
%TO.N,GND*%
%TA.AperFunction,SMDPad,CuDef*%
G36*
G01*
X192212500Y-101800001D02*
X192212500Y-100899999D01*
G75*
G02*
X192462499Y-100650000I249999J0D01*
G01*
X192987501Y-100650000D01*
G75*
G02*
X193237500Y-100899999I0J-249999D01*
G01*
X193237500Y-101800001D01*
G75*
G02*
X192987501Y-102050000I-249999J0D01*
G01*
X192462499Y-102050000D01*
G75*
G02*
X192212500Y-101800001I0J249999D01*
G01*
G37*
%TD.AperFunction*%
%TO.P,R12,1*%
%TO.N,Net-(D2-Pad1)*%
%TA.AperFunction,SMDPad,CuDef*%
G36*
G01*
X190387500Y-101800001D02*
X190387500Y-100899999D01*
G75*
G02*
X190637499Y-100650000I249999J0D01*
G01*
X191162501Y-100650000D01*
G75*
G02*
X191412500Y-100899999I0J-249999D01*
G01*
X191412500Y-101800001D01*
G75*
G02*
X191162501Y-102050000I-249999J0D01*
G01*
X190637499Y-102050000D01*
G75*
G02*
X190387500Y-101800001I0J249999D01*
G01*
G37*
%TD.AperFunction*%
%TD*%
%TO.P,R11,2*%
%TO.N,GND*%
%TA.AperFunction,SMDPad,CuDef*%
G36*
G01*
X162349999Y-125300000D02*
X163250001Y-125300000D01*
G75*
G02*
X163500000Y-125549999I0J-249999D01*
G01*
X163500000Y-126075001D01*
G75*
G02*
X163250001Y-126325000I-249999J0D01*
G01*
X162349999Y-126325000D01*
G75*
G02*
X162100000Y-126075001I0J249999D01*
G01*
X162100000Y-125549999D01*
G75*
G02*
X162349999Y-125300000I249999J0D01*
G01*
G37*
%TD.AperFunction*%
%TO.P,R11,1*%
%TO.N,Net-(D1-Pad1)*%
%TA.AperFunction,SMDPad,CuDef*%
G36*
G01*
X162349999Y-123475000D02*
X163250001Y-123475000D01*
G75*
G02*
X163500000Y-123724999I0J-249999D01*
G01*
X163500000Y-124250001D01*
G75*
G02*
X163250001Y-124500000I-249999J0D01*
G01*
X162349999Y-124500000D01*
G75*
G02*
X162100000Y-124250001I0J249999D01*
G01*
X162100000Y-123724999D01*
G75*
G02*
X162349999Y-123475000I249999J0D01*
G01*
G37*
%TD.AperFunction*%
%TD*%
%TO.P,R10,2*%
%TO.N,GND*%
%TA.AperFunction,SMDPad,CuDef*%
G36*
G01*
X148050001Y-83400000D02*
X147149999Y-83400000D01*
G75*
G02*
X146900000Y-83150001I0J249999D01*
G01*
X146900000Y-82624999D01*
G75*
G02*
X147149999Y-82375000I249999J0D01*
G01*
X148050001Y-82375000D01*
G75*
G02*
X148300000Y-82624999I0J-249999D01*
G01*
X148300000Y-83150001D01*
G75*
G02*
X148050001Y-83400000I-249999J0D01*
G01*
G37*
%TD.AperFunction*%
%TO.P,R10,1*%
%TO.N,/BOOT1*%
%TA.AperFunction,SMDPad,CuDef*%
G36*
G01*
X148050001Y-85225000D02*
X147149999Y-85225000D01*
G75*
G02*
X146900000Y-84975001I0J249999D01*
G01*
X146900000Y-84449999D01*
G75*
G02*
X147149999Y-84200000I249999J0D01*
G01*
X148050001Y-84200000D01*
G75*
G02*
X148300000Y-84449999I0J-249999D01*
G01*
X148300000Y-84975001D01*
G75*
G02*
X148050001Y-85225000I-249999J0D01*
G01*
G37*
%TD.AperFunction*%
%TD*%
%TO.P,R9,2*%
%TO.N,GND*%
%TA.AperFunction,SMDPad,CuDef*%
G36*
G01*
X152512500Y-104250001D02*
X152512500Y-103349999D01*
G75*
G02*
X152762499Y-103100000I249999J0D01*
G01*
X153287501Y-103100000D01*
G75*
G02*
X153537500Y-103349999I0J-249999D01*
G01*
X153537500Y-104250001D01*
G75*
G02*
X153287501Y-104500000I-249999J0D01*
G01*
X152762499Y-104500000D01*
G75*
G02*
X152512500Y-104250001I0J249999D01*
G01*
G37*
%TD.AperFunction*%
%TO.P,R9,1*%
%TO.N,/BOOT0*%
%TA.AperFunction,SMDPad,CuDef*%
G36*
G01*
X150687500Y-104250001D02*
X150687500Y-103349999D01*
G75*
G02*
X150937499Y-103100000I249999J0D01*
G01*
X151462501Y-103100000D01*
G75*
G02*
X151712500Y-103349999I0J-249999D01*
G01*
X151712500Y-104250001D01*
G75*
G02*
X151462501Y-104500000I-249999J0D01*
G01*
X150937499Y-104500000D01*
G75*
G02*
X150687500Y-104250001I0J249999D01*
G01*
G37*
%TD.AperFunction*%
%TD*%
%TO.P,R8,2*%
%TO.N,/OSC_OUT*%
%TA.AperFunction,SMDPad,CuDef*%
G36*
G01*
X167250001Y-87137500D02*
X166349999Y-87137500D01*
G75*
G02*
X166100000Y-86887501I0J249999D01*
G01*
X166100000Y-86362499D01*
G75*
G02*
X166349999Y-86112500I249999J0D01*
G01*
X167250001Y-86112500D01*
G75*
G02*
X167500000Y-86362499I0J-249999D01*
G01*
X167500000Y-86887501D01*
G75*
G02*
X167250001Y-87137500I-249999J0D01*
G01*
G37*
%TD.AperFunction*%
%TO.P,R8,1*%
%TO.N,/OSC_IN*%
%TA.AperFunction,SMDPad,CuDef*%
G36*
G01*
X167250001Y-88962500D02*
X166349999Y-88962500D01*
G75*
G02*
X166100000Y-88712501I0J249999D01*
G01*
X166100000Y-88187499D01*
G75*
G02*
X166349999Y-87937500I249999J0D01*
G01*
X167250001Y-87937500D01*
G75*
G02*
X167500000Y-88187499I0J-249999D01*
G01*
X167500000Y-88712501D01*
G75*
G02*
X167250001Y-88962500I-249999J0D01*
G01*
G37*
%TD.AperFunction*%
%TD*%
%TO.P,R7,1*%
%TO.N,+3V3*%
%TA.AperFunction,SMDPad,CuDef*%
G36*
G01*
X178949999Y-104487500D02*
X179850001Y-104487500D01*
G75*
G02*
X180100000Y-104737499I0J-249999D01*
G01*
X180100000Y-105262501D01*
G75*
G02*
X179850001Y-105512500I-249999J0D01*
G01*
X178949999Y-105512500D01*
G75*
G02*
X178700000Y-105262501I0J249999D01*
G01*
X178700000Y-104737499D01*
G75*
G02*
X178949999Y-104487500I249999J0D01*
G01*
G37*
%TD.AperFunction*%
%TO.P,R7,2*%
%TO.N,/NRST*%
%TA.AperFunction,SMDPad,CuDef*%
G36*
G01*
X178949999Y-106312500D02*
X179850001Y-106312500D01*
G75*
G02*
X180100000Y-106562499I0J-249999D01*
G01*
X180100000Y-107087501D01*
G75*
G02*
X179850001Y-107337500I-249999J0D01*
G01*
X178949999Y-107337500D01*
G75*
G02*
X178700000Y-107087501I0J249999D01*
G01*
X178700000Y-106562499D01*
G75*
G02*
X178949999Y-106312500I249999J0D01*
G01*
G37*
%TD.AperFunction*%
%TD*%
%TO.P,R6,1*%
%TO.N,+3V3*%
%TA.AperFunction,SMDPad,CuDef*%
G36*
G01*
X139349999Y-107262500D02*
X140250001Y-107262500D01*
G75*
G02*
X140500000Y-107512499I0J-249999D01*
G01*
X140500000Y-108037501D01*
G75*
G02*
X140250001Y-108287500I-249999J0D01*
G01*
X139349999Y-108287500D01*
G75*
G02*
X139100000Y-108037501I0J249999D01*
G01*
X139100000Y-107512499D01*
G75*
G02*
X139349999Y-107262500I249999J0D01*
G01*
G37*
%TD.AperFunction*%
%TO.P,R6,2*%
%TO.N,Master_SCL*%
%TA.AperFunction,SMDPad,CuDef*%
G36*
G01*
X139349999Y-109087500D02*
X140250001Y-109087500D01*
G75*
G02*
X140500000Y-109337499I0J-249999D01*
G01*
X140500000Y-109862501D01*
G75*
G02*
X140250001Y-110112500I-249999J0D01*
G01*
X139349999Y-110112500D01*
G75*
G02*
X139100000Y-109862501I0J249999D01*
G01*
X139100000Y-109337499D01*
G75*
G02*
X139349999Y-109087500I249999J0D01*
G01*
G37*
%TD.AperFunction*%
%TD*%
%TO.P,R4,1*%
%TO.N,Net-(R4-Pad1)*%
%TA.AperFunction,SMDPad,CuDef*%
G36*
G01*
X153137500Y-111749999D02*
X153137500Y-112650001D01*
G75*
G02*
X152887501Y-112900000I-249999J0D01*
G01*
X152362499Y-112900000D01*
G75*
G02*
X152112500Y-112650001I0J249999D01*
G01*
X152112500Y-111749999D01*
G75*
G02*
X152362499Y-111500000I249999J0D01*
G01*
X152887501Y-111500000D01*
G75*
G02*
X153137500Y-111749999I0J-249999D01*
G01*
G37*
%TD.AperFunction*%
%TO.P,R4,2*%
%TO.N,GND*%
%TA.AperFunction,SMDPad,CuDef*%
G36*
G01*
X151312500Y-111749999D02*
X151312500Y-112650001D01*
G75*
G02*
X151062501Y-112900000I-249999J0D01*
G01*
X150537499Y-112900000D01*
G75*
G02*
X150287500Y-112650001I0J249999D01*
G01*
X150287500Y-111749999D01*
G75*
G02*
X150537499Y-111500000I249999J0D01*
G01*
X151062501Y-111500000D01*
G75*
G02*
X151312500Y-111749999I0J-249999D01*
G01*
G37*
%TD.AperFunction*%
%TD*%
%TO.P,R3,1*%
%TO.N,Net-(R3-Pad1)*%
%TA.AperFunction,SMDPad,CuDef*%
G36*
G01*
X139912500Y-104949999D02*
X139912500Y-105850001D01*
G75*
G02*
X139662501Y-106100000I-249999J0D01*
G01*
X139137499Y-106100000D01*
G75*
G02*
X138887500Y-105850001I0J249999D01*
G01*
X138887500Y-104949999D01*
G75*
G02*
X139137499Y-104700000I249999J0D01*
G01*
X139662501Y-104700000D01*
G75*
G02*
X139912500Y-104949999I0J-249999D01*
G01*
G37*
%TD.AperFunction*%
%TO.P,R3,2*%
%TO.N,GND*%
%TA.AperFunction,SMDPad,CuDef*%
G36*
G01*
X138087500Y-104949999D02*
X138087500Y-105850001D01*
G75*
G02*
X137837501Y-106100000I-249999J0D01*
G01*
X137312499Y-106100000D01*
G75*
G02*
X137062500Y-105850001I0J249999D01*
G01*
X137062500Y-104949999D01*
G75*
G02*
X137312499Y-104700000I249999J0D01*
G01*
X137837501Y-104700000D01*
G75*
G02*
X138087500Y-104949999I0J-249999D01*
G01*
G37*
%TD.AperFunction*%
%TD*%
%TO.P,R2,1*%
%TO.N,+3V3*%
%TA.AperFunction,SMDPad,CuDef*%
G36*
G01*
X136949999Y-107262500D02*
X137850001Y-107262500D01*
G75*
G02*
X138100000Y-107512499I0J-249999D01*
G01*
X138100000Y-108037501D01*
G75*
G02*
X137850001Y-108287500I-249999J0D01*
G01*
X136949999Y-108287500D01*
G75*
G02*
X136700000Y-108037501I0J249999D01*
G01*
X136700000Y-107512499D01*
G75*
G02*
X136949999Y-107262500I249999J0D01*
G01*
G37*
%TD.AperFunction*%
%TO.P,R2,2*%
%TO.N,Master_SDA*%
%TA.AperFunction,SMDPad,CuDef*%
G36*
G01*
X136949999Y-109087500D02*
X137850001Y-109087500D01*
G75*
G02*
X138100000Y-109337499I0J-249999D01*
G01*
X138100000Y-109862501D01*
G75*
G02*
X137850001Y-110112500I-249999J0D01*
G01*
X136949999Y-110112500D01*
G75*
G02*
X136700000Y-109862501I0J249999D01*
G01*
X136700000Y-109337499D01*
G75*
G02*
X136949999Y-109087500I249999J0D01*
G01*
G37*
%TD.AperFunction*%
%TD*%
%TO.P,R1,1*%
%TO.N,+3V3*%
%TA.AperFunction,SMDPad,CuDef*%
G36*
G01*
X153225000Y-109349999D02*
X153225000Y-110250001D01*
G75*
G02*
X152975001Y-110500000I-249999J0D01*
G01*
X152449999Y-110500000D01*
G75*
G02*
X152200000Y-110250001I0J249999D01*
G01*
X152200000Y-109349999D01*
G75*
G02*
X152449999Y-109100000I249999J0D01*
G01*
X152975001Y-109100000D01*
G75*
G02*
X153225000Y-109349999I0J-249999D01*
G01*
G37*
%TD.AperFunction*%
%TO.P,R1,2*%
%TO.N,/Master_Reset*%
%TA.AperFunction,SMDPad,CuDef*%
G36*
G01*
X151400000Y-109349999D02*
X151400000Y-110250001D01*
G75*
G02*
X151150001Y-110500000I-249999J0D01*
G01*
X150624999Y-110500000D01*
G75*
G02*
X150375000Y-110250001I0J249999D01*
G01*
X150375000Y-109349999D01*
G75*
G02*
X150624999Y-109100000I249999J0D01*
G01*
X151150001Y-109100000D01*
G75*
G02*
X151400000Y-109349999I0J-249999D01*
G01*
G37*
%TD.AperFunction*%
%TD*%
%TO.P,J8,MP*%
%TO.N,N/C*%
%TA.AperFunction,SMDPad,CuDef*%
G36*
G01*
X124900000Y-83700000D02*
X127100000Y-83700000D01*
G75*
G02*
X127350000Y-83950000I0J-250000D01*
G01*
X127350000Y-84450000D01*
G75*
G02*
X127100000Y-84700000I-250000J0D01*
G01*
X124900000Y-84700000D01*
G75*
G02*
X124650000Y-84450000I0J250000D01*
G01*
X124650000Y-83950000D01*
G75*
G02*
X124900000Y-83700000I250000J0D01*
G01*
G37*
%TD.AperFunction*%
%TA.AperFunction,SMDPad,CuDef*%
G36*
G01*
X124900000Y-73750000D02*
X127100000Y-73750000D01*
G75*
G02*
X127350000Y-74000000I0J-250000D01*
G01*
X127350000Y-74500000D01*
G75*
G02*
X127100000Y-74750000I-250000J0D01*
G01*
X124900000Y-74750000D01*
G75*
G02*
X124650000Y-74500000I0J250000D01*
G01*
X124650000Y-74000000D01*
G75*
G02*
X124900000Y-73750000I250000J0D01*
G01*
G37*
%TD.AperFunction*%
%TO.P,J8,6*%
%TO.N,GND*%
%TA.AperFunction,SMDPad,CuDef*%
G36*
G01*
X128500000Y-82050000D02*
X129900000Y-82050000D01*
G75*
G02*
X130050000Y-82200000I0J-150000D01*
G01*
X130050000Y-82500000D01*
G75*
G02*
X129900000Y-82650000I-150000J0D01*
G01*
X128500000Y-82650000D01*
G75*
G02*
X128350000Y-82500000I0J150000D01*
G01*
X128350000Y-82200000D01*
G75*
G02*
X128500000Y-82050000I150000J0D01*
G01*
G37*
%TD.AperFunction*%
%TO.P,J8,5*%
%TO.N,Net-(J8-Pad5)*%
%TA.AperFunction,SMDPad,CuDef*%
G36*
G01*
X128500000Y-80800000D02*
X129900000Y-80800000D01*
G75*
G02*
X130050000Y-80950000I0J-150000D01*
G01*
X130050000Y-81250000D01*
G75*
G02*
X129900000Y-81400000I-150000J0D01*
G01*
X128500000Y-81400000D01*
G75*
G02*
X128350000Y-81250000I0J150000D01*
G01*
X128350000Y-80950000D01*
G75*
G02*
X128500000Y-80800000I150000J0D01*
G01*
G37*
%TD.AperFunction*%
%TO.P,J8,4*%
%TO.N,Net-(J8-Pad4)*%
%TA.AperFunction,SMDPad,CuDef*%
G36*
G01*
X128500000Y-79550000D02*
X129900000Y-79550000D01*
G75*
G02*
X130050000Y-79700000I0J-150000D01*
G01*
X130050000Y-80000000D01*
G75*
G02*
X129900000Y-80150000I-150000J0D01*
G01*
X128500000Y-80150000D01*
G75*
G02*
X128350000Y-80000000I0J150000D01*
G01*
X128350000Y-79700000D01*
G75*
G02*
X128500000Y-79550000I150000J0D01*
G01*
G37*
%TD.AperFunction*%
%TO.P,J8,3*%
%TO.N,/UART1_RX*%
%TA.AperFunction,SMDPad,CuDef*%
G36*
G01*
X128500000Y-78300000D02*
X129900000Y-78300000D01*
G75*
G02*
X130050000Y-78450000I0J-150000D01*
G01*
X130050000Y-78750000D01*
G75*
G02*
X129900000Y-78900000I-150000J0D01*
G01*
X128500000Y-78900000D01*
G75*
G02*
X128350000Y-78750000I0J150000D01*
G01*
X128350000Y-78450000D01*
G75*
G02*
X128500000Y-78300000I150000J0D01*
G01*
G37*
%TD.AperFunction*%
%TO.P,J8,2*%
%TO.N,/UART1_TX*%
%TA.AperFunction,SMDPad,CuDef*%
G36*
G01*
X128500000Y-77050000D02*
X129900000Y-77050000D01*
G75*
G02*
X130050000Y-77200000I0J-150000D01*
G01*
X130050000Y-77500000D01*
G75*
G02*
X129900000Y-77650000I-150000J0D01*
G01*
X128500000Y-77650000D01*
G75*
G02*
X128350000Y-77500000I0J150000D01*
G01*
X128350000Y-77200000D01*
G75*
G02*
X128500000Y-77050000I150000J0D01*
G01*
G37*
%TD.AperFunction*%
%TO.P,J8,1*%
%TO.N,Net-(J8-Pad1)*%
%TA.AperFunction,SMDPad,CuDef*%
G36*
G01*
X128500000Y-75800000D02*
X129900000Y-75800000D01*
G75*
G02*
X130050000Y-75950000I0J-150000D01*
G01*
X130050000Y-76250000D01*
G75*
G02*
X129900000Y-76400000I-150000J0D01*
G01*
X128500000Y-76400000D01*
G75*
G02*
X128350000Y-76250000I0J150000D01*
G01*
X128350000Y-75950000D01*
G75*
G02*
X128500000Y-75800000I150000J0D01*
G01*
G37*
%TD.AperFunction*%
%TD*%
D15*
%TO.P,J7,2*%
%TO.N,GND*%
X189000000Y-74300000D03*
D16*
%TO.P,J7,1*%
%TO.N,+5V*%
X189000000Y-77800000D03*
%TD*%
D17*
%TO.P,J6,10*%
%TO.N,/NRST*%
X147740000Y-74400000D03*
%TO.P,J6,9*%
%TO.N,GND*%
X147740000Y-70800000D03*
%TO.P,J6,8*%
%TO.N,Net-(J6-Pad8)*%
X146470000Y-74400000D03*
%TO.P,J6,7*%
%TO.N,Net-(J6-Pad7)*%
X146470000Y-70800000D03*
%TO.P,J6,6*%
%TO.N,/SWO*%
X145200000Y-74400000D03*
%TO.P,J6,5*%
%TO.N,GND*%
X145200000Y-70800000D03*
%TO.P,J6,4*%
%TO.N,/SWCLK*%
X143930000Y-74400000D03*
%TO.P,J6,3*%
%TO.N,GND*%
X143930000Y-70800000D03*
%TO.P,J6,2*%
%TO.N,/SWDIO*%
X142660000Y-74400000D03*
%TO.P,J6,1*%
%TO.N,+3V3*%
X142660000Y-70800000D03*
%TD*%
%TO.P,J5,MP*%
%TO.N,N/C*%
%TA.AperFunction,SMDPad,CuDef*%
G36*
G01*
X144975000Y-123450000D02*
X144975000Y-125750000D01*
G75*
G02*
X144725000Y-126000000I-250000J0D01*
G01*
X144225000Y-126000000D01*
G75*
G02*
X143975000Y-125750000I0J250000D01*
G01*
X143975000Y-123450000D01*
G75*
G02*
X144225000Y-123200000I250000J0D01*
G01*
X144725000Y-123200000D01*
G75*
G02*
X144975000Y-123450000I0J-250000D01*
G01*
G37*
%TD.AperFunction*%
%TA.AperFunction,SMDPad,CuDef*%
G36*
G01*
X152425000Y-123450000D02*
X152425000Y-125750000D01*
G75*
G02*
X152175000Y-126000000I-250000J0D01*
G01*
X151675000Y-126000000D01*
G75*
G02*
X151425000Y-125750000I0J250000D01*
G01*
X151425000Y-123450000D01*
G75*
G02*
X151675000Y-123200000I250000J0D01*
G01*
X152175000Y-123200000D01*
G75*
G02*
X152425000Y-123450000I0J-250000D01*
G01*
G37*
%TD.AperFunction*%
%TO.P,J5,4*%
%TO.N,GND*%
%TA.AperFunction,SMDPad,CuDef*%
G36*
G01*
X146625000Y-120550000D02*
X146625000Y-121950000D01*
G75*
G02*
X146475000Y-122100000I-150000J0D01*
G01*
X146175000Y-122100000D01*
G75*
G02*
X146025000Y-121950000I0J150000D01*
G01*
X146025000Y-120550000D01*
G75*
G02*
X146175000Y-120400000I150000J0D01*
G01*
X146475000Y-120400000D01*
G75*
G02*
X146625000Y-120550000I0J-150000D01*
G01*
G37*
%TD.AperFunction*%
%TO.P,J5,3*%
%TO.N,/Upward_SCL*%
%TA.AperFunction,SMDPad,CuDef*%
G36*
G01*
X147875000Y-120550000D02*
X147875000Y-121950000D01*
G75*
G02*
X147725000Y-122100000I-150000J0D01*
G01*
X147425000Y-122100000D01*
G75*
G02*
X147275000Y-121950000I0J150000D01*
G01*
X147275000Y-120550000D01*
G75*
G02*
X147425000Y-120400000I150000J0D01*
G01*
X147725000Y-120400000D01*
G75*
G02*
X147875000Y-120550000I0J-150000D01*
G01*
G37*
%TD.AperFunction*%
%TO.P,J5,2*%
%TO.N,/Upward_SDA*%
%TA.AperFunction,SMDPad,CuDef*%
G36*
G01*
X149125000Y-120550000D02*
X149125000Y-121950000D01*
G75*
G02*
X148975000Y-122100000I-150000J0D01*
G01*
X148675000Y-122100000D01*
G75*
G02*
X148525000Y-121950000I0J150000D01*
G01*
X148525000Y-120550000D01*
G75*
G02*
X148675000Y-120400000I150000J0D01*
G01*
X148975000Y-120400000D01*
G75*
G02*
X149125000Y-120550000I0J-150000D01*
G01*
G37*
%TD.AperFunction*%
%TO.P,J5,1*%
%TO.N,+5V*%
%TA.AperFunction,SMDPad,CuDef*%
G36*
G01*
X150375000Y-120550000D02*
X150375000Y-121950000D01*
G75*
G02*
X150225000Y-122100000I-150000J0D01*
G01*
X149925000Y-122100000D01*
G75*
G02*
X149775000Y-121950000I0J150000D01*
G01*
X149775000Y-120550000D01*
G75*
G02*
X149925000Y-120400000I150000J0D01*
G01*
X150225000Y-120400000D01*
G75*
G02*
X150375000Y-120550000I0J-150000D01*
G01*
G37*
%TD.AperFunction*%
%TD*%
%TO.P,J4,MP*%
%TO.N,N/C*%
%TA.AperFunction,SMDPad,CuDef*%
G36*
G01*
X192850000Y-90375000D02*
X190650000Y-90375000D01*
G75*
G02*
X190400000Y-90125000I0J250000D01*
G01*
X190400000Y-89625000D01*
G75*
G02*
X190650000Y-89375000I250000J0D01*
G01*
X192850000Y-89375000D01*
G75*
G02*
X193100000Y-89625000I0J-250000D01*
G01*
X193100000Y-90125000D01*
G75*
G02*
X192850000Y-90375000I-250000J0D01*
G01*
G37*
%TD.AperFunction*%
%TA.AperFunction,SMDPad,CuDef*%
G36*
G01*
X192850000Y-97825000D02*
X190650000Y-97825000D01*
G75*
G02*
X190400000Y-97575000I0J250000D01*
G01*
X190400000Y-97075000D01*
G75*
G02*
X190650000Y-96825000I250000J0D01*
G01*
X192850000Y-96825000D01*
G75*
G02*
X193100000Y-97075000I0J-250000D01*
G01*
X193100000Y-97575000D01*
G75*
G02*
X192850000Y-97825000I-250000J0D01*
G01*
G37*
%TD.AperFunction*%
%TO.P,J4,4*%
%TO.N,GND*%
%TA.AperFunction,SMDPad,CuDef*%
G36*
G01*
X189250000Y-92025000D02*
X187850000Y-92025000D01*
G75*
G02*
X187700000Y-91875000I0J150000D01*
G01*
X187700000Y-91575000D01*
G75*
G02*
X187850000Y-91425000I150000J0D01*
G01*
X189250000Y-91425000D01*
G75*
G02*
X189400000Y-91575000I0J-150000D01*
G01*
X189400000Y-91875000D01*
G75*
G02*
X189250000Y-92025000I-150000J0D01*
G01*
G37*
%TD.AperFunction*%
%TO.P,J4,3*%
%TO.N,/Left_SCL*%
%TA.AperFunction,SMDPad,CuDef*%
G36*
G01*
X189250000Y-93275000D02*
X187850000Y-93275000D01*
G75*
G02*
X187700000Y-93125000I0J150000D01*
G01*
X187700000Y-92825000D01*
G75*
G02*
X187850000Y-92675000I150000J0D01*
G01*
X189250000Y-92675000D01*
G75*
G02*
X189400000Y-92825000I0J-150000D01*
G01*
X189400000Y-93125000D01*
G75*
G02*
X189250000Y-93275000I-150000J0D01*
G01*
G37*
%TD.AperFunction*%
%TO.P,J4,2*%
%TO.N,/Left_SDA*%
%TA.AperFunction,SMDPad,CuDef*%
G36*
G01*
X189250000Y-94525000D02*
X187850000Y-94525000D01*
G75*
G02*
X187700000Y-94375000I0J150000D01*
G01*
X187700000Y-94075000D01*
G75*
G02*
X187850000Y-93925000I150000J0D01*
G01*
X189250000Y-93925000D01*
G75*
G02*
X189400000Y-94075000I0J-150000D01*
G01*
X189400000Y-94375000D01*
G75*
G02*
X189250000Y-94525000I-150000J0D01*
G01*
G37*
%TD.AperFunction*%
%TO.P,J4,1*%
%TO.N,+5V*%
%TA.AperFunction,SMDPad,CuDef*%
G36*
G01*
X189250000Y-95775000D02*
X187850000Y-95775000D01*
G75*
G02*
X187700000Y-95625000I0J150000D01*
G01*
X187700000Y-95325000D01*
G75*
G02*
X187850000Y-95175000I150000J0D01*
G01*
X189250000Y-95175000D01*
G75*
G02*
X189400000Y-95325000I0J-150000D01*
G01*
X189400000Y-95625000D01*
G75*
G02*
X189250000Y-95775000I-150000J0D01*
G01*
G37*
%TD.AperFunction*%
%TD*%
%TO.P,J3,MP*%
%TO.N,N/C*%
%TA.AperFunction,SMDPad,CuDef*%
G36*
G01*
X156650000Y-61100000D02*
X156650000Y-63300000D01*
G75*
G02*
X156400000Y-63550000I-250000J0D01*
G01*
X155900000Y-63550000D01*
G75*
G02*
X155650000Y-63300000I0J250000D01*
G01*
X155650000Y-61100000D01*
G75*
G02*
X155900000Y-60850000I250000J0D01*
G01*
X156400000Y-60850000D01*
G75*
G02*
X156650000Y-61100000I0J-250000D01*
G01*
G37*
%TD.AperFunction*%
%TA.AperFunction,SMDPad,CuDef*%
G36*
G01*
X164100000Y-61100000D02*
X164100000Y-63300000D01*
G75*
G02*
X163850000Y-63550000I-250000J0D01*
G01*
X163350000Y-63550000D01*
G75*
G02*
X163100000Y-63300000I0J250000D01*
G01*
X163100000Y-61100000D01*
G75*
G02*
X163350000Y-60850000I250000J0D01*
G01*
X163850000Y-60850000D01*
G75*
G02*
X164100000Y-61100000I0J-250000D01*
G01*
G37*
%TD.AperFunction*%
%TO.P,J3,4*%
%TO.N,GND*%
%TA.AperFunction,SMDPad,CuDef*%
G36*
G01*
X158300000Y-64700000D02*
X158300000Y-66100000D01*
G75*
G02*
X158150000Y-66250000I-150000J0D01*
G01*
X157850000Y-66250000D01*
G75*
G02*
X157700000Y-66100000I0J150000D01*
G01*
X157700000Y-64700000D01*
G75*
G02*
X157850000Y-64550000I150000J0D01*
G01*
X158150000Y-64550000D01*
G75*
G02*
X158300000Y-64700000I0J-150000D01*
G01*
G37*
%TD.AperFunction*%
%TO.P,J3,3*%
%TO.N,/Rear_SCL*%
%TA.AperFunction,SMDPad,CuDef*%
G36*
G01*
X159550000Y-64700000D02*
X159550000Y-66100000D01*
G75*
G02*
X159400000Y-66250000I-150000J0D01*
G01*
X159100000Y-66250000D01*
G75*
G02*
X158950000Y-66100000I0J150000D01*
G01*
X158950000Y-64700000D01*
G75*
G02*
X159100000Y-64550000I150000J0D01*
G01*
X159400000Y-64550000D01*
G75*
G02*
X159550000Y-64700000I0J-150000D01*
G01*
G37*
%TD.AperFunction*%
%TO.P,J3,2*%
%TO.N,/Rear_SDA*%
%TA.AperFunction,SMDPad,CuDef*%
G36*
G01*
X160800000Y-64700000D02*
X160800000Y-66100000D01*
G75*
G02*
X160650000Y-66250000I-150000J0D01*
G01*
X160350000Y-66250000D01*
G75*
G02*
X160200000Y-66100000I0J150000D01*
G01*
X160200000Y-64700000D01*
G75*
G02*
X160350000Y-64550000I150000J0D01*
G01*
X160650000Y-64550000D01*
G75*
G02*
X160800000Y-64700000I0J-150000D01*
G01*
G37*
%TD.AperFunction*%
%TO.P,J3,1*%
%TO.N,+5V*%
%TA.AperFunction,SMDPad,CuDef*%
G36*
G01*
X162050000Y-64700000D02*
X162050000Y-66100000D01*
G75*
G02*
X161900000Y-66250000I-150000J0D01*
G01*
X161600000Y-66250000D01*
G75*
G02*
X161450000Y-66100000I0J150000D01*
G01*
X161450000Y-64700000D01*
G75*
G02*
X161600000Y-64550000I150000J0D01*
G01*
X161900000Y-64550000D01*
G75*
G02*
X162050000Y-64700000I0J-150000D01*
G01*
G37*
%TD.AperFunction*%
%TD*%
%TO.P,J2,MP*%
%TO.N,N/C*%
%TA.AperFunction,SMDPad,CuDef*%
G36*
G01*
X124900000Y-102750000D02*
X127100000Y-102750000D01*
G75*
G02*
X127350000Y-103000000I0J-250000D01*
G01*
X127350000Y-103500000D01*
G75*
G02*
X127100000Y-103750000I-250000J0D01*
G01*
X124900000Y-103750000D01*
G75*
G02*
X124650000Y-103500000I0J250000D01*
G01*
X124650000Y-103000000D01*
G75*
G02*
X124900000Y-102750000I250000J0D01*
G01*
G37*
%TD.AperFunction*%
%TA.AperFunction,SMDPad,CuDef*%
G36*
G01*
X124900000Y-95300000D02*
X127100000Y-95300000D01*
G75*
G02*
X127350000Y-95550000I0J-250000D01*
G01*
X127350000Y-96050000D01*
G75*
G02*
X127100000Y-96300000I-250000J0D01*
G01*
X124900000Y-96300000D01*
G75*
G02*
X124650000Y-96050000I0J250000D01*
G01*
X124650000Y-95550000D01*
G75*
G02*
X124900000Y-95300000I250000J0D01*
G01*
G37*
%TD.AperFunction*%
%TO.P,J2,4*%
%TO.N,GND*%
%TA.AperFunction,SMDPad,CuDef*%
G36*
G01*
X128500000Y-101100000D02*
X129900000Y-101100000D01*
G75*
G02*
X130050000Y-101250000I0J-150000D01*
G01*
X130050000Y-101550000D01*
G75*
G02*
X129900000Y-101700000I-150000J0D01*
G01*
X128500000Y-101700000D01*
G75*
G02*
X128350000Y-101550000I0J150000D01*
G01*
X128350000Y-101250000D01*
G75*
G02*
X128500000Y-101100000I150000J0D01*
G01*
G37*
%TD.AperFunction*%
%TO.P,J2,3*%
%TO.N,/Right_SCL*%
%TA.AperFunction,SMDPad,CuDef*%
G36*
G01*
X128500000Y-99850000D02*
X129900000Y-99850000D01*
G75*
G02*
X130050000Y-100000000I0J-150000D01*
G01*
X130050000Y-100300000D01*
G75*
G02*
X129900000Y-100450000I-150000J0D01*
G01*
X128500000Y-100450000D01*
G75*
G02*
X128350000Y-100300000I0J150000D01*
G01*
X128350000Y-100000000D01*
G75*
G02*
X128500000Y-99850000I150000J0D01*
G01*
G37*
%TD.AperFunction*%
%TO.P,J2,2*%
%TO.N,/Right_SDA*%
%TA.AperFunction,SMDPad,CuDef*%
G36*
G01*
X128500000Y-98600000D02*
X129900000Y-98600000D01*
G75*
G02*
X130050000Y-98750000I0J-150000D01*
G01*
X130050000Y-99050000D01*
G75*
G02*
X129900000Y-99200000I-150000J0D01*
G01*
X128500000Y-99200000D01*
G75*
G02*
X128350000Y-99050000I0J150000D01*
G01*
X128350000Y-98750000D01*
G75*
G02*
X128500000Y-98600000I150000J0D01*
G01*
G37*
%TD.AperFunction*%
%TO.P,J2,1*%
%TO.N,+5V*%
%TA.AperFunction,SMDPad,CuDef*%
G36*
G01*
X128500000Y-97350000D02*
X129900000Y-97350000D01*
G75*
G02*
X130050000Y-97500000I0J-150000D01*
G01*
X130050000Y-97800000D01*
G75*
G02*
X129900000Y-97950000I-150000J0D01*
G01*
X128500000Y-97950000D01*
G75*
G02*
X128350000Y-97800000I0J150000D01*
G01*
X128350000Y-97500000D01*
G75*
G02*
X128500000Y-97350000I150000J0D01*
G01*
G37*
%TD.AperFunction*%
%TD*%
%TO.P,J1,MP*%
%TO.N,N/C*%
%TA.AperFunction,SMDPad,CuDef*%
G36*
G01*
X173750000Y-125750000D02*
X173750000Y-123550000D01*
G75*
G02*
X174000000Y-123300000I250000J0D01*
G01*
X174500000Y-123300000D01*
G75*
G02*
X174750000Y-123550000I0J-250000D01*
G01*
X174750000Y-125750000D01*
G75*
G02*
X174500000Y-126000000I-250000J0D01*
G01*
X174000000Y-126000000D01*
G75*
G02*
X173750000Y-125750000I0J250000D01*
G01*
G37*
%TD.AperFunction*%
%TA.AperFunction,SMDPad,CuDef*%
G36*
G01*
X166300000Y-125750000D02*
X166300000Y-123550000D01*
G75*
G02*
X166550000Y-123300000I250000J0D01*
G01*
X167050000Y-123300000D01*
G75*
G02*
X167300000Y-123550000I0J-250000D01*
G01*
X167300000Y-125750000D01*
G75*
G02*
X167050000Y-126000000I-250000J0D01*
G01*
X166550000Y-126000000D01*
G75*
G02*
X166300000Y-125750000I0J250000D01*
G01*
G37*
%TD.AperFunction*%
%TO.P,J1,4*%
%TO.N,GND*%
%TA.AperFunction,SMDPad,CuDef*%
G36*
G01*
X172100000Y-122150000D02*
X172100000Y-120750000D01*
G75*
G02*
X172250000Y-120600000I150000J0D01*
G01*
X172550000Y-120600000D01*
G75*
G02*
X172700000Y-120750000I0J-150000D01*
G01*
X172700000Y-122150000D01*
G75*
G02*
X172550000Y-122300000I-150000J0D01*
G01*
X172250000Y-122300000D01*
G75*
G02*
X172100000Y-122150000I0J150000D01*
G01*
G37*
%TD.AperFunction*%
%TO.P,J1,3*%
%TO.N,/Forward_SCL*%
%TA.AperFunction,SMDPad,CuDef*%
G36*
G01*
X170850000Y-122150000D02*
X170850000Y-120750000D01*
G75*
G02*
X171000000Y-120600000I150000J0D01*
G01*
X171300000Y-120600000D01*
G75*
G02*
X171450000Y-120750000I0J-150000D01*
G01*
X171450000Y-122150000D01*
G75*
G02*
X171300000Y-122300000I-150000J0D01*
G01*
X171000000Y-122300000D01*
G75*
G02*
X170850000Y-122150000I0J150000D01*
G01*
G37*
%TD.AperFunction*%
%TO.P,J1,2*%
%TO.N,/Forward_SDA*%
%TA.AperFunction,SMDPad,CuDef*%
G36*
G01*
X169600000Y-122150000D02*
X169600000Y-120750000D01*
G75*
G02*
X169750000Y-120600000I150000J0D01*
G01*
X170050000Y-120600000D01*
G75*
G02*
X170200000Y-120750000I0J-150000D01*
G01*
X170200000Y-122150000D01*
G75*
G02*
X170050000Y-122300000I-150000J0D01*
G01*
X169750000Y-122300000D01*
G75*
G02*
X169600000Y-122150000I0J150000D01*
G01*
G37*
%TD.AperFunction*%
%TO.P,J1,1*%
%TO.N,+5V*%
%TA.AperFunction,SMDPad,CuDef*%
G36*
G01*
X168350000Y-122150000D02*
X168350000Y-120750000D01*
G75*
G02*
X168500000Y-120600000I150000J0D01*
G01*
X168800000Y-120600000D01*
G75*
G02*
X168950000Y-120750000I0J-150000D01*
G01*
X168950000Y-122150000D01*
G75*
G02*
X168800000Y-122300000I-150000J0D01*
G01*
X168500000Y-122300000D01*
G75*
G02*
X168350000Y-122150000I0J150000D01*
G01*
G37*
%TD.AperFunction*%
%TD*%
%TO.P,D6,2*%
%TO.N,+3V3*%
%TA.AperFunction,SMDPad,CuDef*%
G36*
G01*
X177200000Y-81456250D02*
X177200000Y-80543750D01*
G75*
G02*
X177443750Y-80300000I243750J0D01*
G01*
X177931250Y-80300000D01*
G75*
G02*
X178175000Y-80543750I0J-243750D01*
G01*
X178175000Y-81456250D01*
G75*
G02*
X177931250Y-81700000I-243750J0D01*
G01*
X177443750Y-81700000D01*
G75*
G02*
X177200000Y-81456250I0J243750D01*
G01*
G37*
%TD.AperFunction*%
%TO.P,D6,1*%
%TO.N,Net-(D6-Pad1)*%
%TA.AperFunction,SMDPad,CuDef*%
G36*
G01*
X175325000Y-81456250D02*
X175325000Y-80543750D01*
G75*
G02*
X175568750Y-80300000I243750J0D01*
G01*
X176056250Y-80300000D01*
G75*
G02*
X176300000Y-80543750I0J-243750D01*
G01*
X176300000Y-81456250D01*
G75*
G02*
X176056250Y-81700000I-243750J0D01*
G01*
X175568750Y-81700000D01*
G75*
G02*
X175325000Y-81456250I0J243750D01*
G01*
G37*
%TD.AperFunction*%
%TD*%
%TO.P,D5,2*%
%TO.N,/Rear_LED*%
%TA.AperFunction,SMDPad,CuDef*%
G36*
G01*
X166443750Y-66350000D02*
X167356250Y-66350000D01*
G75*
G02*
X167600000Y-66593750I0J-243750D01*
G01*
X167600000Y-67081250D01*
G75*
G02*
X167356250Y-67325000I-243750J0D01*
G01*
X166443750Y-67325000D01*
G75*
G02*
X166200000Y-67081250I0J243750D01*
G01*
X166200000Y-66593750D01*
G75*
G02*
X166443750Y-66350000I243750J0D01*
G01*
G37*
%TD.AperFunction*%
%TO.P,D5,1*%
%TO.N,Net-(D5-Pad1)*%
%TA.AperFunction,SMDPad,CuDef*%
G36*
G01*
X166443750Y-64475000D02*
X167356250Y-64475000D01*
G75*
G02*
X167600000Y-64718750I0J-243750D01*
G01*
X167600000Y-65206250D01*
G75*
G02*
X167356250Y-65450000I-243750J0D01*
G01*
X166443750Y-65450000D01*
G75*
G02*
X166200000Y-65206250I0J243750D01*
G01*
X166200000Y-64718750D01*
G75*
G02*
X166443750Y-64475000I243750J0D01*
G01*
G37*
%TD.AperFunction*%
%TD*%
%TO.P,D4,2*%
%TO.N,/Upward_LED*%
%TA.AperFunction,SMDPad,CuDef*%
G36*
G01*
X155956250Y-120250000D02*
X155043750Y-120250000D01*
G75*
G02*
X154800000Y-120006250I0J243750D01*
G01*
X154800000Y-119518750D01*
G75*
G02*
X155043750Y-119275000I243750J0D01*
G01*
X155956250Y-119275000D01*
G75*
G02*
X156200000Y-119518750I0J-243750D01*
G01*
X156200000Y-120006250D01*
G75*
G02*
X155956250Y-120250000I-243750J0D01*
G01*
G37*
%TD.AperFunction*%
%TO.P,D4,1*%
%TO.N,Net-(D4-Pad1)*%
%TA.AperFunction,SMDPad,CuDef*%
G36*
G01*
X155956250Y-122125000D02*
X155043750Y-122125000D01*
G75*
G02*
X154800000Y-121881250I0J243750D01*
G01*
X154800000Y-121393750D01*
G75*
G02*
X155043750Y-121150000I243750J0D01*
G01*
X155956250Y-121150000D01*
G75*
G02*
X156200000Y-121393750I0J-243750D01*
G01*
X156200000Y-121881250D01*
G75*
G02*
X155956250Y-122125000I-243750J0D01*
G01*
G37*
%TD.AperFunction*%
%TD*%
%TO.P,D3,2*%
%TO.N,/Right_LED*%
%TA.AperFunction,SMDPad,CuDef*%
G36*
G01*
X130112500Y-93006250D02*
X130112500Y-92093750D01*
G75*
G02*
X130356250Y-91850000I243750J0D01*
G01*
X130843750Y-91850000D01*
G75*
G02*
X131087500Y-92093750I0J-243750D01*
G01*
X131087500Y-93006250D01*
G75*
G02*
X130843750Y-93250000I-243750J0D01*
G01*
X130356250Y-93250000D01*
G75*
G02*
X130112500Y-93006250I0J243750D01*
G01*
G37*
%TD.AperFunction*%
%TO.P,D3,1*%
%TO.N,Net-(D3-Pad1)*%
%TA.AperFunction,SMDPad,CuDef*%
G36*
G01*
X128237500Y-93006250D02*
X128237500Y-92093750D01*
G75*
G02*
X128481250Y-91850000I243750J0D01*
G01*
X128968750Y-91850000D01*
G75*
G02*
X129212500Y-92093750I0J-243750D01*
G01*
X129212500Y-93006250D01*
G75*
G02*
X128968750Y-93250000I-243750J0D01*
G01*
X128481250Y-93250000D01*
G75*
G02*
X128237500Y-93006250I0J243750D01*
G01*
G37*
%TD.AperFunction*%
%TD*%
%TO.P,D2,2*%
%TO.N,/Left_LED*%
%TA.AperFunction,SMDPad,CuDef*%
G36*
G01*
X187450000Y-100893750D02*
X187450000Y-101806250D01*
G75*
G02*
X187206250Y-102050000I-243750J0D01*
G01*
X186718750Y-102050000D01*
G75*
G02*
X186475000Y-101806250I0J243750D01*
G01*
X186475000Y-100893750D01*
G75*
G02*
X186718750Y-100650000I243750J0D01*
G01*
X187206250Y-100650000D01*
G75*
G02*
X187450000Y-100893750I0J-243750D01*
G01*
G37*
%TD.AperFunction*%
%TO.P,D2,1*%
%TO.N,Net-(D2-Pad1)*%
%TA.AperFunction,SMDPad,CuDef*%
G36*
G01*
X189325000Y-100893750D02*
X189325000Y-101806250D01*
G75*
G02*
X189081250Y-102050000I-243750J0D01*
G01*
X188593750Y-102050000D01*
G75*
G02*
X188350000Y-101806250I0J243750D01*
G01*
X188350000Y-100893750D01*
G75*
G02*
X188593750Y-100650000I243750J0D01*
G01*
X189081250Y-100650000D01*
G75*
G02*
X189325000Y-100893750I0J-243750D01*
G01*
G37*
%TD.AperFunction*%
%TD*%
%TO.P,D1,2*%
%TO.N,/Forward_LED*%
%TA.AperFunction,SMDPad,CuDef*%
G36*
G01*
X163256250Y-120387500D02*
X162343750Y-120387500D01*
G75*
G02*
X162100000Y-120143750I0J243750D01*
G01*
X162100000Y-119656250D01*
G75*
G02*
X162343750Y-119412500I243750J0D01*
G01*
X163256250Y-119412500D01*
G75*
G02*
X163500000Y-119656250I0J-243750D01*
G01*
X163500000Y-120143750D01*
G75*
G02*
X163256250Y-120387500I-243750J0D01*
G01*
G37*
%TD.AperFunction*%
%TO.P,D1,1*%
%TO.N,Net-(D1-Pad1)*%
%TA.AperFunction,SMDPad,CuDef*%
G36*
G01*
X163256250Y-122262500D02*
X162343750Y-122262500D01*
G75*
G02*
X162100000Y-122018750I0J243750D01*
G01*
X162100000Y-121531250D01*
G75*
G02*
X162343750Y-121287500I243750J0D01*
G01*
X163256250Y-121287500D01*
G75*
G02*
X163500000Y-121531250I0J-243750D01*
G01*
X163500000Y-122018750D01*
G75*
G02*
X163256250Y-122262500I-243750J0D01*
G01*
G37*
%TD.AperFunction*%
%TD*%
%TO.P,C14,2*%
%TO.N,GND*%
%TA.AperFunction,SMDPad,CuDef*%
G36*
G01*
X154125000Y-99550000D02*
X155075000Y-99550000D01*
G75*
G02*
X155325000Y-99800000I0J-250000D01*
G01*
X155325000Y-100300000D01*
G75*
G02*
X155075000Y-100550000I-250000J0D01*
G01*
X154125000Y-100550000D01*
G75*
G02*
X153875000Y-100300000I0J250000D01*
G01*
X153875000Y-99800000D01*
G75*
G02*
X154125000Y-99550000I250000J0D01*
G01*
G37*
%TD.AperFunction*%
%TO.P,C14,1*%
%TO.N,+3V3*%
%TA.AperFunction,SMDPad,CuDef*%
G36*
G01*
X154125000Y-97650000D02*
X155075000Y-97650000D01*
G75*
G02*
X155325000Y-97900000I0J-250000D01*
G01*
X155325000Y-98400000D01*
G75*
G02*
X155075000Y-98650000I-250000J0D01*
G01*
X154125000Y-98650000D01*
G75*
G02*
X153875000Y-98400000I0J250000D01*
G01*
X153875000Y-97900000D01*
G75*
G02*
X154125000Y-97650000I250000J0D01*
G01*
G37*
%TD.AperFunction*%
%TD*%
%TO.P,C13,2*%
%TO.N,GND*%
%TA.AperFunction,SMDPad,CuDef*%
G36*
G01*
X151350000Y-101075000D02*
X151350000Y-102025000D01*
G75*
G02*
X151100000Y-102275000I-250000J0D01*
G01*
X150600000Y-102275000D01*
G75*
G02*
X150350000Y-102025000I0J250000D01*
G01*
X150350000Y-101075000D01*
G75*
G02*
X150600000Y-100825000I250000J0D01*
G01*
X151100000Y-100825000D01*
G75*
G02*
X151350000Y-101075000I0J-250000D01*
G01*
G37*
%TD.AperFunction*%
%TO.P,C13,1*%
%TO.N,+3V3*%
%TA.AperFunction,SMDPad,CuDef*%
G36*
G01*
X153250000Y-101075000D02*
X153250000Y-102025000D01*
G75*
G02*
X153000000Y-102275000I-250000J0D01*
G01*
X152500000Y-102275000D01*
G75*
G02*
X152250000Y-102025000I0J250000D01*
G01*
X152250000Y-101075000D01*
G75*
G02*
X152500000Y-100825000I250000J0D01*
G01*
X153000000Y-100825000D01*
G75*
G02*
X153250000Y-101075000I0J-250000D01*
G01*
G37*
%TD.AperFunction*%
%TD*%
%TO.P,C12,2*%
%TO.N,GND*%
%TA.AperFunction,SMDPad,CuDef*%
G36*
G01*
X144550000Y-85675000D02*
X144550000Y-84725000D01*
G75*
G02*
X144800000Y-84475000I250000J0D01*
G01*
X145300000Y-84475000D01*
G75*
G02*
X145550000Y-84725000I0J-250000D01*
G01*
X145550000Y-85675000D01*
G75*
G02*
X145300000Y-85925000I-250000J0D01*
G01*
X144800000Y-85925000D01*
G75*
G02*
X144550000Y-85675000I0J250000D01*
G01*
G37*
%TD.AperFunction*%
%TO.P,C12,1*%
%TO.N,+3V3*%
%TA.AperFunction,SMDPad,CuDef*%
G36*
G01*
X142650000Y-85675000D02*
X142650000Y-84725000D01*
G75*
G02*
X142900000Y-84475000I250000J0D01*
G01*
X143400000Y-84475000D01*
G75*
G02*
X143650000Y-84725000I0J-250000D01*
G01*
X143650000Y-85675000D01*
G75*
G02*
X143400000Y-85925000I-250000J0D01*
G01*
X142900000Y-85925000D01*
G75*
G02*
X142650000Y-85675000I0J250000D01*
G01*
G37*
%TD.AperFunction*%
%TD*%
%TO.P,C10,2*%
%TO.N,GND*%
%TA.AperFunction,SMDPad,CuDef*%
G36*
G01*
X155525000Y-90000000D02*
X156475000Y-90000000D01*
G75*
G02*
X156725000Y-90250000I0J-250000D01*
G01*
X156725000Y-90750000D01*
G75*
G02*
X156475000Y-91000000I-250000J0D01*
G01*
X155525000Y-91000000D01*
G75*
G02*
X155275000Y-90750000I0J250000D01*
G01*
X155275000Y-90250000D01*
G75*
G02*
X155525000Y-90000000I250000J0D01*
G01*
G37*
%TD.AperFunction*%
%TO.P,C10,1*%
%TO.N,+3V3*%
%TA.AperFunction,SMDPad,CuDef*%
G36*
G01*
X155525000Y-88100000D02*
X156475000Y-88100000D01*
G75*
G02*
X156725000Y-88350000I0J-250000D01*
G01*
X156725000Y-88850000D01*
G75*
G02*
X156475000Y-89100000I-250000J0D01*
G01*
X155525000Y-89100000D01*
G75*
G02*
X155275000Y-88850000I0J250000D01*
G01*
X155275000Y-88350000D01*
G75*
G02*
X155525000Y-88100000I250000J0D01*
G01*
G37*
%TD.AperFunction*%
%TD*%
%TO.P,C9,2*%
%TO.N,GND*%
%TA.AperFunction,SMDPad,CuDef*%
G36*
G01*
X152800000Y-85275000D02*
X152800000Y-84325000D01*
G75*
G02*
X153050000Y-84075000I250000J0D01*
G01*
X153550000Y-84075000D01*
G75*
G02*
X153800000Y-84325000I0J-250000D01*
G01*
X153800000Y-85275000D01*
G75*
G02*
X153550000Y-85525000I-250000J0D01*
G01*
X153050000Y-85525000D01*
G75*
G02*
X152800000Y-85275000I0J250000D01*
G01*
G37*
%TD.AperFunction*%
%TO.P,C9,1*%
%TO.N,+3V3*%
%TA.AperFunction,SMDPad,CuDef*%
G36*
G01*
X150900000Y-85275000D02*
X150900000Y-84325000D01*
G75*
G02*
X151150000Y-84075000I250000J0D01*
G01*
X151650000Y-84075000D01*
G75*
G02*
X151900000Y-84325000I0J-250000D01*
G01*
X151900000Y-85275000D01*
G75*
G02*
X151650000Y-85525000I-250000J0D01*
G01*
X151150000Y-85525000D01*
G75*
G02*
X150900000Y-85275000I0J250000D01*
G01*
G37*
%TD.AperFunction*%
%TD*%
%TO.P,C8,2*%
%TO.N,GND*%
%TA.AperFunction,SMDPad,CuDef*%
G36*
G01*
X180275000Y-78300000D02*
X179325000Y-78300000D01*
G75*
G02*
X179075000Y-78050000I0J250000D01*
G01*
X179075000Y-77550000D01*
G75*
G02*
X179325000Y-77300000I250000J0D01*
G01*
X180275000Y-77300000D01*
G75*
G02*
X180525000Y-77550000I0J-250000D01*
G01*
X180525000Y-78050000D01*
G75*
G02*
X180275000Y-78300000I-250000J0D01*
G01*
G37*
%TD.AperFunction*%
%TO.P,C8,1*%
%TO.N,+3V3*%
%TA.AperFunction,SMDPad,CuDef*%
G36*
G01*
X180275000Y-80200000D02*
X179325000Y-80200000D01*
G75*
G02*
X179075000Y-79950000I0J250000D01*
G01*
X179075000Y-79450000D01*
G75*
G02*
X179325000Y-79200000I250000J0D01*
G01*
X180275000Y-79200000D01*
G75*
G02*
X180525000Y-79450000I0J-250000D01*
G01*
X180525000Y-79950000D01*
G75*
G02*
X180275000Y-80200000I-250000J0D01*
G01*
G37*
%TD.AperFunction*%
%TD*%
%TO.P,C7,2*%
%TO.N,GND*%
%TA.AperFunction,SMDPad,CuDef*%
G36*
G01*
X158875000Y-91100000D02*
X157925000Y-91100000D01*
G75*
G02*
X157675000Y-90850000I0J250000D01*
G01*
X157675000Y-90350000D01*
G75*
G02*
X157925000Y-90100000I250000J0D01*
G01*
X158875000Y-90100000D01*
G75*
G02*
X159125000Y-90350000I0J-250000D01*
G01*
X159125000Y-90850000D01*
G75*
G02*
X158875000Y-91100000I-250000J0D01*
G01*
G37*
%TD.AperFunction*%
%TO.P,C7,1*%
%TO.N,/NRST*%
%TA.AperFunction,SMDPad,CuDef*%
G36*
G01*
X158875000Y-93000000D02*
X157925000Y-93000000D01*
G75*
G02*
X157675000Y-92750000I0J250000D01*
G01*
X157675000Y-92250000D01*
G75*
G02*
X157925000Y-92000000I250000J0D01*
G01*
X158875000Y-92000000D01*
G75*
G02*
X159125000Y-92250000I0J-250000D01*
G01*
X159125000Y-92750000D01*
G75*
G02*
X158875000Y-93000000I-250000J0D01*
G01*
G37*
%TD.AperFunction*%
%TD*%
%TO.P,C5,2*%
%TO.N,GND*%
%TA.AperFunction,SMDPad,CuDef*%
G36*
G01*
X164425000Y-99450000D02*
X165375000Y-99450000D01*
G75*
G02*
X165625000Y-99700000I0J-250000D01*
G01*
X165625000Y-100200000D01*
G75*
G02*
X165375000Y-100450000I-250000J0D01*
G01*
X164425000Y-100450000D01*
G75*
G02*
X164175000Y-100200000I0J250000D01*
G01*
X164175000Y-99700000D01*
G75*
G02*
X164425000Y-99450000I250000J0D01*
G01*
G37*
%TD.AperFunction*%
%TO.P,C5,1*%
%TO.N,/OSC32_OUT*%
%TA.AperFunction,SMDPad,CuDef*%
G36*
G01*
X164425000Y-97550000D02*
X165375000Y-97550000D01*
G75*
G02*
X165625000Y-97800000I0J-250000D01*
G01*
X165625000Y-98300000D01*
G75*
G02*
X165375000Y-98550000I-250000J0D01*
G01*
X164425000Y-98550000D01*
G75*
G02*
X164175000Y-98300000I0J250000D01*
G01*
X164175000Y-97800000D01*
G75*
G02*
X164425000Y-97550000I250000J0D01*
G01*
G37*
%TD.AperFunction*%
%TD*%
%TO.P,C4,2*%
%TO.N,GND*%
%TA.AperFunction,SMDPad,CuDef*%
G36*
G01*
X156925000Y-99450000D02*
X157875000Y-99450000D01*
G75*
G02*
X158125000Y-99700000I0J-250000D01*
G01*
X158125000Y-100200000D01*
G75*
G02*
X157875000Y-100450000I-250000J0D01*
G01*
X156925000Y-100450000D01*
G75*
G02*
X156675000Y-100200000I0J250000D01*
G01*
X156675000Y-99700000D01*
G75*
G02*
X156925000Y-99450000I250000J0D01*
G01*
G37*
%TD.AperFunction*%
%TO.P,C4,1*%
%TO.N,/OSC32_IN*%
%TA.AperFunction,SMDPad,CuDef*%
G36*
G01*
X156925000Y-97550000D02*
X157875000Y-97550000D01*
G75*
G02*
X158125000Y-97800000I0J-250000D01*
G01*
X158125000Y-98300000D01*
G75*
G02*
X157875000Y-98550000I-250000J0D01*
G01*
X156925000Y-98550000D01*
G75*
G02*
X156675000Y-98300000I0J250000D01*
G01*
X156675000Y-97800000D01*
G75*
G02*
X156925000Y-97550000I250000J0D01*
G01*
G37*
%TD.AperFunction*%
%TD*%
%TO.P,C3,2*%
%TO.N,GND*%
%TA.AperFunction,SMDPad,CuDef*%
G36*
G01*
X168250000Y-83425000D02*
X168250000Y-82475000D01*
G75*
G02*
X168500000Y-82225000I250000J0D01*
G01*
X169000000Y-82225000D01*
G75*
G02*
X169250000Y-82475000I0J-250000D01*
G01*
X169250000Y-83425000D01*
G75*
G02*
X169000000Y-83675000I-250000J0D01*
G01*
X168500000Y-83675000D01*
G75*
G02*
X168250000Y-83425000I0J250000D01*
G01*
G37*
%TD.AperFunction*%
%TO.P,C3,1*%
%TO.N,/OSC_OUT*%
%TA.AperFunction,SMDPad,CuDef*%
G36*
G01*
X166350000Y-83425000D02*
X166350000Y-82475000D01*
G75*
G02*
X166600000Y-82225000I250000J0D01*
G01*
X167100000Y-82225000D01*
G75*
G02*
X167350000Y-82475000I0J-250000D01*
G01*
X167350000Y-83425000D01*
G75*
G02*
X167100000Y-83675000I-250000J0D01*
G01*
X166600000Y-83675000D01*
G75*
G02*
X166350000Y-83425000I0J250000D01*
G01*
G37*
%TD.AperFunction*%
%TD*%
%TO.P,C2,2*%
%TO.N,GND*%
%TA.AperFunction,SMDPad,CuDef*%
G36*
G01*
X168200000Y-92925000D02*
X168200000Y-91975000D01*
G75*
G02*
X168450000Y-91725000I250000J0D01*
G01*
X168950000Y-91725000D01*
G75*
G02*
X169200000Y-91975000I0J-250000D01*
G01*
X169200000Y-92925000D01*
G75*
G02*
X168950000Y-93175000I-250000J0D01*
G01*
X168450000Y-93175000D01*
G75*
G02*
X168200000Y-92925000I0J250000D01*
G01*
G37*
%TD.AperFunction*%
%TO.P,C2,1*%
%TO.N,/OSC_IN*%
%TA.AperFunction,SMDPad,CuDef*%
G36*
G01*
X166300000Y-92925000D02*
X166300000Y-91975000D01*
G75*
G02*
X166550000Y-91725000I250000J0D01*
G01*
X167050000Y-91725000D01*
G75*
G02*
X167300000Y-91975000I0J-250000D01*
G01*
X167300000Y-92925000D01*
G75*
G02*
X167050000Y-93175000I-250000J0D01*
G01*
X166550000Y-93175000D01*
G75*
G02*
X166300000Y-92925000I0J250000D01*
G01*
G37*
%TD.AperFunction*%
%TD*%
%TO.P,C1,1*%
%TO.N,+3V3*%
%TA.AperFunction,SMDPad,CuDef*%
G36*
G01*
X142350000Y-112075000D02*
X142350000Y-111125000D01*
G75*
G02*
X142600000Y-110875000I250000J0D01*
G01*
X143100000Y-110875000D01*
G75*
G02*
X143350000Y-111125000I0J-250000D01*
G01*
X143350000Y-112075000D01*
G75*
G02*
X143100000Y-112325000I-250000J0D01*
G01*
X142600000Y-112325000D01*
G75*
G02*
X142350000Y-112075000I0J250000D01*
G01*
G37*
%TD.AperFunction*%
%TO.P,C1,2*%
%TO.N,GND*%
%TA.AperFunction,SMDPad,CuDef*%
G36*
G01*
X144250000Y-112075000D02*
X144250000Y-111125000D01*
G75*
G02*
X144500000Y-110875000I250000J0D01*
G01*
X145000000Y-110875000D01*
G75*
G02*
X145250000Y-111125000I0J-250000D01*
G01*
X145250000Y-112075000D01*
G75*
G02*
X145000000Y-112325000I-250000J0D01*
G01*
X144500000Y-112325000D01*
G75*
G02*
X144250000Y-112075000I0J250000D01*
G01*
G37*
%TD.AperFunction*%
%TD*%
%TO.P,R17,1*%
%TO.N,+5V*%
%TA.AperFunction,SMDPad,CuDef*%
G36*
G01*
X174050001Y-74137500D02*
X173149999Y-74137500D01*
G75*
G02*
X172900000Y-73887501I0J249999D01*
G01*
X172900000Y-73362499D01*
G75*
G02*
X173149999Y-73112500I249999J0D01*
G01*
X174050001Y-73112500D01*
G75*
G02*
X174300000Y-73362499I0J-249999D01*
G01*
X174300000Y-73887501D01*
G75*
G02*
X174050001Y-74137500I-249999J0D01*
G01*
G37*
%TD.AperFunction*%
%TO.P,R17,2*%
%TO.N,GND*%
%TA.AperFunction,SMDPad,CuDef*%
G36*
G01*
X174050001Y-72312500D02*
X173149999Y-72312500D01*
G75*
G02*
X172900000Y-72062501I0J249999D01*
G01*
X172900000Y-71537499D01*
G75*
G02*
X173149999Y-71287500I249999J0D01*
G01*
X174050001Y-71287500D01*
G75*
G02*
X174300000Y-71537499I0J-249999D01*
G01*
X174300000Y-72062501D01*
G75*
G02*
X174050001Y-72312500I-249999J0D01*
G01*
G37*
%TD.AperFunction*%
%TD*%
D18*
%TO.P,H1,1*%
%TO.N,GND*%
X191280419Y-62719581D03*
X189000000Y-61775000D03*
X186719581Y-62719581D03*
X185775000Y-65000000D03*
X186719581Y-67280419D03*
X189000000Y-68225000D03*
X191280419Y-67280419D03*
X192225000Y-65000000D03*
D19*
X189000000Y-65000000D03*
%TD*%
%TO.P,H2,1*%
%TO.N,GND*%
X189000000Y-122000000D03*
D18*
X192225000Y-122000000D03*
X191280419Y-124280419D03*
X189000000Y-125225000D03*
X186719581Y-124280419D03*
X185775000Y-122000000D03*
X186719581Y-119719581D03*
X189000000Y-118775000D03*
X191280419Y-119719581D03*
%TD*%
%TO.P,H3,1*%
%TO.N,GND*%
X131080419Y-62719581D03*
X128800000Y-61775000D03*
X126519581Y-62719581D03*
X125575000Y-65000000D03*
X126519581Y-67280419D03*
X128800000Y-68225000D03*
X131080419Y-67280419D03*
X132025000Y-65000000D03*
D19*
X128800000Y-65000000D03*
%TD*%
%TO.P,H4,1*%
%TO.N,GND*%
X128800000Y-122000000D03*
D18*
X132025000Y-122000000D03*
X131080419Y-124280419D03*
X128800000Y-125225000D03*
X126519581Y-124280419D03*
X125575000Y-122000000D03*
X126519581Y-119719581D03*
X128800000Y-118775000D03*
X131080419Y-119719581D03*
%TD*%
D20*
%TO.N,+5V*%
X167650000Y-69000000D03*
X161800000Y-68200000D03*
X162600000Y-69000000D03*
X131400000Y-106600000D03*
X134600000Y-92800000D03*
%TO.N,+3V3*%
X164200000Y-76400000D03*
X159000000Y-76400000D03*
X158994669Y-80994669D03*
X159200000Y-101200000D03*
X158625009Y-88374991D03*
X150749990Y-107100040D03*
X150800000Y-114800000D03*
X133800000Y-101000000D03*
X139169669Y-80169669D03*
X136200000Y-98600000D03*
%TO.N,/NRST*%
X147800000Y-77400000D03*
X155118440Y-84870898D03*
X159475010Y-89227468D03*
X168400000Y-94800000D03*
%TO.N,/Forward_LED*%
X152000000Y-90400000D03*
X162800000Y-118400000D03*
%TO.N,/Left_LED*%
X159000000Y-78800000D03*
X186400000Y-99400000D03*
%TO.N,/Right_LED*%
X132000000Y-92000000D03*
X139950020Y-86591109D03*
X151029856Y-90157464D03*
X135400000Y-82000000D03*
%TO.N,/Upward_LED*%
X155600000Y-118200000D03*
X150600000Y-91200000D03*
%TO.N,/Rear_LED*%
X154600000Y-86400000D03*
X156250000Y-84800000D03*
%TO.N,/Right_SCL*%
X146650000Y-105382081D03*
X145900001Y-102597524D03*
%TO.N,/Right_SDA*%
X146650000Y-106800000D03*
X138600000Y-111212510D03*
%TO.N,/Rear_SCL*%
X157000000Y-102000000D03*
X159200000Y-68200000D03*
%TO.N,/Rear_SDA*%
X160400000Y-68200000D03*
X158000003Y-102000000D03*
%TO.N,/Left_SCL*%
X184000000Y-93000000D03*
X156000000Y-103000000D03*
%TO.N,/Left_SDA*%
X184000000Y-94200000D03*
X156030331Y-104030331D03*
%TO.N,/Upward_SCL*%
X134200000Y-110600000D03*
X134650000Y-105000000D03*
%TO.N,/Upward_SDA*%
X135800000Y-104000000D03*
X135400000Y-110600000D03*
%TO.N,/SWO*%
X147257239Y-97096319D03*
X145200000Y-76600000D03*
%TO.N,/SWCLK*%
X142400000Y-98400000D03*
X143800000Y-76600000D03*
%TO.N,/SWDIO*%
X142730331Y-78730331D03*
X140530331Y-95469669D03*
%TO.N,/Master_Reset*%
X149951425Y-109201067D03*
X149369669Y-91030331D03*
%TO.N,Master_SDA*%
X144430329Y-108830332D03*
X148400000Y-101400000D03*
%TO.N,Master_SCL*%
X144400000Y-107800000D03*
X148400000Y-100400000D03*
%TO.N,GND*%
X176800000Y-71000000D03*
X180000000Y-76000000D03*
X173400000Y-77600000D03*
X179000000Y-111600000D03*
X168400000Y-113600000D03*
X130994669Y-80605331D03*
X132600000Y-101000000D03*
X141600000Y-117400000D03*
X145000000Y-113600000D03*
X166400000Y-120850008D03*
X190600000Y-106000000D03*
X183400000Y-83600000D03*
X172400000Y-77375000D03*
X171800000Y-63000000D03*
X171600000Y-64000000D03*
X140400000Y-73000000D03*
X158600000Y-77600000D03*
X155800000Y-82600000D03*
X154800000Y-77600000D03*
X156200000Y-92400000D03*
X156000000Y-100000000D03*
X155149999Y-102149999D03*
X147200000Y-113950000D03*
X149200000Y-113950000D03*
X138000000Y-104125000D03*
X132660429Y-96118431D03*
X173800000Y-106000000D03*
X166600000Y-106200000D03*
X172600000Y-118800000D03*
X127000000Y-89200000D03*
%TD*%
D21*
%TO.N,+5V*%
X177795000Y-75205000D02*
X180000000Y-73000000D01*
X177690000Y-75205000D02*
X177795000Y-75205000D01*
D22*
X161750000Y-65400000D02*
X161750000Y-66350000D01*
X161800000Y-65450000D02*
X161750000Y-65400000D01*
X161800000Y-68200000D02*
X161800000Y-65450000D01*
X133949683Y-111575001D02*
X133731999Y-111575001D01*
X133731999Y-111575001D02*
X131400000Y-109243002D01*
X145049692Y-122675010D02*
X133949683Y-111575001D01*
X149499990Y-122675010D02*
X145049692Y-122675010D01*
X150075000Y-122100000D02*
X149499990Y-122675010D01*
X131400000Y-109243002D02*
X131400000Y-106600000D01*
X150075000Y-121250000D02*
X150075000Y-122100000D01*
X129750000Y-97650000D02*
X134600000Y-92800000D01*
X129200000Y-97650000D02*
X129750000Y-97650000D01*
X185424999Y-98600001D02*
X188550000Y-95475000D01*
X185424999Y-110300323D02*
X185424999Y-98600001D01*
X172517056Y-123208266D02*
X185424999Y-110300323D01*
X169558266Y-123208266D02*
X172517056Y-123208266D01*
X168650000Y-122300000D02*
X169558266Y-123208266D01*
X168650000Y-121450000D02*
X168650000Y-122300000D01*
X162424999Y-69175001D02*
X162600000Y-69000000D01*
X156896999Y-67340001D02*
X158731999Y-69175001D01*
X135426743Y-67340001D02*
X156896999Y-67340001D01*
X127441734Y-75325010D02*
X135426743Y-67340001D01*
X127441734Y-83124990D02*
X127441734Y-75325010D01*
X158731999Y-69175001D02*
X162424999Y-69175001D01*
X134600000Y-90283256D02*
X127441734Y-83124990D01*
X134600000Y-92800000D02*
X134600000Y-90283256D01*
X190308266Y-90950010D02*
X186200000Y-86841744D01*
X188550000Y-95475000D02*
X189400000Y-95475000D01*
X190308266Y-94566734D02*
X190308266Y-90950010D01*
X186200000Y-86841744D02*
X186200000Y-81500000D01*
X189400000Y-95475000D02*
X190308266Y-94566734D01*
D23*
X172199990Y-72924990D02*
X172199990Y-71143990D01*
X172199990Y-71143990D02*
X173443981Y-69899999D01*
X172900000Y-73625000D02*
X172199990Y-72924990D01*
X173600000Y-73625000D02*
X172900000Y-73625000D01*
X174205000Y-75205000D02*
X175674990Y-75205000D01*
X172199990Y-73199990D02*
X174205000Y-75205000D01*
X172199990Y-72924990D02*
X172199990Y-73199990D01*
D22*
X170056000Y-69000000D02*
X172199990Y-71143990D01*
X167650000Y-69000000D02*
X170056000Y-69000000D01*
D23*
X185300000Y-74100000D02*
X189000000Y-77800000D01*
X181100001Y-69900001D02*
X185300000Y-74100000D01*
X181100001Y-69899999D02*
X181100001Y-69900001D01*
X173443981Y-69899999D02*
X181100001Y-69899999D01*
X184200000Y-73000000D02*
X189000000Y-77800000D01*
X180000000Y-73000000D02*
X184200000Y-73000000D01*
D22*
X189000000Y-78700000D02*
X186200000Y-81500000D01*
X189000000Y-77800000D02*
X189000000Y-78700000D01*
D24*
%TO.N,+3V3*%
X154600000Y-97675000D02*
X153725000Y-96800000D01*
X154600000Y-98150000D02*
X154600000Y-97675000D01*
X151800000Y-100600000D02*
X152750000Y-101550000D01*
X151800000Y-98725000D02*
X151800000Y-100600000D01*
X142150000Y-96800000D02*
X140200000Y-98750000D01*
X142375000Y-96800000D02*
X142150000Y-96800000D01*
X144300000Y-86350000D02*
X143150000Y-85200000D01*
X144300000Y-87375000D02*
X144300000Y-86350000D01*
D23*
X178085000Y-79700000D02*
X179800000Y-79700000D01*
X177690000Y-79305000D02*
X178085000Y-79700000D01*
X177690000Y-77695000D02*
X177690000Y-79305000D01*
D21*
X177690000Y-80997500D02*
X177687500Y-81000000D01*
X177690000Y-79305000D02*
X177690000Y-80997500D01*
D24*
X150800000Y-85400000D02*
X151400000Y-84800000D01*
X150800000Y-87375000D02*
X150800000Y-85400000D01*
D21*
X178624990Y-80239990D02*
X178085000Y-79700000D01*
X178624990Y-104224990D02*
X178624990Y-80239990D01*
X179400000Y-105000000D02*
X178624990Y-104224990D01*
D22*
X176485002Y-76400000D02*
X164200000Y-76400000D01*
X177690000Y-77604998D02*
X176485002Y-76400000D01*
X177690000Y-79305000D02*
X177690000Y-77604998D01*
X143150000Y-83493002D02*
X143150000Y-85200000D01*
X148575001Y-69174999D02*
X150243002Y-70843000D01*
X142660000Y-69609998D02*
X143094999Y-69174999D01*
X142660000Y-70800000D02*
X142660000Y-69609998D01*
X150243002Y-70843000D02*
X150243002Y-74243002D01*
X150243002Y-74243002D02*
X152400000Y-76400000D01*
X159000000Y-76400000D02*
X152400000Y-76400000D01*
X150424999Y-78375001D02*
X148268001Y-78375001D01*
X152400000Y-76400000D02*
X150424999Y-78375001D01*
X159975001Y-79268001D02*
X159975001Y-77375001D01*
X159443002Y-79800000D02*
X159975001Y-79268001D01*
X159975001Y-77375001D02*
X159000000Y-76400000D01*
X151400000Y-84800000D02*
X156400000Y-79800000D01*
X156400000Y-79800000D02*
X158600000Y-79800000D01*
X158600000Y-79800000D02*
X159443002Y-79800000D01*
D21*
X159443002Y-80546336D02*
X158994669Y-80994669D01*
X159443002Y-79800000D02*
X159443002Y-80546336D01*
X153150001Y-101149999D02*
X152750000Y-101550000D01*
X158458005Y-101200000D02*
X158408004Y-101149999D01*
X159200000Y-101200000D02*
X158458005Y-101200000D01*
X155949999Y-101149999D02*
X153150001Y-101149999D01*
X158408004Y-101149999D02*
X155949999Y-101149999D01*
X155626285Y-107100040D02*
X150749990Y-107100040D01*
X159200000Y-103526325D02*
X155626285Y-107100040D01*
X159200000Y-101200000D02*
X159200000Y-103526325D01*
X151727466Y-114800000D02*
X153587510Y-112939956D01*
X153587510Y-110675010D02*
X152712500Y-109800000D01*
X153587510Y-112939956D02*
X153587510Y-110675010D01*
X150800000Y-114800000D02*
X151727466Y-114800000D01*
X150800000Y-114800000D02*
X144685034Y-114800000D01*
X139800000Y-107775000D02*
X137400000Y-107775000D01*
X133800000Y-105408002D02*
X133800000Y-101000000D01*
X136166998Y-107775000D02*
X133800000Y-105408002D01*
X137400000Y-107775000D02*
X136166998Y-107775000D01*
D22*
X143094999Y-69174999D02*
X148575001Y-69174999D01*
X146521501Y-80121501D02*
X143150000Y-83493002D01*
X148268001Y-78375001D02*
X146521501Y-80121501D01*
X146473333Y-80169669D02*
X146521501Y-80121501D01*
X139169669Y-80169669D02*
X146473333Y-80169669D01*
X136350000Y-98750000D02*
X136200000Y-98600000D01*
X140200000Y-98750000D02*
X136350000Y-98750000D01*
D24*
X154924990Y-89675010D02*
X156000000Y-88600000D01*
X154800000Y-90800000D02*
X154924990Y-90675010D01*
X154924990Y-90675010D02*
X154924990Y-89675010D01*
X153725000Y-90800000D02*
X154800000Y-90800000D01*
X158400000Y-88600000D02*
X158625009Y-88374991D01*
X156000000Y-88600000D02*
X158400000Y-88600000D01*
D21*
X152750000Y-100000000D02*
X152750000Y-101550000D01*
X154600000Y-98150000D02*
X152750000Y-100000000D01*
X142850000Y-112964966D02*
X144685034Y-114800000D01*
X142850000Y-111600000D02*
X142850000Y-112964966D01*
X142850000Y-110237500D02*
X142487500Y-109875000D01*
X142850000Y-111600000D02*
X142850000Y-110237500D01*
D24*
%TO.N,/OSC_IN*%
X160200000Y-94800000D02*
X162600000Y-92400000D01*
X153725000Y-94800000D02*
X160200000Y-94800000D01*
X162650000Y-92450000D02*
X162600000Y-92400000D01*
X166800000Y-92450000D02*
X162650000Y-92450000D01*
X166800000Y-92450000D02*
X166800000Y-88450000D01*
%TO.N,/OSC_OUT*%
X161199999Y-91273547D02*
X161199999Y-84300001D01*
X158173546Y-94300000D02*
X161199999Y-91273547D01*
X161199999Y-84300001D02*
X162600000Y-82900000D01*
X153725000Y-94300000D02*
X158173546Y-94300000D01*
X166800000Y-83000000D02*
X166850000Y-82950000D01*
X166800000Y-86625000D02*
X166800000Y-83000000D01*
X162650000Y-82950000D02*
X162600000Y-82900000D01*
X166850000Y-82950000D02*
X162650000Y-82950000D01*
%TO.N,/OSC32_IN*%
X153725000Y-95800000D02*
X158600000Y-95800000D01*
X159900000Y-97100000D02*
X159900000Y-98675000D01*
X158600000Y-95800000D02*
X159900000Y-97100000D01*
X159275000Y-98050000D02*
X159900000Y-98675000D01*
X157400000Y-98050000D02*
X159275000Y-98050000D01*
%TO.N,/OSC32_OUT*%
X163025000Y-98050000D02*
X162400000Y-98675000D01*
X164900000Y-98050000D02*
X163025000Y-98050000D01*
X164900000Y-98050000D02*
X163450000Y-96600000D01*
X158807120Y-95300000D02*
X153725000Y-95300000D01*
X160107120Y-96600000D02*
X158807120Y-95300000D01*
X163450000Y-96600000D02*
X160107120Y-96600000D01*
%TO.N,/NRST*%
X157100000Y-93800000D02*
X158400000Y-92500000D01*
X153725000Y-93800000D02*
X157100000Y-93800000D01*
X159475010Y-91424990D02*
X158400000Y-92500000D01*
X147740000Y-77340000D02*
X147800000Y-77400000D01*
X147740000Y-74400000D02*
X147740000Y-77340000D01*
X159475010Y-89227468D02*
X159475010Y-91424990D01*
D21*
X168425000Y-107150000D02*
X176375000Y-107150000D01*
D24*
X168400000Y-107125000D02*
X168425000Y-107150000D01*
X168400000Y-94800000D02*
X168400000Y-107125000D01*
X179075000Y-107150000D02*
X179400000Y-106825000D01*
X176375000Y-107150000D02*
X179075000Y-107150000D01*
X155118440Y-84870898D02*
X156247542Y-86000000D01*
X156247542Y-86000000D02*
X158000000Y-86000000D01*
X159475010Y-87475010D02*
X159475010Y-89227468D01*
X158000000Y-86000000D02*
X159475010Y-87475010D01*
%TO.N,/Forward_LED*%
X152600000Y-89800000D02*
X152000000Y-90400000D01*
X153725000Y-89800000D02*
X152600000Y-89800000D01*
X162800000Y-118400000D02*
X162800000Y-119900000D01*
%TO.N,Net-(D1-Pad1)*%
X162800000Y-121775000D02*
X162800000Y-123987500D01*
%TO.N,/Left_LED*%
X155826454Y-78800000D02*
X159000000Y-78800000D01*
X150300000Y-84326454D02*
X155826454Y-78800000D01*
X150300000Y-87375000D02*
X150300000Y-84326454D01*
X186400000Y-100787500D02*
X186962500Y-101350000D01*
X186400000Y-99400000D02*
X186400000Y-100787500D01*
%TO.N,Net-(D2-Pad1)*%
X188837500Y-101350000D02*
X190900000Y-101350000D01*
%TO.N,/Right_LED*%
X130950000Y-92200000D02*
X130600000Y-92550000D01*
X131450000Y-92550000D02*
X132000000Y-92000000D01*
X130600000Y-92550000D02*
X131450000Y-92550000D01*
X151887320Y-89300000D02*
X151029856Y-90157464D01*
X153725000Y-89300000D02*
X151887320Y-89300000D01*
X139950020Y-86550020D02*
X139950020Y-86591109D01*
X135800000Y-82400000D02*
X139950020Y-86550020D01*
X135800000Y-82400000D02*
X135400000Y-82000000D01*
%TO.N,Net-(D3-Pad1)*%
X126762500Y-92550000D02*
X128725000Y-92550000D01*
%TO.N,/Upward_LED*%
X155600000Y-119662500D02*
X155500000Y-119762500D01*
X155600000Y-118200000D02*
X155600000Y-119662500D01*
X149800000Y-90400000D02*
X150600000Y-91200000D01*
X149800000Y-87375000D02*
X149800000Y-90400000D01*
%TO.N,Net-(D4-Pad1)*%
X155500000Y-121637500D02*
X155500000Y-123787500D01*
%TO.N,/Rear_LED*%
X153625000Y-87375000D02*
X154600000Y-86400000D01*
X151800000Y-87375000D02*
X153625000Y-87375000D01*
X166900000Y-71500000D02*
X166900000Y-71100000D01*
X163400000Y-77650000D02*
X163400000Y-75000000D01*
X156250000Y-84800000D02*
X163400000Y-77650000D01*
X163400000Y-75000000D02*
X166900000Y-71500000D01*
X166900000Y-66837500D02*
X166900000Y-71100000D01*
%TO.N,Net-(D5-Pad1)*%
X166900000Y-62975000D02*
X166900000Y-64962500D01*
D21*
%TO.N,Net-(D6-Pad1)*%
X175812500Y-81000000D02*
X173662500Y-81000000D01*
D24*
%TO.N,/Forward_SCL*%
X170150000Y-119600000D02*
X165949996Y-119600000D01*
X171150000Y-120600000D02*
X170150000Y-119600000D01*
X171150000Y-121450000D02*
X171150000Y-120600000D01*
X149782120Y-107275000D02*
X148212500Y-107275000D01*
X150507120Y-108000000D02*
X149782120Y-107275000D01*
X154349996Y-108000000D02*
X150507120Y-108000000D01*
X165949996Y-119600000D02*
X154349996Y-108000000D01*
%TO.N,/Forward_SDA*%
X148212500Y-107925000D02*
X149725000Y-107925000D01*
X149725000Y-107925000D02*
X150400000Y-108600000D01*
X165610010Y-120100008D02*
X154110002Y-108600000D01*
X169900000Y-120600000D02*
X169400008Y-120100008D01*
X169900000Y-121450000D02*
X169900000Y-120600000D01*
X154110002Y-108600000D02*
X154000000Y-108600000D01*
X150400000Y-108600000D02*
X154000000Y-108600000D01*
X169400008Y-120100008D02*
X165610010Y-120100008D01*
%TO.N,/Right_SCL*%
X147242919Y-105975000D02*
X146650000Y-105382081D01*
X148212500Y-105975000D02*
X147242919Y-105975000D01*
X143452478Y-100150000D02*
X145151239Y-101848761D01*
X129200000Y-100150000D02*
X143452478Y-100150000D01*
X145151239Y-101848761D02*
X144502477Y-101200000D01*
X145900001Y-102597524D02*
X145151239Y-101848761D01*
%TO.N,/Right_SDA*%
X129200000Y-98900000D02*
X129700000Y-98900000D01*
X129200000Y-98900000D02*
X129607120Y-98900000D01*
X127999990Y-99250010D02*
X127999990Y-101761036D01*
X128350000Y-98900000D02*
X127999990Y-99250010D01*
X129200000Y-98900000D02*
X128350000Y-98900000D01*
X146825000Y-106625000D02*
X146650000Y-106800000D01*
X148212500Y-106625000D02*
X146825000Y-106625000D01*
X137451464Y-111212510D02*
X127999990Y-101761036D01*
X138600000Y-111212510D02*
X137451464Y-111212510D01*
%TO.N,/Rear_SCL*%
X155320633Y-105850030D02*
X157000000Y-104170663D01*
X157000000Y-104170663D02*
X157000000Y-102000000D01*
X150274744Y-105850030D02*
X155320633Y-105850030D01*
X149099714Y-104675000D02*
X150274744Y-105850030D01*
X148212500Y-104675000D02*
X149099714Y-104675000D01*
X159200000Y-65450000D02*
X159250000Y-65400000D01*
X159200000Y-68200000D02*
X159200000Y-65450000D01*
%TO.N,/Rear_SDA*%
X160500000Y-68100000D02*
X160400000Y-68200000D01*
X160500000Y-65400000D02*
X160500000Y-68100000D01*
X149042594Y-105325000D02*
X148212500Y-105325000D01*
X150067634Y-106350040D02*
X149042594Y-105325000D01*
X155527743Y-106350040D02*
X150067634Y-106350040D01*
X158000003Y-103877780D02*
X155527743Y-106350040D01*
X158000003Y-102000000D02*
X158000003Y-103877780D01*
%TO.N,/Left_SCL*%
X188525000Y-93000000D02*
X188550000Y-92975000D01*
X184000000Y-93000000D02*
X188525000Y-93000000D01*
X154149990Y-104850010D02*
X154400000Y-104600000D01*
X149213954Y-103375000D02*
X150688964Y-104850010D01*
X150688964Y-104850010D02*
X154149990Y-104850010D01*
X148212500Y-103375000D02*
X149213954Y-103375000D01*
X154400000Y-104600000D02*
X156000000Y-103000000D01*
%TO.N,/Left_SDA*%
X184025000Y-94225000D02*
X184000000Y-94200000D01*
X188550000Y-94225000D02*
X184025000Y-94225000D01*
X150481854Y-105350020D02*
X154710641Y-105350020D01*
X149156834Y-104025000D02*
X150481854Y-105350020D01*
X154710641Y-105350020D02*
X155430332Y-104630329D01*
X148212500Y-104025000D02*
X149156834Y-104025000D01*
X155430333Y-104630329D02*
X156030331Y-104030331D01*
X155430332Y-104630329D02*
X155430333Y-104630329D01*
%TO.N,/Upward_SCL*%
X147575000Y-121250000D02*
X147575000Y-119857120D01*
X147575000Y-119857120D02*
X142967891Y-115250011D01*
X142967891Y-115250011D02*
X138650011Y-115250011D01*
X138650011Y-115050011D02*
X134200000Y-110600000D01*
X138650011Y-115250011D02*
X138650011Y-115050011D01*
X137535002Y-103375000D02*
X142487500Y-103375000D01*
X135910002Y-105000000D02*
X137535002Y-103375000D01*
X134650000Y-105000000D02*
X135910002Y-105000000D01*
%TO.N,/Upward_SDA*%
X137075000Y-102725000D02*
X135800000Y-104000000D01*
X142487500Y-102725000D02*
X137075000Y-102725000D01*
X143175001Y-114750001D02*
X148825000Y-120400000D01*
X148825000Y-120400000D02*
X148825000Y-121250000D01*
X139550001Y-114750001D02*
X143175001Y-114750001D01*
X135400000Y-110600000D02*
X139550001Y-114750001D01*
%TO.N,/SWO*%
X145200000Y-75200000D02*
X145200000Y-74400000D01*
X147300000Y-97139080D02*
X147257239Y-97096319D01*
X147300000Y-98725000D02*
X147300000Y-97139080D01*
X145200000Y-76600000D02*
X145200000Y-74400000D01*
%TO.N,/SWCLK*%
X142725000Y-98725000D02*
X142400000Y-98400000D01*
X144300000Y-98725000D02*
X142725000Y-98725000D01*
X143800000Y-74530000D02*
X143930000Y-74400000D01*
X143800000Y-76600000D02*
X143800000Y-74530000D01*
%TO.N,/SWDIO*%
X142660000Y-78660000D02*
X142730331Y-78730331D01*
X142660000Y-74400000D02*
X142660000Y-78660000D01*
X140860662Y-95800000D02*
X142375000Y-95800000D01*
X140530331Y-95469669D02*
X140860662Y-95800000D01*
%TO.N,/UART1_RX*%
X141291822Y-94300000D02*
X142375000Y-94300000D01*
X139699990Y-92708168D02*
X141291822Y-94300000D01*
X139699990Y-88249990D02*
X139699990Y-92708168D01*
X130050000Y-78600000D02*
X139699990Y-88249990D01*
X129200000Y-78600000D02*
X130050000Y-78600000D01*
%TO.N,/UART1_TX*%
X141498942Y-93800000D02*
X142375000Y-93800000D01*
X140200000Y-92501058D02*
X141498942Y-93800000D01*
X140200000Y-88042880D02*
X140200000Y-92501058D01*
X129507120Y-77350000D02*
X140200000Y-88042880D01*
X129200000Y-77350000D02*
X129507120Y-77350000D01*
%TO.N,/Master_Reset*%
X149325358Y-108575000D02*
X149951425Y-109201067D01*
X148212500Y-108575000D02*
X149325358Y-108575000D01*
X150288567Y-109201067D02*
X150887500Y-109800000D01*
X149951425Y-109201067D02*
X150288567Y-109201067D01*
X149300000Y-90960662D02*
X149369669Y-91030331D01*
X149300000Y-90297462D02*
X149300000Y-89700000D01*
X149300000Y-89700000D02*
X149300000Y-90960662D01*
X149300000Y-89700000D02*
X149300000Y-87375000D01*
%TO.N,Master_SDA*%
X138262510Y-110462510D02*
X137400000Y-109600000D01*
X141750000Y-109225000D02*
X140512490Y-110462510D01*
X142487500Y-109225000D02*
X141750000Y-109225000D01*
X140512490Y-110462510D02*
X138262510Y-110462510D01*
X144035661Y-109225000D02*
X144430329Y-108830332D01*
X142487500Y-109225000D02*
X144035661Y-109225000D01*
X149300000Y-101065685D02*
X149300000Y-98725000D01*
X148400000Y-101400000D02*
X148965685Y-101400000D01*
X148965685Y-101400000D02*
X149300000Y-101065685D01*
%TO.N,Net-(R3-Pad1)*%
X141763586Y-107925000D02*
X142487500Y-107925000D01*
X139400000Y-105561414D02*
X141763586Y-107925000D01*
X139400000Y-105400000D02*
X139400000Y-105561414D01*
%TO.N,Net-(R4-Pad1)*%
X148936414Y-109225000D02*
X148212500Y-109225000D01*
X149300010Y-110161404D02*
X149300010Y-109588596D01*
X150288596Y-111149990D02*
X149300010Y-110161404D01*
X151574990Y-111149990D02*
X150288596Y-111149990D01*
X149300010Y-109588596D02*
X148936414Y-109225000D01*
X152625000Y-112200000D02*
X151574990Y-111149990D01*
%TO.N,Net-(R5-Pad1)*%
X146800000Y-111287500D02*
X148212500Y-109875000D01*
X146800000Y-112200000D02*
X146800000Y-111287500D01*
%TO.N,Master_SCL*%
X142487500Y-108575000D02*
X141692880Y-108575000D01*
X140667880Y-109600000D02*
X139800000Y-109600000D01*
X141692880Y-108575000D02*
X140667880Y-109600000D01*
X148800000Y-100000000D02*
X148400000Y-100400000D01*
X148800000Y-98725000D02*
X148800000Y-100000000D01*
X143625000Y-108575000D02*
X142487500Y-108575000D01*
X144400000Y-107800000D02*
X143625000Y-108575000D01*
%TO.N,/BOOT0*%
X149800000Y-102400000D02*
X151200000Y-103800000D01*
X149800000Y-98725000D02*
X149800000Y-102400000D01*
%TO.N,/BOOT1*%
X146300000Y-86012500D02*
X147600000Y-84712500D01*
X146300000Y-87375000D02*
X146300000Y-86012500D01*
%TO.N,GND*%
X151300000Y-101100000D02*
X150850000Y-101550000D01*
X151300000Y-98725000D02*
X151300000Y-101100000D01*
X140750000Y-96300000D02*
X140200000Y-96850000D01*
X142375000Y-96300000D02*
X140750000Y-96300000D01*
X144800000Y-85450000D02*
X145050000Y-85200000D01*
X144800000Y-87375000D02*
X144800000Y-85450000D01*
D21*
X176750000Y-74350000D02*
X178100000Y-73000000D01*
X176750000Y-75205000D02*
X176750000Y-74350000D01*
X176750000Y-74095000D02*
X176750000Y-75205000D01*
D22*
X176750000Y-71050000D02*
X176800000Y-71000000D01*
X176750000Y-75205000D02*
X176750000Y-71050000D01*
D21*
X176750000Y-74250000D02*
X176750000Y-75205000D01*
X174300000Y-71800000D02*
X176750000Y-74250000D01*
X173600000Y-71800000D02*
X174300000Y-71800000D01*
D22*
X179800000Y-76200000D02*
X180000000Y-76000000D01*
X179800000Y-77800000D02*
X179800000Y-76200000D01*
D24*
X152973546Y-84800000D02*
X153300000Y-84800000D01*
X151300000Y-86473546D02*
X152973546Y-84800000D01*
X151300000Y-87375000D02*
X151300000Y-86473546D01*
D21*
X171837500Y-79162500D02*
X173400000Y-77600000D01*
X171837500Y-81000000D02*
X171837500Y-79162500D01*
X178950000Y-111650000D02*
X179000000Y-111600000D01*
X176375000Y-111650000D02*
X178950000Y-111650000D01*
X168425000Y-113575000D02*
X168400000Y-113600000D01*
X168425000Y-111650000D02*
X168425000Y-113575000D01*
X130994669Y-81405331D02*
X130994669Y-80605331D01*
X130050000Y-82350000D02*
X130994669Y-81405331D01*
X129200000Y-82350000D02*
X130050000Y-82350000D01*
X124937500Y-92550000D02*
X124937500Y-91262500D01*
X132200000Y-101400000D02*
X132600000Y-101000000D01*
X129200000Y-101400000D02*
X132200000Y-101400000D01*
X145450000Y-121250000D02*
X141600000Y-117400000D01*
X146325000Y-121250000D02*
X145450000Y-121250000D01*
X162600000Y-125612500D02*
X162800000Y-125812500D01*
X155500000Y-125612500D02*
X162600000Y-125612500D01*
X166400000Y-122212500D02*
X166400000Y-120850008D01*
X162800000Y-125812500D02*
X166400000Y-122212500D01*
X192725000Y-103875000D02*
X190600000Y-106000000D01*
X192725000Y-101350000D02*
X192725000Y-103875000D01*
X183400000Y-86575000D02*
X183400000Y-83600000D01*
X188550000Y-91725000D02*
X183400000Y-86575000D01*
X168750000Y-81025000D02*
X172400000Y-77375000D01*
X168750000Y-82950000D02*
X168750000Y-81025000D01*
X169950000Y-61150000D02*
X171800000Y-63000000D01*
X166900000Y-61150000D02*
X169950000Y-61150000D01*
X169612490Y-62012490D02*
X171600000Y-64000000D01*
X158000000Y-64550000D02*
X158450010Y-64099990D01*
X166160044Y-62012490D02*
X169612490Y-62012490D01*
X164072544Y-64099990D02*
X166160044Y-62012490D01*
X158450010Y-64099990D02*
X164072544Y-64099990D01*
X158000000Y-65400000D02*
X158000000Y-64550000D01*
X141099999Y-72300001D02*
X140400000Y-73000000D01*
X143930000Y-71765002D02*
X143395001Y-72300001D01*
X143930000Y-70800000D02*
X143930000Y-71765002D01*
X145200000Y-70800000D02*
X143699999Y-72300001D01*
X143699999Y-72300001D02*
X143100001Y-72300001D01*
X143395001Y-72300001D02*
X143100001Y-72300001D01*
X147205001Y-72300001D02*
X142300001Y-72300001D01*
X147740000Y-71765002D02*
X147205001Y-72300001D01*
X147740000Y-70800000D02*
X147740000Y-71765002D01*
X142300001Y-72300001D02*
X141099999Y-72300001D01*
X143100001Y-72300001D02*
X142300001Y-72300001D01*
X145050000Y-85200000D02*
X145050000Y-83350000D01*
X148656250Y-79743750D02*
X150743750Y-79743750D01*
X145050000Y-83350000D02*
X148656250Y-79743750D01*
X150743750Y-79743750D02*
X152887500Y-77600000D01*
X147600000Y-82887500D02*
X150743750Y-79743750D01*
X153600000Y-84800000D02*
X155800000Y-82600000D01*
X153300000Y-84800000D02*
X153600000Y-84800000D01*
X154800000Y-77600000D02*
X158600000Y-77600000D01*
X152887500Y-77600000D02*
X154800000Y-77600000D01*
D24*
X155200000Y-91300000D02*
X156000000Y-90500000D01*
X153725000Y-91300000D02*
X155200000Y-91300000D01*
X158000000Y-90600000D02*
X156200000Y-92400000D01*
X158400000Y-90600000D02*
X158000000Y-90600000D01*
X156000000Y-92200000D02*
X156200000Y-92400000D01*
X156000000Y-90500000D02*
X156000000Y-92200000D01*
D21*
X155950000Y-100050000D02*
X156000000Y-100000000D01*
X154600000Y-100050000D02*
X155950000Y-100050000D01*
X156050000Y-99950000D02*
X156000000Y-100000000D01*
X157400000Y-99950000D02*
X156050000Y-99950000D01*
X154574988Y-102725010D02*
X155149999Y-102149999D01*
X150850000Y-101550000D02*
X152025010Y-102725010D01*
X152025010Y-102725010D02*
X154574988Y-102725010D01*
X153499998Y-103800000D02*
X155149999Y-102149999D01*
X153025000Y-103800000D02*
X153499998Y-103800000D01*
X148625000Y-112525000D02*
X147200000Y-113950000D01*
X148625000Y-112200000D02*
X148625000Y-112525000D01*
X150800000Y-112350000D02*
X149200000Y-113950000D01*
X150800000Y-112200000D02*
X150800000Y-112350000D01*
X137575000Y-104550000D02*
X138000000Y-104125000D01*
X137575000Y-105400000D02*
X137575000Y-104550000D01*
X133391998Y-96850000D02*
X132660429Y-96118431D01*
X140200000Y-96850000D02*
X133391998Y-96850000D01*
X173800000Y-97550000D02*
X173800000Y-106000000D01*
X168700000Y-92450000D02*
X173800000Y-97550000D01*
X164900000Y-104500000D02*
X166600000Y-106200000D01*
X164900000Y-99950000D02*
X164900000Y-104500000D01*
X145800000Y-110550000D02*
X144750000Y-111600000D01*
X145800000Y-104272166D02*
X145800000Y-110550000D01*
X147347166Y-102725000D02*
X145800000Y-104272166D01*
X148212500Y-102725000D02*
X147347166Y-102725000D01*
X144750000Y-113350000D02*
X145000000Y-113600000D01*
X144750000Y-111600000D02*
X144750000Y-113350000D01*
D24*
X172400000Y-119000000D02*
X172600000Y-118800000D01*
X172400000Y-121450000D02*
X172400000Y-119000000D01*
D21*
X125700000Y-90500000D02*
X127000000Y-89200000D01*
X124937500Y-91262500D02*
X125700000Y-90500000D01*
X125700000Y-90500000D02*
X126000000Y-90200000D01*
%TD*%
M02*
