%TF.GenerationSoftware,KiCad,Pcbnew,(5.1.9-0-10_14)*%
%TF.CreationDate,2021-04-28T14:39:26+08:00*%
%TF.ProjectId,TPT_PCB,5450545f-5043-4422-9e6b-696361645f70,rev?*%
%TF.SameCoordinates,Original*%
%TF.FileFunction,Legend,Top*%
%TF.FilePolarity,Positive*%
%FSLAX46Y46*%
G04 Gerber Fmt 4.6, Leading zero omitted, Abs format (unit mm)*
G04 Created by KiCad (PCBNEW (5.1.9-0-10_14)) date 2021-04-28 14:39:26*
%MOMM*%
%LPD*%
G01*
G04 APERTURE LIST*
%ADD10C,0.120000*%
%ADD11C,0.127000*%
%ADD12C,0.200000*%
G04 APERTURE END LIST*
D10*
%TO.C,C6*%
X179311252Y-72265000D02*
X178788748Y-72265000D01*
X179311252Y-73735000D02*
X178788748Y-73735000D01*
%TO.C,C11*%
X140935000Y-98061252D02*
X140935000Y-97538748D01*
X139465000Y-98061252D02*
X139465000Y-97538748D01*
%TO.C,R5*%
X147485436Y-111465000D02*
X147939564Y-111465000D01*
X147485436Y-112935000D02*
X147939564Y-112935000D01*
D11*
%TO.C,Y2*%
X162420000Y-100925000D02*
X162420000Y-104950000D01*
X159880000Y-100925000D02*
X162420000Y-100925000D01*
X159880000Y-104950000D02*
X159880000Y-100925000D01*
%TO.C,Y1*%
X164950000Y-81950000D02*
X164020000Y-81950000D01*
X164950000Y-93350000D02*
X164950000Y-81950000D01*
X164020000Y-93350000D02*
X164950000Y-93350000D01*
X160250000Y-81950000D02*
X161180000Y-81950000D01*
X160250000Y-93350000D02*
X160250000Y-81950000D01*
X161180000Y-93350000D02*
X160250000Y-93350000D01*
D10*
%TO.C,U3*%
X153160000Y-97210000D02*
X154500000Y-97210000D01*
X153160000Y-98160000D02*
X153160000Y-97210000D01*
X152210000Y-98160000D02*
X153160000Y-98160000D01*
X142940000Y-98160000D02*
X142940000Y-97210000D01*
X143890000Y-98160000D02*
X142940000Y-98160000D01*
X153160000Y-87940000D02*
X153160000Y-88890000D01*
X152210000Y-87940000D02*
X153160000Y-87940000D01*
X142940000Y-87940000D02*
X142940000Y-88890000D01*
X143890000Y-87940000D02*
X142940000Y-87940000D01*
D12*
%TO.C,U2*%
X177850000Y-74050000D02*
G75*
G03*
X177850000Y-74050000I-100000J0D01*
G01*
D11*
X175171000Y-75550000D02*
X175171000Y-77350000D01*
X178329000Y-75550000D02*
X178329000Y-77350000D01*
D10*
%TO.C,U1*%
X145350000Y-102265000D02*
X143150000Y-102265000D01*
X145350000Y-102265000D02*
X147550000Y-102265000D01*
X145350000Y-110335000D02*
X143150000Y-110335000D01*
X145350000Y-110335000D02*
X148950000Y-110335000D01*
%TO.C,SW1*%
X175630000Y-106170000D02*
X175630000Y-106200000D01*
X175630000Y-112630000D02*
X175630000Y-112600000D01*
X169170000Y-112630000D02*
X169170000Y-112600000D01*
X169170000Y-106200000D02*
X169170000Y-106170000D01*
X175630000Y-108100000D02*
X175630000Y-110700000D01*
X169170000Y-106170000D02*
X175630000Y-106170000D01*
X169170000Y-108100000D02*
X169170000Y-110700000D01*
X169170000Y-112630000D02*
X175630000Y-112630000D01*
%TO.C,R16*%
X172977064Y-80265000D02*
X172522936Y-80265000D01*
X172977064Y-81735000D02*
X172522936Y-81735000D01*
%TO.C,R15*%
X167635000Y-62289564D02*
X167635000Y-61835436D01*
X166165000Y-62289564D02*
X166165000Y-61835436D01*
%TO.C,R14*%
X154765000Y-124472936D02*
X154765000Y-124927064D01*
X156235000Y-124472936D02*
X156235000Y-124927064D01*
%TO.C,R13*%
X126077064Y-91815000D02*
X125622936Y-91815000D01*
X126077064Y-93285000D02*
X125622936Y-93285000D01*
%TO.C,R12*%
X191585436Y-102085000D02*
X192039564Y-102085000D01*
X191585436Y-100615000D02*
X192039564Y-100615000D01*
%TO.C,R11*%
X162065000Y-124672936D02*
X162065000Y-125127064D01*
X163535000Y-124672936D02*
X163535000Y-125127064D01*
%TO.C,R10*%
X148335000Y-84027064D02*
X148335000Y-83572936D01*
X146865000Y-84027064D02*
X146865000Y-83572936D01*
%TO.C,R9*%
X151885436Y-104535000D02*
X152339564Y-104535000D01*
X151885436Y-103065000D02*
X152339564Y-103065000D01*
%TO.C,R8*%
X167535000Y-87764564D02*
X167535000Y-87310436D01*
X166065000Y-87764564D02*
X166065000Y-87310436D01*
%TO.C,R7*%
X180135000Y-105685436D02*
X180135000Y-106139564D01*
X178665000Y-105685436D02*
X178665000Y-106139564D01*
%TO.C,R6*%
X140535000Y-108460436D02*
X140535000Y-108914564D01*
X139065000Y-108460436D02*
X139065000Y-108914564D01*
%TO.C,R4*%
X151939564Y-112935000D02*
X151485436Y-112935000D01*
X151939564Y-111465000D02*
X151485436Y-111465000D01*
%TO.C,R3*%
X138714564Y-106135000D02*
X138260436Y-106135000D01*
X138714564Y-104665000D02*
X138260436Y-104665000D01*
%TO.C,R2*%
X138135000Y-108460436D02*
X138135000Y-108914564D01*
X136665000Y-108460436D02*
X136665000Y-108914564D01*
%TO.C,R1*%
X152027064Y-110535000D02*
X151572936Y-110535000D01*
X152027064Y-109065000D02*
X151572936Y-109065000D01*
%TO.C,J8*%
X124790000Y-75010000D02*
X124790000Y-83440000D01*
X129060000Y-84710000D02*
X129060000Y-82910000D01*
X127610000Y-84710000D02*
X129060000Y-84710000D01*
X129060000Y-75540000D02*
X130050000Y-75540000D01*
X129060000Y-73740000D02*
X129060000Y-75540000D01*
X127610000Y-73740000D02*
X129060000Y-73740000D01*
%TO.C,J7*%
X193800000Y-79850000D02*
X193800000Y-79450000D01*
X193160000Y-79850000D02*
X193800000Y-79850000D01*
X189941000Y-75445000D02*
X190069000Y-75574000D01*
X187725000Y-73230000D02*
X187819000Y-73324000D01*
X190181000Y-75275000D02*
X190274000Y-75369000D01*
X187931000Y-73025000D02*
X188059000Y-73154000D01*
X185840000Y-72490000D02*
X193560000Y-72490000D01*
X185840000Y-79610000D02*
X193560000Y-79610000D01*
X193560000Y-79610000D02*
X193560000Y-72490000D01*
X185840000Y-79610000D02*
X185840000Y-72490000D01*
X192000000Y-79610000D02*
X192000000Y-72490000D01*
X193100000Y-79610000D02*
X193100000Y-72490000D01*
X190680000Y-74300000D02*
G75*
G03*
X190680000Y-74300000I-1680000J0D01*
G01*
X190680099Y-77771326D02*
G75*
G02*
X190440000Y-78666000I-1680099J-28674D01*
G01*
X189889894Y-79225358D02*
G75*
G02*
X188134000Y-79240000I-889894J1425358D01*
G01*
X187574642Y-78689894D02*
G75*
G02*
X187560000Y-76934000I1425358J889894D01*
G01*
X188109807Y-76374495D02*
G75*
G02*
X189891000Y-76375000I890193J-1425505D01*
G01*
X190424721Y-76909736D02*
G75*
G02*
X190680000Y-77800000I-1424721J-890264D01*
G01*
%TO.C,J6*%
X142025000Y-71270000D02*
X142025000Y-69810000D01*
X148375000Y-73930000D02*
X148435000Y-73930000D01*
X141965000Y-73930000D02*
X142025000Y-73930000D01*
X148435000Y-73930000D02*
X148435000Y-71270000D01*
X148375000Y-71270000D02*
X148435000Y-71270000D01*
X141965000Y-71270000D02*
X142025000Y-71270000D01*
X141965000Y-73930000D02*
X141965000Y-71270000D01*
%TO.C,J5*%
X151165000Y-125810000D02*
X145235000Y-125810000D01*
X143965000Y-121340000D02*
X145765000Y-121340000D01*
X143965000Y-122940000D02*
X143965000Y-121340000D01*
X150635000Y-121340000D02*
X150635000Y-120400000D01*
X152435000Y-121340000D02*
X150635000Y-121340000D01*
X152435000Y-122940000D02*
X152435000Y-121340000D01*
%TO.C,J4*%
X192960000Y-96565000D02*
X192960000Y-90635000D01*
X188690000Y-89365000D02*
X188690000Y-91165000D01*
X190140000Y-89365000D02*
X188690000Y-89365000D01*
X188690000Y-96035000D02*
X187700000Y-96035000D01*
X188690000Y-97835000D02*
X188690000Y-96035000D01*
X190140000Y-97835000D02*
X188690000Y-97835000D01*
%TO.C,J3*%
X162840000Y-60990000D02*
X156910000Y-60990000D01*
X155640000Y-65260000D02*
X157440000Y-65260000D01*
X155640000Y-63810000D02*
X155640000Y-65260000D01*
X162310000Y-65260000D02*
X162310000Y-66250000D01*
X164110000Y-65260000D02*
X162310000Y-65260000D01*
X164110000Y-63810000D02*
X164110000Y-65260000D01*
%TO.C,J2*%
X124790000Y-96560000D02*
X124790000Y-102490000D01*
X129060000Y-103760000D02*
X129060000Y-101960000D01*
X127610000Y-103760000D02*
X129060000Y-103760000D01*
X129060000Y-97090000D02*
X130050000Y-97090000D01*
X129060000Y-95290000D02*
X129060000Y-97090000D01*
X127610000Y-95290000D02*
X129060000Y-95290000D01*
%TO.C,J1*%
X167560000Y-125860000D02*
X173490000Y-125860000D01*
X174760000Y-121590000D02*
X172960000Y-121590000D01*
X174760000Y-123040000D02*
X174760000Y-121590000D01*
X168090000Y-121590000D02*
X168090000Y-120600000D01*
X166290000Y-121590000D02*
X168090000Y-121590000D01*
X166290000Y-123040000D02*
X166290000Y-121590000D01*
%TO.C,D6*%
X175065000Y-81960000D02*
X177750000Y-81960000D01*
X175065000Y-80040000D02*
X175065000Y-81960000D01*
X177750000Y-80040000D02*
X175065000Y-80040000D01*
%TO.C,D5*%
X165940000Y-64215000D02*
X165940000Y-66900000D01*
X167860000Y-64215000D02*
X165940000Y-64215000D01*
X167860000Y-66900000D02*
X167860000Y-64215000D01*
%TO.C,D4*%
X156460000Y-122385000D02*
X156460000Y-119700000D01*
X154540000Y-122385000D02*
X156460000Y-122385000D01*
X154540000Y-119700000D02*
X154540000Y-122385000D01*
%TO.C,D3*%
X127977500Y-93510000D02*
X130662500Y-93510000D01*
X127977500Y-91590000D02*
X127977500Y-93510000D01*
X130662500Y-91590000D02*
X127977500Y-91590000D01*
%TO.C,D2*%
X189585000Y-100390000D02*
X186900000Y-100390000D01*
X189585000Y-102310000D02*
X189585000Y-100390000D01*
X186900000Y-102310000D02*
X189585000Y-102310000D01*
%TO.C,D1*%
X163760000Y-122522500D02*
X163760000Y-119837500D01*
X161840000Y-122522500D02*
X163760000Y-122522500D01*
X161840000Y-119837500D02*
X161840000Y-122522500D01*
%TO.C,C14*%
X153865000Y-98838748D02*
X153865000Y-99361252D01*
X155335000Y-98838748D02*
X155335000Y-99361252D01*
%TO.C,C13*%
X152061252Y-100815000D02*
X151538748Y-100815000D01*
X152061252Y-102285000D02*
X151538748Y-102285000D01*
%TO.C,C12*%
X143838748Y-85935000D02*
X144361252Y-85935000D01*
X143838748Y-84465000D02*
X144361252Y-84465000D01*
%TO.C,C10*%
X155265000Y-89288748D02*
X155265000Y-89811252D01*
X156735000Y-89288748D02*
X156735000Y-89811252D01*
%TO.C,C9*%
X152088748Y-85535000D02*
X152611252Y-85535000D01*
X152088748Y-84065000D02*
X152611252Y-84065000D01*
%TO.C,C8*%
X180535000Y-79011252D02*
X180535000Y-78488748D01*
X179065000Y-79011252D02*
X179065000Y-78488748D01*
%TO.C,C7*%
X159135000Y-91811252D02*
X159135000Y-91288748D01*
X157665000Y-91811252D02*
X157665000Y-91288748D01*
%TO.C,C5*%
X164165000Y-98738748D02*
X164165000Y-99261252D01*
X165635000Y-98738748D02*
X165635000Y-99261252D01*
%TO.C,C4*%
X156665000Y-98738748D02*
X156665000Y-99261252D01*
X158135000Y-98738748D02*
X158135000Y-99261252D01*
%TO.C,C3*%
X167538748Y-83685000D02*
X168061252Y-83685000D01*
X167538748Y-82215000D02*
X168061252Y-82215000D01*
%TO.C,C2*%
X167488748Y-93185000D02*
X168011252Y-93185000D01*
X167488748Y-91715000D02*
X168011252Y-91715000D01*
%TO.C,C1*%
X143538748Y-110865000D02*
X144061252Y-110865000D01*
X143538748Y-112335000D02*
X144061252Y-112335000D01*
%TO.C,R17*%
X172865000Y-72939564D02*
X172865000Y-72485436D01*
X174335000Y-72939564D02*
X174335000Y-72485436D01*
%TD*%
M02*
