M48
; DRILL file {KiCad (5.1.9-0-10_14)} date Wednesday, April 28, 2021 at 02:42:58 PM
; FORMAT={-:-/ absolute / inch / decimal}
; #@! TF.CreationDate,2021-04-28T14:42:58+08:00
; #@! TF.GenerationSoftware,Kicad,Pcbnew,(5.1.9-0-10_14)
; #@! TF.FileFunction,Plated,1,2,PTH
FMAT,2
INCH
T1C0.0157
T2C0.0236
T3C0.0472
T4C0.1693
%
G90
G05
T1
X5.0Y-3.5118
X5.1573Y-3.1734
X5.1732Y-4.1969
X5.1969Y-3.622
X5.2205Y-3.9764
X5.2229Y-3.7842
X5.2677Y-3.9764
X5.2835Y-4.3543
X5.2992Y-3.6535
X5.3012Y-4.1339
X5.3307Y-3.2283
X5.3307Y-4.3543
X5.3465Y-4.0945
X5.3622Y-3.8819
X5.4331Y-4.0994
X5.4567Y-4.3784
X5.4791Y-3.1563
X5.5098Y-3.4091
X5.5276Y-2.874
X5.5327Y-3.7586
X5.5748Y-4.622
X5.6063Y-3.874
X5.6193Y-3.0996
X5.6614Y-3.0157
X5.685Y-4.2441
X5.6862Y-4.2847
X5.7087Y-4.4724
X5.7165Y-3.0157
X5.7441Y-4.0393
X5.7736Y-4.1489
X5.7736Y-4.2047
X5.7953Y-4.4862
X5.7975Y-3.8227
X5.8189Y-3.0472
X5.8425Y-3.9528
X5.8425Y-3.9921
X5.874Y-4.4862
X5.8807Y-3.5839
X5.9036Y-4.2993
X5.9291Y-3.5906
X5.935Y-4.2165
X5.937Y-4.5197
X5.9461Y-3.5495
X5.9843Y-3.5591
X6.0866Y-3.4016
X6.0945Y-3.0551
X6.107Y-3.3414
X6.1083Y-4.0217
X6.126Y-4.6535
X6.1339Y-3.252
X6.1417Y-3.937
X6.1417Y-4.0551
X6.1429Y-4.0957
X6.1496Y-3.6378
X6.1516Y-3.3386
X6.1811Y-4.0157
X6.2205Y-4.0157
X6.2441Y-3.0551
X6.2451Y-3.4793
X6.2596Y-3.1888
X6.2598Y-3.0079
X6.2598Y-3.1024
X6.2677Y-2.685
X6.2677Y-3.9843
X6.2785Y-3.5129
X6.315Y-2.685
X6.3701Y-2.685
X6.4016Y-2.7165
X6.4094Y-4.6614
X6.4646Y-3.0079
X6.5512Y-4.7579
X6.5591Y-4.1811
X6.6004Y-2.7165
X6.6299Y-3.7323
X6.6299Y-4.4724
X6.7559Y-2.5197
X6.7638Y-2.4803
X6.7874Y-3.0463
X6.7953Y-4.6772
X6.8268Y-3.0551
X6.8425Y-4.1732
X6.9606Y-2.7953
X7.0472Y-4.3937
X7.0866Y-2.9921
X7.2205Y-3.2913
X7.2441Y-3.6614
X7.2441Y-3.7087
X7.3386Y-3.9134
X7.5039Y-4.1732
T2
X4.9439Y-2.5591
X4.9439Y-4.8031
X4.9811Y-2.4693
X4.9811Y-2.6488
X4.9811Y-4.7134
X4.9811Y-4.8929
X5.0709Y-2.4321
X5.0709Y-2.686
X5.0709Y-4.6762
X5.0709Y-4.9301
X5.1606Y-2.4693
X5.1606Y-2.6488
X5.1606Y-4.7134
X5.1606Y-4.8929
X5.1978Y-2.5591
X5.1978Y-4.8031
X7.314Y-2.5591
X7.314Y-4.8031
X7.3512Y-2.4693
X7.3512Y-2.6488
X7.3512Y-4.7134
X7.3512Y-4.8929
X7.4409Y-2.4321
X7.4409Y-2.686
X7.4409Y-4.6762
X7.4409Y-4.9301
X7.5307Y-2.4693
X7.5307Y-2.6488
X7.5307Y-4.7134
X7.5307Y-4.8929
X7.5679Y-2.5591
X7.5679Y-4.8031
T3
X7.4409Y-2.9252
X7.4409Y-3.063
T4
X5.0709Y-2.5591
X5.0709Y-4.8031
X7.4409Y-2.5591
X7.4409Y-4.8031
T0
M30
